<?xml version="1.0" encoding="utf-8" standalone="no"?>
<!DOCTYPE svg PUBLIC "-//W3C//DTD SVG 1.1//EN"
  "http://www.w3.org/Graphics/SVG/1.1/DTD/svg11.dtd">
<svg xmlns:xlink="http://www.w3.org/1999/xlink" width="1072.46125pt" height="333.10025pt" viewBox="0 0 1072.46125 333.10025" xmlns="http://www.w3.org/2000/svg" version="1.1">
 <metadata>
  <rdf:RDF xmlns:dc="http://purl.org/dc/elements/1.1/" xmlns:cc="http://creativecommons.org/ns#" xmlns:rdf="http://www.w3.org/1999/02/22-rdf-syntax-ns#">
   <cc:Work>
    <dc:type rdf:resource="http://purl.org/dc/dcmitype/StillImage"/>
    <dc:date>2025-02-04T08:26:40.925434</dc:date>
    <dc:format>image/svg+xml</dc:format>
    <dc:creator>
     <cc:Agent>
      <dc:title>Matplotlib v3.9.2, https://matplotlib.org/</dc:title>
     </cc:Agent>
    </dc:creator>
   </cc:Work>
  </rdf:RDF>
 </metadata>
 <defs>
  <style type="text/css">*{stroke-linejoin: round; stroke-linecap: butt}</style>
 </defs>
 <g id="figure_1">
  <g id="patch_1">
   <path d="M 0 333.10025 
L 1072.46125 333.10025 
L 1072.46125 0 
L 0 0 
z
" style="fill: #ffffff"/>
  </g>
  <g id="axes_1">
   <g id="patch_2">
    <path d="M 43.78125 238.398125 
L 361.847917 238.398125 
L 361.847917 22.318125 
L 43.78125 22.318125 
z
" style="fill: #ffffff"/>
   </g>
   <g id="patch_3">
    <path d="M 58.238826 454.478125 
L 68.325507 454.478125 
L 68.325507 174.161276 
L 58.238826 174.161276 
z
" clip-path="url(#pad9aa5164a)" style="fill: #1f77b4"/>
   </g>
   <g id="patch_4">
    <path d="M 125.483364 454.478125 
L 135.570045 454.478125 
L 135.570045 166.439397 
L 125.483364 166.439397 
z
" clip-path="url(#pad9aa5164a)" style="fill: #1f77b4"/>
   </g>
   <g id="patch_5">
    <path d="M 192.727903 454.478125 
L 202.814583 454.478125 
L 202.814583 138.522094 
L 192.727903 138.522094 
z
" clip-path="url(#pad9aa5164a)" style="fill: #1f77b4"/>
   </g>
   <g id="patch_6">
    <path d="M 259.972441 454.478125 
L 270.059122 454.478125 
L 270.059122 105.067016 
L 259.972441 105.067016 
z
" clip-path="url(#pad9aa5164a)" style="fill: #1f77b4"/>
   </g>
   <g id="patch_7">
    <path d="M 327.216979 454.478125 
L 337.30366 454.478125 
L 337.30366 87.747285 
L 327.216979 87.747285 
z
" clip-path="url(#pad9aa5164a)" style="fill: #1f77b4"/>
   </g>
   <g id="patch_8">
    <path d="M 68.325507 454.478125 
L 78.412187 454.478125 
L 78.412187 183.593726 
L 68.325507 183.593726 
z
" clip-path="url(#pad9aa5164a)" style="fill: #ff7f0e"/>
   </g>
   <g id="patch_9">
    <path d="M 135.570045 454.478125 
L 145.656726 454.478125 
L 145.656726 183.593726 
L 135.570045 183.593726 
z
" clip-path="url(#pad9aa5164a)" style="fill: #ff7f0e"/>
   </g>
   <g id="patch_10">
    <path d="M 202.814583 454.478125 
L 212.901264 454.478125 
L 212.901264 183.593726 
L 202.814583 183.593726 
z
" clip-path="url(#pad9aa5164a)" style="fill: #ff7f0e"/>
   </g>
   <g id="patch_11">
    <path d="M 270.059122 454.478125 
L 280.145803 454.478125 
L 280.145803 183.593726 
L 270.059122 183.593726 
z
" clip-path="url(#pad9aa5164a)" style="fill: #ff7f0e"/>
   </g>
   <g id="patch_12">
    <path d="M 337.30366 454.478125 
L 347.390341 454.478125 
L 347.390341 183.593726 
L 337.30366 183.593726 
z
" clip-path="url(#pad9aa5164a)" style="fill: #ff7f0e"/>
   </g>
   <g id="matplotlib.axis_1">
    <g id="xtick_1">
     <g id="line2d_1">
      <defs>
       <path id="me8c4b1d890" d="M 0 0 
L 0 3.5 
" style="stroke: #000000; stroke-width: 0.8"/>
      </defs>
      <g>
       <use xlink:href="#me8c4b1d890" x="68.325507" y="238.398125" style="stroke: #000000; stroke-width: 0.8"/>
      </g>
     </g>
     <g id="text_1">
      <!-- 0.10 -->
      <g transform="translate(62.404592 266.515206) rotate(-45) scale(0.1 -0.1)">
       <defs>
        <path id="DejaVuSans-30" d="M 2034 4250 
Q 1547 4250 1301 3770 
Q 1056 3291 1056 2328 
Q 1056 1369 1301 889 
Q 1547 409 2034 409 
Q 2525 409 2770 889 
Q 3016 1369 3016 2328 
Q 3016 3291 2770 3770 
Q 2525 4250 2034 4250 
z
M 2034 4750 
Q 2819 4750 3233 4129 
Q 3647 3509 3647 2328 
Q 3647 1150 3233 529 
Q 2819 -91 2034 -91 
Q 1250 -91 836 529 
Q 422 1150 422 2328 
Q 422 3509 836 4129 
Q 1250 4750 2034 4750 
z
" transform="scale(0.015625)"/>
        <path id="DejaVuSans-2e" d="M 684 794 
L 1344 794 
L 1344 0 
L 684 0 
L 684 794 
z
" transform="scale(0.015625)"/>
        <path id="DejaVuSans-31" d="M 794 531 
L 1825 531 
L 1825 4091 
L 703 3866 
L 703 4441 
L 1819 4666 
L 2450 4666 
L 2450 531 
L 3481 531 
L 3481 0 
L 794 0 
L 794 531 
z
" transform="scale(0.015625)"/>
       </defs>
       <use xlink:href="#DejaVuSans-30"/>
       <use xlink:href="#DejaVuSans-2e" x="63.623047"/>
       <use xlink:href="#DejaVuSans-31" x="95.410156"/>
       <use xlink:href="#DejaVuSans-30" x="159.033203"/>
      </g>
     </g>
    </g>
    <g id="xtick_2">
     <g id="line2d_2">
      <g>
       <use xlink:href="#me8c4b1d890" x="135.570045" y="238.398125" style="stroke: #000000; stroke-width: 0.8"/>
      </g>
     </g>
     <g id="text_2">
      <!-- 0.25 -->
      <g transform="translate(129.64913 266.515206) rotate(-45) scale(0.1 -0.1)">
       <defs>
        <path id="DejaVuSans-32" d="M 1228 531 
L 3431 531 
L 3431 0 
L 469 0 
L 469 531 
Q 828 903 1448 1529 
Q 2069 2156 2228 2338 
Q 2531 2678 2651 2914 
Q 2772 3150 2772 3378 
Q 2772 3750 2511 3984 
Q 2250 4219 1831 4219 
Q 1534 4219 1204 4116 
Q 875 4013 500 3803 
L 500 4441 
Q 881 4594 1212 4672 
Q 1544 4750 1819 4750 
Q 2544 4750 2975 4387 
Q 3406 4025 3406 3419 
Q 3406 3131 3298 2873 
Q 3191 2616 2906 2266 
Q 2828 2175 2409 1742 
Q 1991 1309 1228 531 
z
" transform="scale(0.015625)"/>
        <path id="DejaVuSans-35" d="M 691 4666 
L 3169 4666 
L 3169 4134 
L 1269 4134 
L 1269 2991 
Q 1406 3038 1543 3061 
Q 1681 3084 1819 3084 
Q 2600 3084 3056 2656 
Q 3513 2228 3513 1497 
Q 3513 744 3044 326 
Q 2575 -91 1722 -91 
Q 1428 -91 1123 -41 
Q 819 9 494 109 
L 494 744 
Q 775 591 1075 516 
Q 1375 441 1709 441 
Q 2250 441 2565 725 
Q 2881 1009 2881 1497 
Q 2881 1984 2565 2268 
Q 2250 2553 1709 2553 
Q 1456 2553 1204 2497 
Q 953 2441 691 2322 
L 691 4666 
z
" transform="scale(0.015625)"/>
       </defs>
       <use xlink:href="#DejaVuSans-30"/>
       <use xlink:href="#DejaVuSans-2e" x="63.623047"/>
       <use xlink:href="#DejaVuSans-32" x="95.410156"/>
       <use xlink:href="#DejaVuSans-35" x="159.033203"/>
      </g>
     </g>
    </g>
    <g id="xtick_3">
     <g id="line2d_3">
      <g>
       <use xlink:href="#me8c4b1d890" x="202.814583" y="238.398125" style="stroke: #000000; stroke-width: 0.8"/>
      </g>
     </g>
     <g id="text_3">
      <!-- 0.50 -->
      <g transform="translate(196.893669 266.515206) rotate(-45) scale(0.1 -0.1)">
       <use xlink:href="#DejaVuSans-30"/>
       <use xlink:href="#DejaVuSans-2e" x="63.623047"/>
       <use xlink:href="#DejaVuSans-35" x="95.410156"/>
       <use xlink:href="#DejaVuSans-30" x="159.033203"/>
      </g>
     </g>
    </g>
    <g id="xtick_4">
     <g id="line2d_4">
      <g>
       <use xlink:href="#me8c4b1d890" x="270.059122" y="238.398125" style="stroke: #000000; stroke-width: 0.8"/>
      </g>
     </g>
     <g id="text_4">
      <!-- 0.75 -->
      <g transform="translate(264.138207 266.515206) rotate(-45) scale(0.1 -0.1)">
       <defs>
        <path id="DejaVuSans-37" d="M 525 4666 
L 3525 4666 
L 3525 4397 
L 1831 0 
L 1172 0 
L 2766 4134 
L 525 4134 
L 525 4666 
z
" transform="scale(0.015625)"/>
       </defs>
       <use xlink:href="#DejaVuSans-30"/>
       <use xlink:href="#DejaVuSans-2e" x="63.623047"/>
       <use xlink:href="#DejaVuSans-37" x="95.410156"/>
       <use xlink:href="#DejaVuSans-35" x="159.033203"/>
      </g>
     </g>
    </g>
    <g id="xtick_5">
     <g id="line2d_5">
      <g>
       <use xlink:href="#me8c4b1d890" x="337.30366" y="238.398125" style="stroke: #000000; stroke-width: 0.8"/>
      </g>
     </g>
     <g id="text_5">
      <!-- 1.00 -->
      <g transform="translate(331.382746 266.515206) rotate(-45) scale(0.1 -0.1)">
       <use xlink:href="#DejaVuSans-31"/>
       <use xlink:href="#DejaVuSans-2e" x="63.623047"/>
       <use xlink:href="#DejaVuSans-30" x="95.410156"/>
       <use xlink:href="#DejaVuSans-30" x="159.033203"/>
      </g>
     </g>
    </g>
    <g id="text_6">
     <!-- Mix Rate -->
     <g transform="translate(181.100521 279.584205) scale(0.1 -0.1)">
      <defs>
       <path id="DejaVuSans-4d" d="M 628 4666 
L 1569 4666 
L 2759 1491 
L 3956 4666 
L 4897 4666 
L 4897 0 
L 4281 0 
L 4281 4097 
L 3078 897 
L 2444 897 
L 1241 4097 
L 1241 0 
L 628 0 
L 628 4666 
z
" transform="scale(0.015625)"/>
       <path id="DejaVuSans-69" d="M 603 3500 
L 1178 3500 
L 1178 0 
L 603 0 
L 603 3500 
z
M 603 4863 
L 1178 4863 
L 1178 4134 
L 603 4134 
L 603 4863 
z
" transform="scale(0.015625)"/>
       <path id="DejaVuSans-78" d="M 3513 3500 
L 2247 1797 
L 3578 0 
L 2900 0 
L 1881 1375 
L 863 0 
L 184 0 
L 1544 1831 
L 300 3500 
L 978 3500 
L 1906 2253 
L 2834 3500 
L 3513 3500 
z
" transform="scale(0.015625)"/>
       <path id="DejaVuSans-20" transform="scale(0.015625)"/>
       <path id="DejaVuSans-52" d="M 2841 2188 
Q 3044 2119 3236 1894 
Q 3428 1669 3622 1275 
L 4263 0 
L 3584 0 
L 2988 1197 
Q 2756 1666 2539 1819 
Q 2322 1972 1947 1972 
L 1259 1972 
L 1259 0 
L 628 0 
L 628 4666 
L 2053 4666 
Q 2853 4666 3247 4331 
Q 3641 3997 3641 3322 
Q 3641 2881 3436 2590 
Q 3231 2300 2841 2188 
z
M 1259 4147 
L 1259 2491 
L 2053 2491 
Q 2509 2491 2742 2702 
Q 2975 2913 2975 3322 
Q 2975 3731 2742 3939 
Q 2509 4147 2053 4147 
L 1259 4147 
z
" transform="scale(0.015625)"/>
       <path id="DejaVuSans-61" d="M 2194 1759 
Q 1497 1759 1228 1600 
Q 959 1441 959 1056 
Q 959 750 1161 570 
Q 1363 391 1709 391 
Q 2188 391 2477 730 
Q 2766 1069 2766 1631 
L 2766 1759 
L 2194 1759 
z
M 3341 1997 
L 3341 0 
L 2766 0 
L 2766 531 
Q 2569 213 2275 61 
Q 1981 -91 1556 -91 
Q 1019 -91 701 211 
Q 384 513 384 1019 
Q 384 1609 779 1909 
Q 1175 2209 1959 2209 
L 2766 2209 
L 2766 2266 
Q 2766 2663 2505 2880 
Q 2244 3097 1772 3097 
Q 1472 3097 1187 3025 
Q 903 2953 641 2809 
L 641 3341 
Q 956 3463 1253 3523 
Q 1550 3584 1831 3584 
Q 2591 3584 2966 3190 
Q 3341 2797 3341 1997 
z
" transform="scale(0.015625)"/>
       <path id="DejaVuSans-74" d="M 1172 4494 
L 1172 3500 
L 2356 3500 
L 2356 3053 
L 1172 3053 
L 1172 1153 
Q 1172 725 1289 603 
Q 1406 481 1766 481 
L 2356 481 
L 2356 0 
L 1766 0 
Q 1100 0 847 248 
Q 594 497 594 1153 
L 594 3053 
L 172 3053 
L 172 3500 
L 594 3500 
L 594 4494 
L 1172 4494 
z
" transform="scale(0.015625)"/>
       <path id="DejaVuSans-65" d="M 3597 1894 
L 3597 1613 
L 953 1613 
Q 991 1019 1311 708 
Q 1631 397 2203 397 
Q 2534 397 2845 478 
Q 3156 559 3463 722 
L 3463 178 
Q 3153 47 2828 -22 
Q 2503 -91 2169 -91 
Q 1331 -91 842 396 
Q 353 884 353 1716 
Q 353 2575 817 3079 
Q 1281 3584 2069 3584 
Q 2775 3584 3186 3129 
Q 3597 2675 3597 1894 
z
M 3022 2063 
Q 3016 2534 2758 2815 
Q 2500 3097 2075 3097 
Q 1594 3097 1305 2825 
Q 1016 2553 972 2059 
L 3022 2063 
z
" transform="scale(0.015625)"/>
      </defs>
      <use xlink:href="#DejaVuSans-4d"/>
      <use xlink:href="#DejaVuSans-69" x="86.279297"/>
      <use xlink:href="#DejaVuSans-78" x="114.0625"/>
      <use xlink:href="#DejaVuSans-20" x="173.242188"/>
      <use xlink:href="#DejaVuSans-52" x="205.029297"/>
      <use xlink:href="#DejaVuSans-61" x="272.261719"/>
      <use xlink:href="#DejaVuSans-74" x="333.541016"/>
      <use xlink:href="#DejaVuSans-65" x="372.75"/>
     </g>
    </g>
   </g>
   <g id="matplotlib.axis_2">
    <g id="ytick_1">
     <g id="line2d_6">
      <defs>
       <path id="m3a8e8c7714" d="M 0 0 
L -3.5 0 
" style="stroke: #000000; stroke-width: 0.8"/>
      </defs>
      <g>
       <use xlink:href="#m3a8e8c7714" x="43.78125" y="238.398125" style="stroke: #000000; stroke-width: 0.8"/>
      </g>
     </g>
     <g id="text_7">
      <!-- 0.5 -->
      <g transform="translate(20.878125 242.197344) scale(0.1 -0.1)">
       <use xlink:href="#DejaVuSans-30"/>
       <use xlink:href="#DejaVuSans-2e" x="63.623047"/>
       <use xlink:href="#DejaVuSans-35" x="95.410156"/>
      </g>
     </g>
    </g>
    <g id="ytick_2">
     <g id="line2d_7">
      <g>
       <use xlink:href="#m3a8e8c7714" x="43.78125" y="195.182125" style="stroke: #000000; stroke-width: 0.8"/>
      </g>
     </g>
     <g id="text_8">
      <!-- 0.6 -->
      <g transform="translate(20.878125 198.981344) scale(0.1 -0.1)">
       <defs>
        <path id="DejaVuSans-36" d="M 2113 2584 
Q 1688 2584 1439 2293 
Q 1191 2003 1191 1497 
Q 1191 994 1439 701 
Q 1688 409 2113 409 
Q 2538 409 2786 701 
Q 3034 994 3034 1497 
Q 3034 2003 2786 2293 
Q 2538 2584 2113 2584 
z
M 3366 4563 
L 3366 3988 
Q 3128 4100 2886 4159 
Q 2644 4219 2406 4219 
Q 1781 4219 1451 3797 
Q 1122 3375 1075 2522 
Q 1259 2794 1537 2939 
Q 1816 3084 2150 3084 
Q 2853 3084 3261 2657 
Q 3669 2231 3669 1497 
Q 3669 778 3244 343 
Q 2819 -91 2113 -91 
Q 1303 -91 875 529 
Q 447 1150 447 2328 
Q 447 3434 972 4092 
Q 1497 4750 2381 4750 
Q 2619 4750 2861 4703 
Q 3103 4656 3366 4563 
z
" transform="scale(0.015625)"/>
       </defs>
       <use xlink:href="#DejaVuSans-30"/>
       <use xlink:href="#DejaVuSans-2e" x="63.623047"/>
       <use xlink:href="#DejaVuSans-36" x="95.410156"/>
      </g>
     </g>
    </g>
    <g id="ytick_3">
     <g id="line2d_8">
      <g>
       <use xlink:href="#m3a8e8c7714" x="43.78125" y="151.966125" style="stroke: #000000; stroke-width: 0.8"/>
      </g>
     </g>
     <g id="text_9">
      <!-- 0.7 -->
      <g transform="translate(20.878125 155.765344) scale(0.1 -0.1)">
       <use xlink:href="#DejaVuSans-30"/>
       <use xlink:href="#DejaVuSans-2e" x="63.623047"/>
       <use xlink:href="#DejaVuSans-37" x="95.410156"/>
      </g>
     </g>
    </g>
    <g id="ytick_4">
     <g id="line2d_9">
      <g>
       <use xlink:href="#m3a8e8c7714" x="43.78125" y="108.750125" style="stroke: #000000; stroke-width: 0.8"/>
      </g>
     </g>
     <g id="text_10">
      <!-- 0.8 -->
      <g transform="translate(20.878125 112.549344) scale(0.1 -0.1)">
       <defs>
        <path id="DejaVuSans-38" d="M 2034 2216 
Q 1584 2216 1326 1975 
Q 1069 1734 1069 1313 
Q 1069 891 1326 650 
Q 1584 409 2034 409 
Q 2484 409 2743 651 
Q 3003 894 3003 1313 
Q 3003 1734 2745 1975 
Q 2488 2216 2034 2216 
z
M 1403 2484 
Q 997 2584 770 2862 
Q 544 3141 544 3541 
Q 544 4100 942 4425 
Q 1341 4750 2034 4750 
Q 2731 4750 3128 4425 
Q 3525 4100 3525 3541 
Q 3525 3141 3298 2862 
Q 3072 2584 2669 2484 
Q 3125 2378 3379 2068 
Q 3634 1759 3634 1313 
Q 3634 634 3220 271 
Q 2806 -91 2034 -91 
Q 1263 -91 848 271 
Q 434 634 434 1313 
Q 434 1759 690 2068 
Q 947 2378 1403 2484 
z
M 1172 3481 
Q 1172 3119 1398 2916 
Q 1625 2713 2034 2713 
Q 2441 2713 2670 2916 
Q 2900 3119 2900 3481 
Q 2900 3844 2670 4047 
Q 2441 4250 2034 4250 
Q 1625 4250 1398 4047 
Q 1172 3844 1172 3481 
z
" transform="scale(0.015625)"/>
       </defs>
       <use xlink:href="#DejaVuSans-30"/>
       <use xlink:href="#DejaVuSans-2e" x="63.623047"/>
       <use xlink:href="#DejaVuSans-38" x="95.410156"/>
      </g>
     </g>
    </g>
    <g id="ytick_5">
     <g id="line2d_10">
      <g>
       <use xlink:href="#m3a8e8c7714" x="43.78125" y="65.534125" style="stroke: #000000; stroke-width: 0.8"/>
      </g>
     </g>
     <g id="text_11">
      <!-- 0.9 -->
      <g transform="translate(20.878125 69.333344) scale(0.1 -0.1)">
       <defs>
        <path id="DejaVuSans-39" d="M 703 97 
L 703 672 
Q 941 559 1184 500 
Q 1428 441 1663 441 
Q 2288 441 2617 861 
Q 2947 1281 2994 2138 
Q 2813 1869 2534 1725 
Q 2256 1581 1919 1581 
Q 1219 1581 811 2004 
Q 403 2428 403 3163 
Q 403 3881 828 4315 
Q 1253 4750 1959 4750 
Q 2769 4750 3195 4129 
Q 3622 3509 3622 2328 
Q 3622 1225 3098 567 
Q 2575 -91 1691 -91 
Q 1453 -91 1209 -44 
Q 966 3 703 97 
z
M 1959 2075 
Q 2384 2075 2632 2365 
Q 2881 2656 2881 3163 
Q 2881 3666 2632 3958 
Q 2384 4250 1959 4250 
Q 1534 4250 1286 3958 
Q 1038 3666 1038 3163 
Q 1038 2656 1286 2365 
Q 1534 2075 1959 2075 
z
" transform="scale(0.015625)"/>
       </defs>
       <use xlink:href="#DejaVuSans-30"/>
       <use xlink:href="#DejaVuSans-2e" x="63.623047"/>
       <use xlink:href="#DejaVuSans-39" x="95.410156"/>
      </g>
     </g>
    </g>
    <g id="ytick_6">
     <g id="line2d_11">
      <g>
       <use xlink:href="#m3a8e8c7714" x="43.78125" y="22.318125" style="stroke: #000000; stroke-width: 0.8"/>
      </g>
     </g>
     <g id="text_12">
      <!-- 1.0 -->
      <g transform="translate(20.878125 26.117344) scale(0.1 -0.1)">
       <use xlink:href="#DejaVuSans-31"/>
       <use xlink:href="#DejaVuSans-2e" x="63.623047"/>
       <use xlink:href="#DejaVuSans-30" x="95.410156"/>
      </g>
     </g>
    </g>
    <g id="text_13">
     <!-- Accuracy -->
     <g transform="translate(14.798438 153.18625) rotate(-90) scale(0.1 -0.1)">
      <defs>
       <path id="DejaVuSans-41" d="M 2188 4044 
L 1331 1722 
L 3047 1722 
L 2188 4044 
z
M 1831 4666 
L 2547 4666 
L 4325 0 
L 3669 0 
L 3244 1197 
L 1141 1197 
L 716 0 
L 50 0 
L 1831 4666 
z
" transform="scale(0.015625)"/>
       <path id="DejaVuSans-63" d="M 3122 3366 
L 3122 2828 
Q 2878 2963 2633 3030 
Q 2388 3097 2138 3097 
Q 1578 3097 1268 2742 
Q 959 2388 959 1747 
Q 959 1106 1268 751 
Q 1578 397 2138 397 
Q 2388 397 2633 464 
Q 2878 531 3122 666 
L 3122 134 
Q 2881 22 2623 -34 
Q 2366 -91 2075 -91 
Q 1284 -91 818 406 
Q 353 903 353 1747 
Q 353 2603 823 3093 
Q 1294 3584 2113 3584 
Q 2378 3584 2631 3529 
Q 2884 3475 3122 3366 
z
" transform="scale(0.015625)"/>
       <path id="DejaVuSans-75" d="M 544 1381 
L 544 3500 
L 1119 3500 
L 1119 1403 
Q 1119 906 1312 657 
Q 1506 409 1894 409 
Q 2359 409 2629 706 
Q 2900 1003 2900 1516 
L 2900 3500 
L 3475 3500 
L 3475 0 
L 2900 0 
L 2900 538 
Q 2691 219 2414 64 
Q 2138 -91 1772 -91 
Q 1169 -91 856 284 
Q 544 659 544 1381 
z
M 1991 3584 
L 1991 3584 
z
" transform="scale(0.015625)"/>
       <path id="DejaVuSans-72" d="M 2631 2963 
Q 2534 3019 2420 3045 
Q 2306 3072 2169 3072 
Q 1681 3072 1420 2755 
Q 1159 2438 1159 1844 
L 1159 0 
L 581 0 
L 581 3500 
L 1159 3500 
L 1159 2956 
Q 1341 3275 1631 3429 
Q 1922 3584 2338 3584 
Q 2397 3584 2469 3576 
Q 2541 3569 2628 3553 
L 2631 2963 
z
" transform="scale(0.015625)"/>
       <path id="DejaVuSans-79" d="M 2059 -325 
Q 1816 -950 1584 -1140 
Q 1353 -1331 966 -1331 
L 506 -1331 
L 506 -850 
L 844 -850 
Q 1081 -850 1212 -737 
Q 1344 -625 1503 -206 
L 1606 56 
L 191 3500 
L 800 3500 
L 1894 763 
L 2988 3500 
L 3597 3500 
L 2059 -325 
z
" transform="scale(0.015625)"/>
      </defs>
      <use xlink:href="#DejaVuSans-41"/>
      <use xlink:href="#DejaVuSans-63" x="66.658203"/>
      <use xlink:href="#DejaVuSans-63" x="121.638672"/>
      <use xlink:href="#DejaVuSans-75" x="176.619141"/>
      <use xlink:href="#DejaVuSans-72" x="239.998047"/>
      <use xlink:href="#DejaVuSans-61" x="281.111328"/>
      <use xlink:href="#DejaVuSans-63" x="342.390625"/>
      <use xlink:href="#DejaVuSans-79" x="397.371094"/>
     </g>
    </g>
   </g>
   <g id="LineCollection_1">
    <path d="M 63.282166 210.734555 
L 63.282166 137.587997 
" clip-path="url(#pad9aa5164a)" style="fill: none; stroke: #000000; stroke-width: 1.5"/>
    <path d="M 130.526705 199.908628 
L 130.526705 132.970166 
" clip-path="url(#pad9aa5164a)" style="fill: none; stroke: #000000; stroke-width: 1.5"/>
    <path d="M 197.771243 160.400219 
L 197.771243 116.643969 
" clip-path="url(#pad9aa5164a)" style="fill: none; stroke: #000000; stroke-width: 1.5"/>
    <path d="M 265.015781 135.727207 
L 265.015781 74.406825 
" clip-path="url(#pad9aa5164a)" style="fill: none; stroke: #000000; stroke-width: 1.5"/>
    <path d="M 332.26032 143.005373 
L 332.26032 32.489197 
" clip-path="url(#pad9aa5164a)" style="fill: none; stroke: #000000; stroke-width: 1.5"/>
   </g>
   <g id="line2d_12">
    <defs>
     <path id="m29fcd60ed5" d="M 3 0 
L -3 -0 
" style="stroke: #000000"/>
    </defs>
    <g clip-path="url(#pad9aa5164a)">
     <use xlink:href="#m29fcd60ed5" x="63.282166" y="210.734555" style="stroke: #000000"/>
     <use xlink:href="#m29fcd60ed5" x="130.526705" y="199.908628" style="stroke: #000000"/>
     <use xlink:href="#m29fcd60ed5" x="197.771243" y="160.400219" style="stroke: #000000"/>
     <use xlink:href="#m29fcd60ed5" x="265.015781" y="135.727207" style="stroke: #000000"/>
     <use xlink:href="#m29fcd60ed5" x="332.26032" y="143.005373" style="stroke: #000000"/>
    </g>
   </g>
   <g id="line2d_13">
    <g clip-path="url(#pad9aa5164a)">
     <use xlink:href="#m29fcd60ed5" x="63.282166" y="137.587997" style="stroke: #000000"/>
     <use xlink:href="#m29fcd60ed5" x="130.526705" y="132.970166" style="stroke: #000000"/>
     <use xlink:href="#m29fcd60ed5" x="197.771243" y="116.643969" style="stroke: #000000"/>
     <use xlink:href="#m29fcd60ed5" x="265.015781" y="74.406825" style="stroke: #000000"/>
     <use xlink:href="#m29fcd60ed5" x="332.26032" y="32.489197" style="stroke: #000000"/>
    </g>
   </g>
   <g id="LineCollection_2">
    <path d="M 73.368847 232.825945 
L 73.368847 134.361508 
" clip-path="url(#pad9aa5164a)" style="fill: none; stroke: #000000; stroke-width: 1.5"/>
    <path d="M 140.613385 232.825945 
L 140.613385 134.361508 
" clip-path="url(#pad9aa5164a)" style="fill: none; stroke: #000000; stroke-width: 1.5"/>
    <path d="M 207.857924 232.825945 
L 207.857924 134.361508 
" clip-path="url(#pad9aa5164a)" style="fill: none; stroke: #000000; stroke-width: 1.5"/>
    <path d="M 275.102462 232.825945 
L 275.102462 134.361508 
" clip-path="url(#pad9aa5164a)" style="fill: none; stroke: #000000; stroke-width: 1.5"/>
    <path d="M 342.347001 232.825945 
L 342.347001 134.361508 
" clip-path="url(#pad9aa5164a)" style="fill: none; stroke: #000000; stroke-width: 1.5"/>
   </g>
   <g id="line2d_14">
    <g clip-path="url(#pad9aa5164a)">
     <use xlink:href="#m29fcd60ed5" x="73.368847" y="232.825945" style="stroke: #000000"/>
     <use xlink:href="#m29fcd60ed5" x="140.613385" y="232.825945" style="stroke: #000000"/>
     <use xlink:href="#m29fcd60ed5" x="207.857924" y="232.825945" style="stroke: #000000"/>
     <use xlink:href="#m29fcd60ed5" x="275.102462" y="232.825945" style="stroke: #000000"/>
     <use xlink:href="#m29fcd60ed5" x="342.347001" y="232.825945" style="stroke: #000000"/>
    </g>
   </g>
   <g id="line2d_15">
    <g clip-path="url(#pad9aa5164a)">
     <use xlink:href="#m29fcd60ed5" x="73.368847" y="134.361508" style="stroke: #000000"/>
     <use xlink:href="#m29fcd60ed5" x="140.613385" y="134.361508" style="stroke: #000000"/>
     <use xlink:href="#m29fcd60ed5" x="207.857924" y="134.361508" style="stroke: #000000"/>
     <use xlink:href="#m29fcd60ed5" x="275.102462" y="134.361508" style="stroke: #000000"/>
     <use xlink:href="#m29fcd60ed5" x="342.347001" y="134.361508" style="stroke: #000000"/>
    </g>
   </g>
   <g id="patch_13">
    <path d="M 43.78125 238.398125 
L 43.78125 22.318125 
" style="fill: none; stroke: #000000; stroke-width: 0.8; stroke-linejoin: miter; stroke-linecap: square"/>
   </g>
   <g id="patch_14">
    <path d="M 43.78125 238.398125 
L 361.847917 238.398125 
" style="fill: none; stroke: #000000; stroke-width: 0.8; stroke-linejoin: miter; stroke-linecap: square"/>
   </g>
   <g id="text_14">
    <!-- Average -->
    <g transform="translate(178.175208 16.318125) scale(0.12 -0.12)">
     <defs>
      <path id="DejaVuSans-76" d="M 191 3500 
L 800 3500 
L 1894 563 
L 2988 3500 
L 3597 3500 
L 2284 0 
L 1503 0 
L 191 3500 
z
" transform="scale(0.015625)"/>
      <path id="DejaVuSans-67" d="M 2906 1791 
Q 2906 2416 2648 2759 
Q 2391 3103 1925 3103 
Q 1463 3103 1205 2759 
Q 947 2416 947 1791 
Q 947 1169 1205 825 
Q 1463 481 1925 481 
Q 2391 481 2648 825 
Q 2906 1169 2906 1791 
z
M 3481 434 
Q 3481 -459 3084 -895 
Q 2688 -1331 1869 -1331 
Q 1566 -1331 1297 -1286 
Q 1028 -1241 775 -1147 
L 775 -588 
Q 1028 -725 1275 -790 
Q 1522 -856 1778 -856 
Q 2344 -856 2625 -561 
Q 2906 -266 2906 331 
L 2906 616 
Q 2728 306 2450 153 
Q 2172 0 1784 0 
Q 1141 0 747 490 
Q 353 981 353 1791 
Q 353 2603 747 3093 
Q 1141 3584 1784 3584 
Q 2172 3584 2450 3431 
Q 2728 3278 2906 2969 
L 2906 3500 
L 3481 3500 
L 3481 434 
z
" transform="scale(0.015625)"/>
     </defs>
     <use xlink:href="#DejaVuSans-41"/>
     <use xlink:href="#DejaVuSans-76" x="62.533203"/>
     <use xlink:href="#DejaVuSans-65" x="121.712891"/>
     <use xlink:href="#DejaVuSans-72" x="183.236328"/>
     <use xlink:href="#DejaVuSans-61" x="224.349609"/>
     <use xlink:href="#DejaVuSans-67" x="285.628906"/>
     <use xlink:href="#DejaVuSans-65" x="349.105469"/>
    </g>
   </g>
   <g id="legend_1">
    <g id="patch_15">
     <path d="M 138.49974 325.90025 
L 267.129427 325.90025 
Q 269.129427 325.90025 269.129427 323.90025 
L 269.129427 310.222125 
Q 269.129427 308.222125 267.129427 308.222125 
L 138.49974 308.222125 
Q 136.49974 308.222125 136.49974 310.222125 
L 136.49974 323.90025 
Q 136.49974 325.90025 138.49974 325.90025 
z
" style="fill: #ffffff; opacity: 0.8; stroke: #cccccc; stroke-linejoin: miter"/>
    </g>
    <g id="patch_16">
     <path d="M 140.49974 319.820562 
L 160.49974 319.820562 
L 160.49974 312.820562 
L 140.49974 312.820562 
z
" style="fill: #1f77b4"/>
    </g>
    <g id="text_15">
     <!-- DBAT -->
     <g transform="translate(168.49974 319.820562) scale(0.1 -0.1)">
      <defs>
       <path id="DejaVuSans-44" d="M 1259 4147 
L 1259 519 
L 2022 519 
Q 2988 519 3436 956 
Q 3884 1394 3884 2338 
Q 3884 3275 3436 3711 
Q 2988 4147 2022 4147 
L 1259 4147 
z
M 628 4666 
L 1925 4666 
Q 3281 4666 3915 4102 
Q 4550 3538 4550 2338 
Q 4550 1131 3912 565 
Q 3275 0 1925 0 
L 628 0 
L 628 4666 
z
" transform="scale(0.015625)"/>
       <path id="DejaVuSans-42" d="M 1259 2228 
L 1259 519 
L 2272 519 
Q 2781 519 3026 730 
Q 3272 941 3272 1375 
Q 3272 1813 3026 2020 
Q 2781 2228 2272 2228 
L 1259 2228 
z
M 1259 4147 
L 1259 2741 
L 2194 2741 
Q 2656 2741 2882 2914 
Q 3109 3088 3109 3444 
Q 3109 3797 2882 3972 
Q 2656 4147 2194 4147 
L 1259 4147 
z
M 628 4666 
L 2241 4666 
Q 2963 4666 3353 4366 
Q 3744 4066 3744 3513 
Q 3744 3084 3544 2831 
Q 3344 2578 2956 2516 
Q 3422 2416 3680 2098 
Q 3938 1781 3938 1306 
Q 3938 681 3513 340 
Q 3088 0 2303 0 
L 628 0 
L 628 4666 
z
" transform="scale(0.015625)"/>
       <path id="DejaVuSans-54" d="M -19 4666 
L 3928 4666 
L 3928 4134 
L 2272 4134 
L 2272 0 
L 1638 0 
L 1638 4134 
L -19 4134 
L -19 4666 
z
" transform="scale(0.015625)"/>
      </defs>
      <use xlink:href="#DejaVuSans-44"/>
      <use xlink:href="#DejaVuSans-42" x="77.001953"/>
      <use xlink:href="#DejaVuSans-41" x="145.605469"/>
      <use xlink:href="#DejaVuSans-54" x="206.263672"/>
     </g>
    </g>
    <g id="patch_17">
     <path d="M 215.234115 319.820562 
L 235.234115 319.820562 
L 235.234115 312.820562 
L 215.234115 312.820562 
z
" style="fill: #ff7f0e"/>
    </g>
    <g id="text_16">
     <!-- ERM -->
     <g transform="translate(243.234115 319.820562) scale(0.1 -0.1)">
      <defs>
       <path id="DejaVuSans-45" d="M 628 4666 
L 3578 4666 
L 3578 4134 
L 1259 4134 
L 1259 2753 
L 3481 2753 
L 3481 2222 
L 1259 2222 
L 1259 531 
L 3634 531 
L 3634 0 
L 628 0 
L 628 4666 
z
" transform="scale(0.015625)"/>
      </defs>
      <use xlink:href="#DejaVuSans-45"/>
      <use xlink:href="#DejaVuSans-52" x="63.183594"/>
      <use xlink:href="#DejaVuSans-4d" x="132.666016"/>
     </g>
    </g>
   </g>
  </g>
  <g id="axes_2">
   <g id="patch_18">
    <path d="M 395.487917 238.398125 
L 713.554583 238.398125 
L 713.554583 22.318125 
L 395.487917 22.318125 
z
" style="fill: #ffffff"/>
   </g>
   <g id="patch_19">
    <path d="M 409.945492 454.478125 
L 420.032173 454.478125 
L 420.032173 64.347089 
L 409.945492 64.347089 
z
" clip-path="url(#p9b1d9a8619)" style="fill: #1f77b4"/>
   </g>
   <g id="patch_20">
    <path d="M 477.190031 454.478125 
L 487.276712 454.478125 
L 487.276712 64.464096 
L 477.190031 64.464096 
z
" clip-path="url(#p9b1d9a8619)" style="fill: #1f77b4"/>
   </g>
   <g id="patch_21">
    <path d="M 544.434569 454.478125 
L 554.52125 454.478125 
L 554.52125 63.765375 
L 544.434569 63.765375 
z
" clip-path="url(#p9b1d9a8619)" style="fill: #1f77b4"/>
   </g>
   <g id="patch_22">
    <path d="M 611.679108 454.478125 
L 621.765788 454.478125 
L 621.765788 60.70619 
L 611.679108 60.70619 
z
" clip-path="url(#p9b1d9a8619)" style="fill: #1f77b4"/>
   </g>
   <g id="patch_23">
    <path d="M 678.923646 454.478125 
L 689.010327 454.478125 
L 689.010327 63.947404 
L 678.923646 63.947404 
z
" clip-path="url(#p9b1d9a8619)" style="fill: #1f77b4"/>
   </g>
   <g id="patch_24">
    <path d="M 420.032173 454.478125 
L 430.118854 454.478125 
L 430.118854 77.751024 
L 420.032173 77.751024 
z
" clip-path="url(#p9b1d9a8619)" style="fill: #ff7f0e"/>
   </g>
   <g id="patch_25">
    <path d="M 487.276712 454.478125 
L 497.363392 454.478125 
L 497.363392 77.751024 
L 487.276712 77.751024 
z
" clip-path="url(#p9b1d9a8619)" style="fill: #ff7f0e"/>
   </g>
   <g id="patch_26">
    <path d="M 554.52125 454.478125 
L 564.607931 454.478125 
L 564.607931 77.751024 
L 554.52125 77.751024 
z
" clip-path="url(#p9b1d9a8619)" style="fill: #ff7f0e"/>
   </g>
   <g id="patch_27">
    <path d="M 621.765788 454.478125 
L 631.852469 454.478125 
L 631.852469 77.751024 
L 621.765788 77.751024 
z
" clip-path="url(#p9b1d9a8619)" style="fill: #ff7f0e"/>
   </g>
   <g id="patch_28">
    <path d="M 689.010327 454.478125 
L 699.097008 454.478125 
L 699.097008 77.751024 
L 689.010327 77.751024 
z
" clip-path="url(#p9b1d9a8619)" style="fill: #ff7f0e"/>
   </g>
   <g id="matplotlib.axis_3">
    <g id="xtick_6">
     <g id="line2d_16">
      <g>
       <use xlink:href="#me8c4b1d890" x="420.032173" y="238.398125" style="stroke: #000000; stroke-width: 0.8"/>
      </g>
     </g>
     <g id="text_17">
      <!-- 0.10 -->
      <g transform="translate(414.111259 266.515206) rotate(-45) scale(0.1 -0.1)">
       <use xlink:href="#DejaVuSans-30"/>
       <use xlink:href="#DejaVuSans-2e" x="63.623047"/>
       <use xlink:href="#DejaVuSans-31" x="95.410156"/>
       <use xlink:href="#DejaVuSans-30" x="159.033203"/>
      </g>
     </g>
    </g>
    <g id="xtick_7">
     <g id="line2d_17">
      <g>
       <use xlink:href="#me8c4b1d890" x="487.276712" y="238.398125" style="stroke: #000000; stroke-width: 0.8"/>
      </g>
     </g>
     <g id="text_18">
      <!-- 0.25 -->
      <g transform="translate(481.355797 266.515206) rotate(-45) scale(0.1 -0.1)">
       <use xlink:href="#DejaVuSans-30"/>
       <use xlink:href="#DejaVuSans-2e" x="63.623047"/>
       <use xlink:href="#DejaVuSans-32" x="95.410156"/>
       <use xlink:href="#DejaVuSans-35" x="159.033203"/>
      </g>
     </g>
    </g>
    <g id="xtick_8">
     <g id="line2d_18">
      <g>
       <use xlink:href="#me8c4b1d890" x="554.52125" y="238.398125" style="stroke: #000000; stroke-width: 0.8"/>
      </g>
     </g>
     <g id="text_19">
      <!-- 0.50 -->
      <g transform="translate(548.600336 266.515206) rotate(-45) scale(0.1 -0.1)">
       <use xlink:href="#DejaVuSans-30"/>
       <use xlink:href="#DejaVuSans-2e" x="63.623047"/>
       <use xlink:href="#DejaVuSans-35" x="95.410156"/>
       <use xlink:href="#DejaVuSans-30" x="159.033203"/>
      </g>
     </g>
    </g>
    <g id="xtick_9">
     <g id="line2d_19">
      <g>
       <use xlink:href="#me8c4b1d890" x="621.765788" y="238.398125" style="stroke: #000000; stroke-width: 0.8"/>
      </g>
     </g>
     <g id="text_20">
      <!-- 0.75 -->
      <g transform="translate(615.844874 266.515206) rotate(-45) scale(0.1 -0.1)">
       <use xlink:href="#DejaVuSans-30"/>
       <use xlink:href="#DejaVuSans-2e" x="63.623047"/>
       <use xlink:href="#DejaVuSans-37" x="95.410156"/>
       <use xlink:href="#DejaVuSans-35" x="159.033203"/>
      </g>
     </g>
    </g>
    <g id="xtick_10">
     <g id="line2d_20">
      <g>
       <use xlink:href="#me8c4b1d890" x="689.010327" y="238.398125" style="stroke: #000000; stroke-width: 0.8"/>
      </g>
     </g>
     <g id="text_21">
      <!-- 1.00 -->
      <g transform="translate(683.089412 266.515206) rotate(-45) scale(0.1 -0.1)">
       <use xlink:href="#DejaVuSans-31"/>
       <use xlink:href="#DejaVuSans-2e" x="63.623047"/>
       <use xlink:href="#DejaVuSans-30" x="95.410156"/>
       <use xlink:href="#DejaVuSans-30" x="159.033203"/>
      </g>
     </g>
    </g>
    <g id="text_22">
     <!-- Mix Rate -->
     <g transform="translate(532.807188 279.584205) scale(0.1 -0.1)">
      <use xlink:href="#DejaVuSans-4d"/>
      <use xlink:href="#DejaVuSans-69" x="86.279297"/>
      <use xlink:href="#DejaVuSans-78" x="114.0625"/>
      <use xlink:href="#DejaVuSans-20" x="173.242188"/>
      <use xlink:href="#DejaVuSans-52" x="205.029297"/>
      <use xlink:href="#DejaVuSans-61" x="272.261719"/>
      <use xlink:href="#DejaVuSans-74" x="333.541016"/>
      <use xlink:href="#DejaVuSans-65" x="372.75"/>
     </g>
    </g>
   </g>
   <g id="matplotlib.axis_4">
    <g id="ytick_7">
     <g id="line2d_21">
      <g>
       <use xlink:href="#m3a8e8c7714" x="395.487917" y="238.398125" style="stroke: #000000; stroke-width: 0.8"/>
      </g>
     </g>
     <g id="text_23">
      <!-- 0.5 -->
      <g transform="translate(372.584792 242.197344) scale(0.1 -0.1)">
       <use xlink:href="#DejaVuSans-30"/>
       <use xlink:href="#DejaVuSans-2e" x="63.623047"/>
       <use xlink:href="#DejaVuSans-35" x="95.410156"/>
      </g>
     </g>
    </g>
    <g id="ytick_8">
     <g id="line2d_22">
      <g>
       <use xlink:href="#m3a8e8c7714" x="395.487917" y="195.182125" style="stroke: #000000; stroke-width: 0.8"/>
      </g>
     </g>
     <g id="text_24">
      <!-- 0.6 -->
      <g transform="translate(372.584792 198.981344) scale(0.1 -0.1)">
       <use xlink:href="#DejaVuSans-30"/>
       <use xlink:href="#DejaVuSans-2e" x="63.623047"/>
       <use xlink:href="#DejaVuSans-36" x="95.410156"/>
      </g>
     </g>
    </g>
    <g id="ytick_9">
     <g id="line2d_23">
      <g>
       <use xlink:href="#m3a8e8c7714" x="395.487917" y="151.966125" style="stroke: #000000; stroke-width: 0.8"/>
      </g>
     </g>
     <g id="text_25">
      <!-- 0.7 -->
      <g transform="translate(372.584792 155.765344) scale(0.1 -0.1)">
       <use xlink:href="#DejaVuSans-30"/>
       <use xlink:href="#DejaVuSans-2e" x="63.623047"/>
       <use xlink:href="#DejaVuSans-37" x="95.410156"/>
      </g>
     </g>
    </g>
    <g id="ytick_10">
     <g id="line2d_24">
      <g>
       <use xlink:href="#m3a8e8c7714" x="395.487917" y="108.750125" style="stroke: #000000; stroke-width: 0.8"/>
      </g>
     </g>
     <g id="text_26">
      <!-- 0.8 -->
      <g transform="translate(372.584792 112.549344) scale(0.1 -0.1)">
       <use xlink:href="#DejaVuSans-30"/>
       <use xlink:href="#DejaVuSans-2e" x="63.623047"/>
       <use xlink:href="#DejaVuSans-38" x="95.410156"/>
      </g>
     </g>
    </g>
    <g id="ytick_11">
     <g id="line2d_25">
      <g>
       <use xlink:href="#m3a8e8c7714" x="395.487917" y="65.534125" style="stroke: #000000; stroke-width: 0.8"/>
      </g>
     </g>
     <g id="text_27">
      <!-- 0.9 -->
      <g transform="translate(372.584792 69.333344) scale(0.1 -0.1)">
       <use xlink:href="#DejaVuSans-30"/>
       <use xlink:href="#DejaVuSans-2e" x="63.623047"/>
       <use xlink:href="#DejaVuSans-39" x="95.410156"/>
      </g>
     </g>
    </g>
    <g id="ytick_12">
     <g id="line2d_26">
      <g>
       <use xlink:href="#m3a8e8c7714" x="395.487917" y="22.318125" style="stroke: #000000; stroke-width: 0.8"/>
      </g>
     </g>
     <g id="text_28">
      <!-- 1.0 -->
      <g transform="translate(372.584792 26.117344) scale(0.1 -0.1)">
       <use xlink:href="#DejaVuSans-31"/>
       <use xlink:href="#DejaVuSans-2e" x="63.623047"/>
       <use xlink:href="#DejaVuSans-30" x="95.410156"/>
      </g>
     </g>
    </g>
   </g>
   <g id="LineCollection_3">
    <path d="M 414.988833 111.500147 
L 414.988833 17.194032 
" clip-path="url(#p9b1d9a8619)" style="fill: none; stroke: #000000; stroke-width: 1.5"/>
    <path d="M 482.233371 110.185776 
L 482.233371 18.742415 
" clip-path="url(#p9b1d9a8619)" style="fill: none; stroke: #000000; stroke-width: 1.5"/>
    <path d="M 549.47791 111.201104 
L 549.47791 16.329647 
" clip-path="url(#p9b1d9a8619)" style="fill: none; stroke: #000000; stroke-width: 1.5"/>
    <path d="M 616.722448 101.914079 
L 616.722448 19.4983 
" clip-path="url(#p9b1d9a8619)" style="fill: none; stroke: #000000; stroke-width: 1.5"/>
    <path d="M 683.966986 110.583188 
L 683.966986 17.311619 
" clip-path="url(#p9b1d9a8619)" style="fill: none; stroke: #000000; stroke-width: 1.5"/>
   </g>
   <g id="line2d_27">
    <g clip-path="url(#p9b1d9a8619)">
     <use xlink:href="#m29fcd60ed5" x="414.988833" y="111.500147" style="stroke: #000000"/>
     <use xlink:href="#m29fcd60ed5" x="482.233371" y="110.185776" style="stroke: #000000"/>
     <use xlink:href="#m29fcd60ed5" x="549.47791" y="111.201104" style="stroke: #000000"/>
     <use xlink:href="#m29fcd60ed5" x="616.722448" y="101.914079" style="stroke: #000000"/>
     <use xlink:href="#m29fcd60ed5" x="683.966986" y="110.583188" style="stroke: #000000"/>
    </g>
   </g>
   <g id="line2d_28">
    <g clip-path="url(#p9b1d9a8619)">
     <use xlink:href="#m29fcd60ed5" x="414.988833" y="17.194032" style="stroke: #000000"/>
     <use xlink:href="#m29fcd60ed5" x="482.233371" y="18.742415" style="stroke: #000000"/>
     <use xlink:href="#m29fcd60ed5" x="549.47791" y="16.329647" style="stroke: #000000"/>
     <use xlink:href="#m29fcd60ed5" x="616.722448" y="19.4983" style="stroke: #000000"/>
     <use xlink:href="#m29fcd60ed5" x="683.966986" y="17.311619" style="stroke: #000000"/>
    </g>
   </g>
   <g id="LineCollection_4">
    <path d="M 425.075514 126.733456 
L 425.075514 28.768591 
" clip-path="url(#p9b1d9a8619)" style="fill: none; stroke: #000000; stroke-width: 1.5"/>
    <path d="M 492.320052 126.733456 
L 492.320052 28.768591 
" clip-path="url(#p9b1d9a8619)" style="fill: none; stroke: #000000; stroke-width: 1.5"/>
    <path d="M 559.56459 126.733456 
L 559.56459 28.768591 
" clip-path="url(#p9b1d9a8619)" style="fill: none; stroke: #000000; stroke-width: 1.5"/>
    <path d="M 626.809129 126.733456 
L 626.809129 28.768591 
" clip-path="url(#p9b1d9a8619)" style="fill: none; stroke: #000000; stroke-width: 1.5"/>
    <path d="M 694.053667 126.733456 
L 694.053667 28.768591 
" clip-path="url(#p9b1d9a8619)" style="fill: none; stroke: #000000; stroke-width: 1.5"/>
   </g>
   <g id="line2d_29">
    <g clip-path="url(#p9b1d9a8619)">
     <use xlink:href="#m29fcd60ed5" x="425.075514" y="126.733456" style="stroke: #000000"/>
     <use xlink:href="#m29fcd60ed5" x="492.320052" y="126.733456" style="stroke: #000000"/>
     <use xlink:href="#m29fcd60ed5" x="559.56459" y="126.733456" style="stroke: #000000"/>
     <use xlink:href="#m29fcd60ed5" x="626.809129" y="126.733456" style="stroke: #000000"/>
     <use xlink:href="#m29fcd60ed5" x="694.053667" y="126.733456" style="stroke: #000000"/>
    </g>
   </g>
   <g id="line2d_30">
    <g clip-path="url(#p9b1d9a8619)">
     <use xlink:href="#m29fcd60ed5" x="425.075514" y="28.768591" style="stroke: #000000"/>
     <use xlink:href="#m29fcd60ed5" x="492.320052" y="28.768591" style="stroke: #000000"/>
     <use xlink:href="#m29fcd60ed5" x="559.56459" y="28.768591" style="stroke: #000000"/>
     <use xlink:href="#m29fcd60ed5" x="626.809129" y="28.768591" style="stroke: #000000"/>
     <use xlink:href="#m29fcd60ed5" x="694.053667" y="28.768591" style="stroke: #000000"/>
    </g>
   </g>
   <g id="patch_29">
    <path d="M 395.487917 238.398125 
L 395.487917 22.318125 
" style="fill: none; stroke: #000000; stroke-width: 0.8; stroke-linejoin: miter; stroke-linecap: square"/>
   </g>
   <g id="patch_30">
    <path d="M 395.487917 238.398125 
L 713.554583 238.398125 
" style="fill: none; stroke: #000000; stroke-width: 0.8; stroke-linejoin: miter; stroke-linecap: square"/>
   </g>
   <g id="text_29">
    <!-- Alternate -->
    <g transform="translate(526.820938 16.318125) scale(0.12 -0.12)">
     <defs>
      <path id="DejaVuSans-6c" d="M 603 4863 
L 1178 4863 
L 1178 0 
L 603 0 
L 603 4863 
z
" transform="scale(0.015625)"/>
      <path id="DejaVuSans-6e" d="M 3513 2113 
L 3513 0 
L 2938 0 
L 2938 2094 
Q 2938 2591 2744 2837 
Q 2550 3084 2163 3084 
Q 1697 3084 1428 2787 
Q 1159 2491 1159 1978 
L 1159 0 
L 581 0 
L 581 3500 
L 1159 3500 
L 1159 2956 
Q 1366 3272 1645 3428 
Q 1925 3584 2291 3584 
Q 2894 3584 3203 3211 
Q 3513 2838 3513 2113 
z
" transform="scale(0.015625)"/>
     </defs>
     <use xlink:href="#DejaVuSans-41"/>
     <use xlink:href="#DejaVuSans-6c" x="68.408203"/>
     <use xlink:href="#DejaVuSans-74" x="96.191406"/>
     <use xlink:href="#DejaVuSans-65" x="135.400391"/>
     <use xlink:href="#DejaVuSans-72" x="196.923828"/>
     <use xlink:href="#DejaVuSans-6e" x="236.287109"/>
     <use xlink:href="#DejaVuSans-61" x="299.666016"/>
     <use xlink:href="#DejaVuSans-74" x="360.945312"/>
     <use xlink:href="#DejaVuSans-65" x="400.154297"/>
    </g>
   </g>
  </g>
  <g id="axes_3">
   <g id="patch_31">
    <path d="M 747.194583 238.398125 
L 1065.26125 238.398125 
L 1065.26125 22.318125 
L 747.194583 22.318125 
z
" style="fill: #ffffff"/>
   </g>
   <g id="patch_32">
    <path d="M 761.652159 228.016575 
L 771.73884 228.016575 
L 771.73884 184.002829 
L 761.652159 184.002829 
z
" clip-path="url(#p7325dbe143)" style="fill: #1f77b4"/>
   </g>
   <g id="patch_33">
    <path d="M 828.896697 228.016575 
L 838.983378 228.016575 
L 838.983378 176.664952 
L 828.896697 176.664952 
z
" clip-path="url(#p7325dbe143)" style="fill: #1f77b4"/>
   </g>
   <g id="patch_34">
    <path d="M 896.141236 228.016575 
L 906.227917 228.016575 
L 906.227917 167.20093 
L 896.141236 167.20093 
z
" clip-path="url(#p7325dbe143)" style="fill: #1f77b4"/>
   </g>
   <g id="patch_35">
    <path d="M 963.385774 228.016575 
L 973.472455 228.016575 
L 973.472455 129.527501 
L 963.385774 129.527501 
z
" clip-path="url(#p7325dbe143)" style="fill: #1f77b4"/>
   </g>
   <g id="patch_36">
    <path d="M 1030.630313 228.016575 
L 1040.716993 228.016575 
L 1040.716993 108.880903 
L 1030.630313 108.880903 
z
" clip-path="url(#p7325dbe143)" style="fill: #1f77b4"/>
   </g>
   <g id="patch_37">
    <path d="M 771.73884 228.016575 
L 781.825521 228.016575 
L 781.825521 187.644716 
L 771.73884 187.644716 
z
" clip-path="url(#p7325dbe143)" style="fill: #ff7f0e"/>
   </g>
   <g id="patch_38">
    <path d="M 838.983378 228.016575 
L 849.070059 228.016575 
L 849.070059 187.644716 
L 838.983378 187.644716 
z
" clip-path="url(#p7325dbe143)" style="fill: #ff7f0e"/>
   </g>
   <g id="patch_39">
    <path d="M 906.227917 228.016575 
L 916.314597 228.016575 
L 916.314597 187.644716 
L 906.227917 187.644716 
z
" clip-path="url(#p7325dbe143)" style="fill: #ff7f0e"/>
   </g>
   <g id="patch_40">
    <path d="M 973.472455 228.016575 
L 983.559136 228.016575 
L 983.559136 187.644716 
L 973.472455 187.644716 
z
" clip-path="url(#p7325dbe143)" style="fill: #ff7f0e"/>
   </g>
   <g id="patch_41">
    <path d="M 1040.716993 228.016575 
L 1050.803674 228.016575 
L 1050.803674 187.644716 
L 1040.716993 187.644716 
z
" clip-path="url(#p7325dbe143)" style="fill: #ff7f0e"/>
   </g>
   <g id="matplotlib.axis_5">
    <g id="xtick_11">
     <g id="line2d_31">
      <g>
       <use xlink:href="#me8c4b1d890" x="771.73884" y="238.398125" style="stroke: #000000; stroke-width: 0.8"/>
      </g>
     </g>
     <g id="text_30">
      <!-- 0.10 -->
      <g transform="translate(765.817925 266.515206) rotate(-45) scale(0.1 -0.1)">
       <use xlink:href="#DejaVuSans-30"/>
       <use xlink:href="#DejaVuSans-2e" x="63.623047"/>
       <use xlink:href="#DejaVuSans-31" x="95.410156"/>
       <use xlink:href="#DejaVuSans-30" x="159.033203"/>
      </g>
     </g>
    </g>
    <g id="xtick_12">
     <g id="line2d_32">
      <g>
       <use xlink:href="#me8c4b1d890" x="838.983378" y="238.398125" style="stroke: #000000; stroke-width: 0.8"/>
      </g>
     </g>
     <g id="text_31">
      <!-- 0.25 -->
      <g transform="translate(833.062464 266.515206) rotate(-45) scale(0.1 -0.1)">
       <use xlink:href="#DejaVuSans-30"/>
       <use xlink:href="#DejaVuSans-2e" x="63.623047"/>
       <use xlink:href="#DejaVuSans-32" x="95.410156"/>
       <use xlink:href="#DejaVuSans-35" x="159.033203"/>
      </g>
     </g>
    </g>
    <g id="xtick_13">
     <g id="line2d_33">
      <g>
       <use xlink:href="#me8c4b1d890" x="906.227917" y="238.398125" style="stroke: #000000; stroke-width: 0.8"/>
      </g>
     </g>
     <g id="text_32">
      <!-- 0.50 -->
      <g transform="translate(900.307002 266.515206) rotate(-45) scale(0.1 -0.1)">
       <use xlink:href="#DejaVuSans-30"/>
       <use xlink:href="#DejaVuSans-2e" x="63.623047"/>
       <use xlink:href="#DejaVuSans-35" x="95.410156"/>
       <use xlink:href="#DejaVuSans-30" x="159.033203"/>
      </g>
     </g>
    </g>
    <g id="xtick_14">
     <g id="line2d_34">
      <g>
       <use xlink:href="#me8c4b1d890" x="973.472455" y="238.398125" style="stroke: #000000; stroke-width: 0.8"/>
      </g>
     </g>
     <g id="text_33">
      <!-- 0.75 -->
      <g transform="translate(967.551541 266.515206) rotate(-45) scale(0.1 -0.1)">
       <use xlink:href="#DejaVuSans-30"/>
       <use xlink:href="#DejaVuSans-2e" x="63.623047"/>
       <use xlink:href="#DejaVuSans-37" x="95.410156"/>
       <use xlink:href="#DejaVuSans-35" x="159.033203"/>
      </g>
     </g>
    </g>
    <g id="xtick_15">
     <g id="line2d_35">
      <g>
       <use xlink:href="#me8c4b1d890" x="1040.716993" y="238.398125" style="stroke: #000000; stroke-width: 0.8"/>
      </g>
     </g>
     <g id="text_34">
      <!-- 1.00 -->
      <g transform="translate(1034.796079 266.515206) rotate(-45) scale(0.1 -0.1)">
       <use xlink:href="#DejaVuSans-31"/>
       <use xlink:href="#DejaVuSans-2e" x="63.623047"/>
       <use xlink:href="#DejaVuSans-30" x="95.410156"/>
       <use xlink:href="#DejaVuSans-30" x="159.033203"/>
      </g>
     </g>
    </g>
    <g id="text_35">
     <!-- Mix Rate -->
     <g transform="translate(884.513854 279.584205) scale(0.1 -0.1)">
      <use xlink:href="#DejaVuSans-4d"/>
      <use xlink:href="#DejaVuSans-69" x="86.279297"/>
      <use xlink:href="#DejaVuSans-78" x="114.0625"/>
      <use xlink:href="#DejaVuSans-20" x="173.242188"/>
      <use xlink:href="#DejaVuSans-52" x="205.029297"/>
      <use xlink:href="#DejaVuSans-61" x="272.261719"/>
      <use xlink:href="#DejaVuSans-74" x="333.541016"/>
      <use xlink:href="#DejaVuSans-65" x="372.75"/>
     </g>
    </g>
   </g>
   <g id="matplotlib.axis_6">
    <g id="ytick_13">
     <g id="line2d_36">
      <g>
       <use xlink:href="#m3a8e8c7714" x="747.194583" y="228.016575" style="stroke: #000000; stroke-width: 0.8"/>
      </g>
     </g>
     <g id="text_36">
      <!-- 0.0 -->
      <g transform="translate(724.291458 231.815793) scale(0.1 -0.1)">
       <use xlink:href="#DejaVuSans-30"/>
       <use xlink:href="#DejaVuSans-2e" x="63.623047"/>
       <use xlink:href="#DejaVuSans-30" x="95.410156"/>
      </g>
     </g>
    </g>
    <g id="ytick_14">
     <g id="line2d_37">
      <g>
       <use xlink:href="#m3a8e8c7714" x="747.194583" y="186.996231" style="stroke: #000000; stroke-width: 0.8"/>
      </g>
     </g>
     <g id="text_37">
      <!-- 0.2 -->
      <g transform="translate(724.291458 190.795449) scale(0.1 -0.1)">
       <use xlink:href="#DejaVuSans-30"/>
       <use xlink:href="#DejaVuSans-2e" x="63.623047"/>
       <use xlink:href="#DejaVuSans-32" x="95.410156"/>
      </g>
     </g>
    </g>
    <g id="ytick_15">
     <g id="line2d_38">
      <g>
       <use xlink:href="#m3a8e8c7714" x="747.194583" y="145.975887" style="stroke: #000000; stroke-width: 0.8"/>
      </g>
     </g>
     <g id="text_38">
      <!-- 0.4 -->
      <g transform="translate(724.291458 149.775105) scale(0.1 -0.1)">
       <defs>
        <path id="DejaVuSans-34" d="M 2419 4116 
L 825 1625 
L 2419 1625 
L 2419 4116 
z
M 2253 4666 
L 3047 4666 
L 3047 1625 
L 3713 1625 
L 3713 1100 
L 3047 1100 
L 3047 0 
L 2419 0 
L 2419 1100 
L 313 1100 
L 313 1709 
L 2253 4666 
z
" transform="scale(0.015625)"/>
       </defs>
       <use xlink:href="#DejaVuSans-30"/>
       <use xlink:href="#DejaVuSans-2e" x="63.623047"/>
       <use xlink:href="#DejaVuSans-34" x="95.410156"/>
      </g>
     </g>
    </g>
    <g id="ytick_16">
     <g id="line2d_39">
      <g>
       <use xlink:href="#m3a8e8c7714" x="747.194583" y="104.955543" style="stroke: #000000; stroke-width: 0.8"/>
      </g>
     </g>
     <g id="text_39">
      <!-- 0.6 -->
      <g transform="translate(724.291458 108.754761) scale(0.1 -0.1)">
       <use xlink:href="#DejaVuSans-30"/>
       <use xlink:href="#DejaVuSans-2e" x="63.623047"/>
       <use xlink:href="#DejaVuSans-36" x="95.410156"/>
      </g>
     </g>
    </g>
    <g id="ytick_17">
     <g id="line2d_40">
      <g>
       <use xlink:href="#m3a8e8c7714" x="747.194583" y="63.935199" style="stroke: #000000; stroke-width: 0.8"/>
      </g>
     </g>
     <g id="text_40">
      <!-- 0.8 -->
      <g transform="translate(724.291458 67.734417) scale(0.1 -0.1)">
       <use xlink:href="#DejaVuSans-30"/>
       <use xlink:href="#DejaVuSans-2e" x="63.623047"/>
       <use xlink:href="#DejaVuSans-38" x="95.410156"/>
      </g>
     </g>
    </g>
    <g id="ytick_18">
     <g id="line2d_41">
      <g>
       <use xlink:href="#m3a8e8c7714" x="747.194583" y="22.914855" style="stroke: #000000; stroke-width: 0.8"/>
      </g>
     </g>
     <g id="text_41">
      <!-- 1.0 -->
      <g transform="translate(724.291458 26.714073) scale(0.1 -0.1)">
       <use xlink:href="#DejaVuSans-31"/>
       <use xlink:href="#DejaVuSans-2e" x="63.623047"/>
       <use xlink:href="#DejaVuSans-30" x="95.410156"/>
      </g>
     </g>
    </g>
   </g>
   <g id="LineCollection_5">
    <path d="M 766.695499 217.355891 
L 766.695499 150.649767 
" clip-path="url(#p7325dbe143)" style="fill: none; stroke: #000000; stroke-width: 1.5"/>
    <path d="M 833.940038 222.311866 
L 833.940038 131.018038 
" clip-path="url(#p7325dbe143)" style="fill: none; stroke: #000000; stroke-width: 1.5"/>
    <path d="M 901.184576 195.015598 
L 901.184576 139.386261 
" clip-path="url(#p7325dbe143)" style="fill: none; stroke: #000000; stroke-width: 1.5"/>
    <path d="M 968.429115 178.780274 
L 968.429115 80.274727 
" clip-path="url(#p7325dbe143)" style="fill: none; stroke: #000000; stroke-width: 1.5"/>
    <path d="M 1035.673653 185.621863 
L 1035.673653 32.139943 
" clip-path="url(#p7325dbe143)" style="fill: none; stroke: #000000; stroke-width: 1.5"/>
   </g>
   <g id="line2d_42">
    <g clip-path="url(#p7325dbe143)">
     <use xlink:href="#m29fcd60ed5" x="766.695499" y="217.355891" style="stroke: #000000"/>
     <use xlink:href="#m29fcd60ed5" x="833.940038" y="222.311866" style="stroke: #000000"/>
     <use xlink:href="#m29fcd60ed5" x="901.184576" y="195.015598" style="stroke: #000000"/>
     <use xlink:href="#m29fcd60ed5" x="968.429115" y="178.780274" style="stroke: #000000"/>
     <use xlink:href="#m29fcd60ed5" x="1035.673653" y="185.621863" style="stroke: #000000"/>
    </g>
   </g>
   <g id="line2d_43">
    <g clip-path="url(#p7325dbe143)">
     <use xlink:href="#m29fcd60ed5" x="766.695499" y="150.649767" style="stroke: #000000"/>
     <use xlink:href="#m29fcd60ed5" x="833.940038" y="131.018038" style="stroke: #000000"/>
     <use xlink:href="#m29fcd60ed5" x="901.184576" y="139.386261" style="stroke: #000000"/>
     <use xlink:href="#m29fcd60ed5" x="968.429115" y="80.274727" style="stroke: #000000"/>
     <use xlink:href="#m29fcd60ed5" x="1035.673653" y="32.139943" style="stroke: #000000"/>
    </g>
   </g>
   <g id="LineCollection_6">
    <path d="M 776.78218 228.576307 
L 776.78218 146.713125 
" clip-path="url(#p7325dbe143)" style="fill: none; stroke: #000000; stroke-width: 1.5"/>
    <path d="M 844.026719 228.576307 
L 844.026719 146.713125 
" clip-path="url(#p7325dbe143)" style="fill: none; stroke: #000000; stroke-width: 1.5"/>
    <path d="M 911.271257 228.576307 
L 911.271257 146.713125 
" clip-path="url(#p7325dbe143)" style="fill: none; stroke: #000000; stroke-width: 1.5"/>
    <path d="M 978.515795 228.576307 
L 978.515795 146.713125 
" clip-path="url(#p7325dbe143)" style="fill: none; stroke: #000000; stroke-width: 1.5"/>
    <path d="M 1045.760334 228.576307 
L 1045.760334 146.713125 
" clip-path="url(#p7325dbe143)" style="fill: none; stroke: #000000; stroke-width: 1.5"/>
   </g>
   <g id="line2d_44">
    <g clip-path="url(#p7325dbe143)">
     <use xlink:href="#m29fcd60ed5" x="776.78218" y="228.576307" style="stroke: #000000"/>
     <use xlink:href="#m29fcd60ed5" x="844.026719" y="228.576307" style="stroke: #000000"/>
     <use xlink:href="#m29fcd60ed5" x="911.271257" y="228.576307" style="stroke: #000000"/>
     <use xlink:href="#m29fcd60ed5" x="978.515795" y="228.576307" style="stroke: #000000"/>
     <use xlink:href="#m29fcd60ed5" x="1045.760334" y="228.576307" style="stroke: #000000"/>
    </g>
   </g>
   <g id="line2d_45">
    <g clip-path="url(#p7325dbe143)">
     <use xlink:href="#m29fcd60ed5" x="776.78218" y="146.713125" style="stroke: #000000"/>
     <use xlink:href="#m29fcd60ed5" x="844.026719" y="146.713125" style="stroke: #000000"/>
     <use xlink:href="#m29fcd60ed5" x="911.271257" y="146.713125" style="stroke: #000000"/>
     <use xlink:href="#m29fcd60ed5" x="978.515795" y="146.713125" style="stroke: #000000"/>
     <use xlink:href="#m29fcd60ed5" x="1045.760334" y="146.713125" style="stroke: #000000"/>
    </g>
   </g>
   <g id="patch_42">
    <path d="M 747.194583 238.398125 
L 747.194583 22.318125 
" style="fill: none; stroke: #000000; stroke-width: 0.8; stroke-linejoin: miter; stroke-linecap: square"/>
   </g>
   <g id="patch_43">
    <path d="M 747.194583 238.398125 
L 1065.26125 238.398125 
" style="fill: none; stroke: #000000; stroke-width: 0.8; stroke-linejoin: miter; stroke-linecap: square"/>
   </g>
   <g id="text_42">
    <!-- Worst-Group -->
    <g transform="translate(868.386667 16.318125) scale(0.12 -0.12)">
     <defs>
      <path id="DejaVuSans-57" d="M 213 4666 
L 850 4666 
L 1831 722 
L 2809 4666 
L 3519 4666 
L 4500 722 
L 5478 4666 
L 6119 4666 
L 4947 0 
L 4153 0 
L 3169 4050 
L 2175 0 
L 1381 0 
L 213 4666 
z
" transform="scale(0.015625)"/>
      <path id="DejaVuSans-6f" d="M 1959 3097 
Q 1497 3097 1228 2736 
Q 959 2375 959 1747 
Q 959 1119 1226 758 
Q 1494 397 1959 397 
Q 2419 397 2687 759 
Q 2956 1122 2956 1747 
Q 2956 2369 2687 2733 
Q 2419 3097 1959 3097 
z
M 1959 3584 
Q 2709 3584 3137 3096 
Q 3566 2609 3566 1747 
Q 3566 888 3137 398 
Q 2709 -91 1959 -91 
Q 1206 -91 779 398 
Q 353 888 353 1747 
Q 353 2609 779 3096 
Q 1206 3584 1959 3584 
z
" transform="scale(0.015625)"/>
      <path id="DejaVuSans-73" d="M 2834 3397 
L 2834 2853 
Q 2591 2978 2328 3040 
Q 2066 3103 1784 3103 
Q 1356 3103 1142 2972 
Q 928 2841 928 2578 
Q 928 2378 1081 2264 
Q 1234 2150 1697 2047 
L 1894 2003 
Q 2506 1872 2764 1633 
Q 3022 1394 3022 966 
Q 3022 478 2636 193 
Q 2250 -91 1575 -91 
Q 1294 -91 989 -36 
Q 684 19 347 128 
L 347 722 
Q 666 556 975 473 
Q 1284 391 1588 391 
Q 1994 391 2212 530 
Q 2431 669 2431 922 
Q 2431 1156 2273 1281 
Q 2116 1406 1581 1522 
L 1381 1569 
Q 847 1681 609 1914 
Q 372 2147 372 2553 
Q 372 3047 722 3315 
Q 1072 3584 1716 3584 
Q 2034 3584 2315 3537 
Q 2597 3491 2834 3397 
z
" transform="scale(0.015625)"/>
      <path id="DejaVuSans-2d" d="M 313 2009 
L 1997 2009 
L 1997 1497 
L 313 1497 
L 313 2009 
z
" transform="scale(0.015625)"/>
      <path id="DejaVuSans-47" d="M 3809 666 
L 3809 1919 
L 2778 1919 
L 2778 2438 
L 4434 2438 
L 4434 434 
Q 4069 175 3628 42 
Q 3188 -91 2688 -91 
Q 1594 -91 976 548 
Q 359 1188 359 2328 
Q 359 3472 976 4111 
Q 1594 4750 2688 4750 
Q 3144 4750 3555 4637 
Q 3966 4525 4313 4306 
L 4313 3634 
Q 3963 3931 3569 4081 
Q 3175 4231 2741 4231 
Q 1884 4231 1454 3753 
Q 1025 3275 1025 2328 
Q 1025 1384 1454 906 
Q 1884 428 2741 428 
Q 3075 428 3337 486 
Q 3600 544 3809 666 
z
" transform="scale(0.015625)"/>
      <path id="DejaVuSans-70" d="M 1159 525 
L 1159 -1331 
L 581 -1331 
L 581 3500 
L 1159 3500 
L 1159 2969 
Q 1341 3281 1617 3432 
Q 1894 3584 2278 3584 
Q 2916 3584 3314 3078 
Q 3713 2572 3713 1747 
Q 3713 922 3314 415 
Q 2916 -91 2278 -91 
Q 1894 -91 1617 61 
Q 1341 213 1159 525 
z
M 3116 1747 
Q 3116 2381 2855 2742 
Q 2594 3103 2138 3103 
Q 1681 3103 1420 2742 
Q 1159 2381 1159 1747 
Q 1159 1113 1420 752 
Q 1681 391 2138 391 
Q 2594 391 2855 752 
Q 3116 1113 3116 1747 
z
" transform="scale(0.015625)"/>
     </defs>
     <use xlink:href="#DejaVuSans-57"/>
     <use xlink:href="#DejaVuSans-6f" x="93.001953"/>
     <use xlink:href="#DejaVuSans-72" x="154.183594"/>
     <use xlink:href="#DejaVuSans-73" x="195.296875"/>
     <use xlink:href="#DejaVuSans-74" x="247.396484"/>
     <use xlink:href="#DejaVuSans-2d" x="286.605469"/>
     <use xlink:href="#DejaVuSans-47" x="326.314453"/>
     <use xlink:href="#DejaVuSans-72" x="403.804688"/>
     <use xlink:href="#DejaVuSans-6f" x="442.667969"/>
     <use xlink:href="#DejaVuSans-75" x="503.849609"/>
     <use xlink:href="#DejaVuSans-70" x="567.228516"/>
    </g>
   </g>
  </g>
 </g>
 <defs>
  <clipPath id="pad9aa5164a">
   <rect x="43.78125" y="22.318125" width="318.066667" height="216.08"/>
  </clipPath>
  <clipPath id="p9b1d9a8619">
   <rect x="395.487917" y="22.318125" width="318.066667" height="216.08"/>
  </clipPath>
  <clipPath id="p7325dbe143">
   <rect x="747.194583" y="22.318125" width="318.066667" height="216.08"/>
  </clipPath>
 </defs>
</svg>
