<?xml version="1.0" encoding="utf-8" standalone="no"?>
<!DOCTYPE svg PUBLIC "-//W3C//DTD SVG 1.1//EN"
  "http://www.w3.org/Graphics/SVG/1.1/DTD/svg11.dtd">
<svg xmlns:xlink="http://www.w3.org/1999/xlink" width="418.170937pt" height="206.52505pt" viewBox="0 0 418.170937 206.52505" xmlns="http://www.w3.org/2000/svg" version="1.1">
 <metadata>
  <rdf:RDF xmlns:dc="http://purl.org/dc/elements/1.1/" xmlns:cc="http://creativecommons.org/ns#" xmlns:rdf="http://www.w3.org/1999/02/22-rdf-syntax-ns#">
   <cc:Work>
    <dc:type rdf:resource="http://purl.org/dc/dcmitype/StillImage"/>
    <dc:date>2025-02-13T08:42:11.958521</dc:date>
    <dc:format>image/svg+xml</dc:format>
    <dc:creator>
     <cc:Agent>
      <dc:title>Matplotlib v3.9.2, https://matplotlib.org/</dc:title>
     </cc:Agent>
    </dc:creator>
   </cc:Work>
  </rdf:RDF>
 </metadata>
 <defs>
  <style type="text/css">*{stroke-linejoin: round; stroke-linecap: butt}</style>
 </defs>
 <g id="figure_1">
  <g id="patch_1">
   <path d="M 0 206.52505 
L 418.170937 206.52505 
L 418.170937 0 
L 0 0 
z
" style="fill: #ffffff"/>
  </g>
  <g id="axes_1">
   <g id="patch_2">
    <path d="M 52.160938 168.9688 
L 410.970937 168.9688 
L 410.970937 17.3608 
L 52.160938 17.3608 
z
" style="fill: #ffffff"/>
   </g>
   <g id="matplotlib.axis_1">
    <g id="xtick_1">
     <g id="line2d_1">
      <defs>
       <path id="mcf87ac8e95" d="M 0 0 
L 0 3.5 
" style="stroke: #000000; stroke-width: 0.8"/>
      </defs>
      <g>
       <use xlink:href="#mcf87ac8e95" x="77.239056" y="168.9688" style="stroke: #000000; stroke-width: 0.8"/>
      </g>
     </g>
     <g id="text_1">
      <!-- 0.10 -->
      <g transform="translate(66.106243 183.567238) scale(0.1 -0.1)">
       <defs>
        <path id="DejaVuSans-30" d="M 2034 4250 
Q 1547 4250 1301 3770 
Q 1056 3291 1056 2328 
Q 1056 1369 1301 889 
Q 1547 409 2034 409 
Q 2525 409 2770 889 
Q 3016 1369 3016 2328 
Q 3016 3291 2770 3770 
Q 2525 4250 2034 4250 
z
M 2034 4750 
Q 2819 4750 3233 4129 
Q 3647 3509 3647 2328 
Q 3647 1150 3233 529 
Q 2819 -91 2034 -91 
Q 1250 -91 836 529 
Q 422 1150 422 2328 
Q 422 3509 836 4129 
Q 1250 4750 2034 4750 
z
" transform="scale(0.015625)"/>
        <path id="DejaVuSans-2e" d="M 684 794 
L 1344 794 
L 1344 0 
L 684 0 
L 684 794 
z
" transform="scale(0.015625)"/>
        <path id="DejaVuSans-31" d="M 794 531 
L 1825 531 
L 1825 4091 
L 703 3866 
L 703 4441 
L 1819 4666 
L 2450 4666 
L 2450 531 
L 3481 531 
L 3481 0 
L 794 0 
L 794 531 
z
" transform="scale(0.015625)"/>
       </defs>
       <use xlink:href="#DejaVuSans-30"/>
       <use xlink:href="#DejaVuSans-2e" x="63.623047"/>
       <use xlink:href="#DejaVuSans-31" x="95.410156"/>
       <use xlink:href="#DejaVuSans-30" x="159.033203"/>
      </g>
     </g>
    </g>
    <g id="xtick_2">
     <g id="line2d_2">
      <g>
       <use xlink:href="#mcf87ac8e95" x="154.402497" y="168.9688" style="stroke: #000000; stroke-width: 0.8"/>
      </g>
     </g>
     <g id="text_2">
      <!-- 0.25 -->
      <g transform="translate(143.269684 183.567238) scale(0.1 -0.1)">
       <defs>
        <path id="DejaVuSans-32" d="M 1228 531 
L 3431 531 
L 3431 0 
L 469 0 
L 469 531 
Q 828 903 1448 1529 
Q 2069 2156 2228 2338 
Q 2531 2678 2651 2914 
Q 2772 3150 2772 3378 
Q 2772 3750 2511 3984 
Q 2250 4219 1831 4219 
Q 1534 4219 1204 4116 
Q 875 4013 500 3803 
L 500 4441 
Q 881 4594 1212 4672 
Q 1544 4750 1819 4750 
Q 2544 4750 2975 4387 
Q 3406 4025 3406 3419 
Q 3406 3131 3298 2873 
Q 3191 2616 2906 2266 
Q 2828 2175 2409 1742 
Q 1991 1309 1228 531 
z
" transform="scale(0.015625)"/>
        <path id="DejaVuSans-35" d="M 691 4666 
L 3169 4666 
L 3169 4134 
L 1269 4134 
L 1269 2991 
Q 1406 3038 1543 3061 
Q 1681 3084 1819 3084 
Q 2600 3084 3056 2656 
Q 3513 2228 3513 1497 
Q 3513 744 3044 326 
Q 2575 -91 1722 -91 
Q 1428 -91 1123 -41 
Q 819 9 494 109 
L 494 744 
Q 775 591 1075 516 
Q 1375 441 1709 441 
Q 2250 441 2565 725 
Q 2881 1009 2881 1497 
Q 2881 1984 2565 2268 
Q 2250 2553 1709 2553 
Q 1456 2553 1204 2497 
Q 953 2441 691 2322 
L 691 4666 
z
" transform="scale(0.015625)"/>
       </defs>
       <use xlink:href="#DejaVuSans-30"/>
       <use xlink:href="#DejaVuSans-2e" x="63.623047"/>
       <use xlink:href="#DejaVuSans-32" x="95.410156"/>
       <use xlink:href="#DejaVuSans-35" x="159.033203"/>
      </g>
     </g>
    </g>
    <g id="xtick_3">
     <g id="line2d_3">
      <g>
       <use xlink:href="#mcf87ac8e95" x="231.565938" y="168.9688" style="stroke: #000000; stroke-width: 0.8"/>
      </g>
     </g>
     <g id="text_3">
      <!-- 0.50 -->
      <g transform="translate(220.433125 183.567238) scale(0.1 -0.1)">
       <use xlink:href="#DejaVuSans-30"/>
       <use xlink:href="#DejaVuSans-2e" x="63.623047"/>
       <use xlink:href="#DejaVuSans-35" x="95.410156"/>
       <use xlink:href="#DejaVuSans-30" x="159.033203"/>
      </g>
     </g>
    </g>
    <g id="xtick_4">
     <g id="line2d_4">
      <g>
       <use xlink:href="#mcf87ac8e95" x="308.729378" y="168.9688" style="stroke: #000000; stroke-width: 0.8"/>
      </g>
     </g>
     <g id="text_4">
      <!-- 0.75 -->
      <g transform="translate(297.596566 183.567238) scale(0.1 -0.1)">
       <defs>
        <path id="DejaVuSans-37" d="M 525 4666 
L 3525 4666 
L 3525 4397 
L 1831 0 
L 1172 0 
L 2766 4134 
L 525 4134 
L 525 4666 
z
" transform="scale(0.015625)"/>
       </defs>
       <use xlink:href="#DejaVuSans-30"/>
       <use xlink:href="#DejaVuSans-2e" x="63.623047"/>
       <use xlink:href="#DejaVuSans-37" x="95.410156"/>
       <use xlink:href="#DejaVuSans-35" x="159.033203"/>
      </g>
     </g>
    </g>
    <g id="xtick_5">
     <g id="line2d_5">
      <g>
       <use xlink:href="#mcf87ac8e95" x="385.892819" y="168.9688" style="stroke: #000000; stroke-width: 0.8"/>
      </g>
     </g>
     <g id="text_5">
      <!-- 1.00 -->
      <g transform="translate(374.760007 183.567238) scale(0.1 -0.1)">
       <use xlink:href="#DejaVuSans-31"/>
       <use xlink:href="#DejaVuSans-2e" x="63.623047"/>
       <use xlink:href="#DejaVuSans-30" x="95.410156"/>
       <use xlink:href="#DejaVuSans-30" x="159.033203"/>
      </g>
     </g>
    </g>
    <g id="text_6">
     <!-- Mix Rate -->
     <g transform="translate(209.851875 197.245363) scale(0.1 -0.1)">
      <defs>
       <path id="DejaVuSans-4d" d="M 628 4666 
L 1569 4666 
L 2759 1491 
L 3956 4666 
L 4897 4666 
L 4897 0 
L 4281 0 
L 4281 4097 
L 3078 897 
L 2444 897 
L 1241 4097 
L 1241 0 
L 628 0 
L 628 4666 
z
" transform="scale(0.015625)"/>
       <path id="DejaVuSans-69" d="M 603 3500 
L 1178 3500 
L 1178 0 
L 603 0 
L 603 3500 
z
M 603 4863 
L 1178 4863 
L 1178 4134 
L 603 4134 
L 603 4863 
z
" transform="scale(0.015625)"/>
       <path id="DejaVuSans-78" d="M 3513 3500 
L 2247 1797 
L 3578 0 
L 2900 0 
L 1881 1375 
L 863 0 
L 184 0 
L 1544 1831 
L 300 3500 
L 978 3500 
L 1906 2253 
L 2834 3500 
L 3513 3500 
z
" transform="scale(0.015625)"/>
       <path id="DejaVuSans-20" transform="scale(0.015625)"/>
       <path id="DejaVuSans-52" d="M 2841 2188 
Q 3044 2119 3236 1894 
Q 3428 1669 3622 1275 
L 4263 0 
L 3584 0 
L 2988 1197 
Q 2756 1666 2539 1819 
Q 2322 1972 1947 1972 
L 1259 1972 
L 1259 0 
L 628 0 
L 628 4666 
L 2053 4666 
Q 2853 4666 3247 4331 
Q 3641 3997 3641 3322 
Q 3641 2881 3436 2590 
Q 3231 2300 2841 2188 
z
M 1259 4147 
L 1259 2491 
L 2053 2491 
Q 2509 2491 2742 2702 
Q 2975 2913 2975 3322 
Q 2975 3731 2742 3939 
Q 2509 4147 2053 4147 
L 1259 4147 
z
" transform="scale(0.015625)"/>
       <path id="DejaVuSans-61" d="M 2194 1759 
Q 1497 1759 1228 1600 
Q 959 1441 959 1056 
Q 959 750 1161 570 
Q 1363 391 1709 391 
Q 2188 391 2477 730 
Q 2766 1069 2766 1631 
L 2766 1759 
L 2194 1759 
z
M 3341 1997 
L 3341 0 
L 2766 0 
L 2766 531 
Q 2569 213 2275 61 
Q 1981 -91 1556 -91 
Q 1019 -91 701 211 
Q 384 513 384 1019 
Q 384 1609 779 1909 
Q 1175 2209 1959 2209 
L 2766 2209 
L 2766 2266 
Q 2766 2663 2505 2880 
Q 2244 3097 1772 3097 
Q 1472 3097 1187 3025 
Q 903 2953 641 2809 
L 641 3341 
Q 956 3463 1253 3523 
Q 1550 3584 1831 3584 
Q 2591 3584 2966 3190 
Q 3341 2797 3341 1997 
z
" transform="scale(0.015625)"/>
       <path id="DejaVuSans-74" d="M 1172 4494 
L 1172 3500 
L 2356 3500 
L 2356 3053 
L 1172 3053 
L 1172 1153 
Q 1172 725 1289 603 
Q 1406 481 1766 481 
L 2356 481 
L 2356 0 
L 1766 0 
Q 1100 0 847 248 
Q 594 497 594 1153 
L 594 3053 
L 172 3053 
L 172 3500 
L 594 3500 
L 594 4494 
L 1172 4494 
z
" transform="scale(0.015625)"/>
       <path id="DejaVuSans-65" d="M 3597 1894 
L 3597 1613 
L 953 1613 
Q 991 1019 1311 708 
Q 1631 397 2203 397 
Q 2534 397 2845 478 
Q 3156 559 3463 722 
L 3463 178 
Q 3153 47 2828 -22 
Q 2503 -91 2169 -91 
Q 1331 -91 842 396 
Q 353 884 353 1716 
Q 353 2575 817 3079 
Q 1281 3584 2069 3584 
Q 2775 3584 3186 3129 
Q 3597 2675 3597 1894 
z
M 3022 2063 
Q 3016 2534 2758 2815 
Q 2500 3097 2075 3097 
Q 1594 3097 1305 2825 
Q 1016 2553 972 2059 
L 3022 2063 
z
" transform="scale(0.015625)"/>
      </defs>
      <use xlink:href="#DejaVuSans-4d"/>
      <use xlink:href="#DejaVuSans-69" x="86.279297"/>
      <use xlink:href="#DejaVuSans-78" x="114.0625"/>
      <use xlink:href="#DejaVuSans-20" x="173.242188"/>
      <use xlink:href="#DejaVuSans-52" x="205.029297"/>
      <use xlink:href="#DejaVuSans-61" x="272.261719"/>
      <use xlink:href="#DejaVuSans-74" x="333.541016"/>
      <use xlink:href="#DejaVuSans-65" x="372.75"/>
     </g>
    </g>
   </g>
   <g id="matplotlib.axis_2">
    <g id="ytick_1">
     <g id="line2d_6">
      <defs>
       <path id="m60f9428f05" d="M 0 0 
L -3.5 0 
" style="stroke: #000000; stroke-width: 0.8"/>
      </defs>
      <g>
       <use xlink:href="#m60f9428f05" x="52.160938" y="168.9688" style="stroke: #000000; stroke-width: 0.8"/>
      </g>
     </g>
     <g id="text_7">
      <!-- −0.1 -->
      <g transform="translate(20.878125 172.768019) scale(0.1 -0.1)">
       <defs>
        <path id="DejaVuSans-2212" d="M 678 2272 
L 4684 2272 
L 4684 1741 
L 678 1741 
L 678 2272 
z
" transform="scale(0.015625)"/>
       </defs>
       <use xlink:href="#DejaVuSans-2212"/>
       <use xlink:href="#DejaVuSans-30" x="83.789062"/>
       <use xlink:href="#DejaVuSans-2e" x="147.412109"/>
       <use xlink:href="#DejaVuSans-31" x="179.199219"/>
      </g>
     </g>
    </g>
    <g id="ytick_2">
     <g id="line2d_7">
      <g>
       <use xlink:href="#m60f9428f05" x="52.160938" y="131.0668" style="stroke: #000000; stroke-width: 0.8"/>
      </g>
     </g>
     <g id="text_8">
      <!-- 0.0 -->
      <g transform="translate(29.257813 134.866019) scale(0.1 -0.1)">
       <use xlink:href="#DejaVuSans-30"/>
       <use xlink:href="#DejaVuSans-2e" x="63.623047"/>
       <use xlink:href="#DejaVuSans-30" x="95.410156"/>
      </g>
     </g>
    </g>
    <g id="ytick_3">
     <g id="line2d_8">
      <g>
       <use xlink:href="#m60f9428f05" x="52.160938" y="93.1648" style="stroke: #000000; stroke-width: 0.8"/>
      </g>
     </g>
     <g id="text_9">
      <!-- 0.1 -->
      <g transform="translate(29.257813 96.964019) scale(0.1 -0.1)">
       <use xlink:href="#DejaVuSans-30"/>
       <use xlink:href="#DejaVuSans-2e" x="63.623047"/>
       <use xlink:href="#DejaVuSans-31" x="95.410156"/>
      </g>
     </g>
    </g>
    <g id="ytick_4">
     <g id="line2d_9">
      <g>
       <use xlink:href="#m60f9428f05" x="52.160938" y="55.2628" style="stroke: #000000; stroke-width: 0.8"/>
      </g>
     </g>
     <g id="text_10">
      <!-- 0.2 -->
      <g transform="translate(29.257813 59.062019) scale(0.1 -0.1)">
       <use xlink:href="#DejaVuSans-30"/>
       <use xlink:href="#DejaVuSans-2e" x="63.623047"/>
       <use xlink:href="#DejaVuSans-32" x="95.410156"/>
      </g>
     </g>
    </g>
    <g id="ytick_5">
     <g id="line2d_10">
      <g>
       <use xlink:href="#m60f9428f05" x="52.160938" y="17.3608" style="stroke: #000000; stroke-width: 0.8"/>
      </g>
     </g>
     <g id="text_11">
      <!-- 0.3 -->
      <g transform="translate(29.257813 21.160019) scale(0.1 -0.1)">
       <defs>
        <path id="DejaVuSans-33" d="M 2597 2516 
Q 3050 2419 3304 2112 
Q 3559 1806 3559 1356 
Q 3559 666 3084 287 
Q 2609 -91 1734 -91 
Q 1441 -91 1130 -33 
Q 819 25 488 141 
L 488 750 
Q 750 597 1062 519 
Q 1375 441 1716 441 
Q 2309 441 2620 675 
Q 2931 909 2931 1356 
Q 2931 1769 2642 2001 
Q 2353 2234 1838 2234 
L 1294 2234 
L 1294 2753 
L 1863 2753 
Q 2328 2753 2575 2939 
Q 2822 3125 2822 3475 
Q 2822 3834 2567 4026 
Q 2313 4219 1838 4219 
Q 1578 4219 1281 4162 
Q 984 4106 628 3988 
L 628 4550 
Q 988 4650 1302 4700 
Q 1616 4750 1894 4750 
Q 2613 4750 3031 4423 
Q 3450 4097 3450 3541 
Q 3450 3153 3228 2886 
Q 3006 2619 2597 2516 
z
" transform="scale(0.015625)"/>
       </defs>
       <use xlink:href="#DejaVuSans-30"/>
       <use xlink:href="#DejaVuSans-2e" x="63.623047"/>
       <use xlink:href="#DejaVuSans-33" x="95.410156"/>
      </g>
     </g>
    </g>
    <g id="text_12">
     <!-- Multi-Label Acc Gain -->
     <g transform="translate(14.798438 144.185113) rotate(-90) scale(0.1 -0.1)">
      <defs>
       <path id="DejaVuSans-75" d="M 544 1381 
L 544 3500 
L 1119 3500 
L 1119 1403 
Q 1119 906 1312 657 
Q 1506 409 1894 409 
Q 2359 409 2629 706 
Q 2900 1003 2900 1516 
L 2900 3500 
L 3475 3500 
L 3475 0 
L 2900 0 
L 2900 538 
Q 2691 219 2414 64 
Q 2138 -91 1772 -91 
Q 1169 -91 856 284 
Q 544 659 544 1381 
z
M 1991 3584 
L 1991 3584 
z
" transform="scale(0.015625)"/>
       <path id="DejaVuSans-6c" d="M 603 4863 
L 1178 4863 
L 1178 0 
L 603 0 
L 603 4863 
z
" transform="scale(0.015625)"/>
       <path id="DejaVuSans-2d" d="M 313 2009 
L 1997 2009 
L 1997 1497 
L 313 1497 
L 313 2009 
z
" transform="scale(0.015625)"/>
       <path id="DejaVuSans-4c" d="M 628 4666 
L 1259 4666 
L 1259 531 
L 3531 531 
L 3531 0 
L 628 0 
L 628 4666 
z
" transform="scale(0.015625)"/>
       <path id="DejaVuSans-62" d="M 3116 1747 
Q 3116 2381 2855 2742 
Q 2594 3103 2138 3103 
Q 1681 3103 1420 2742 
Q 1159 2381 1159 1747 
Q 1159 1113 1420 752 
Q 1681 391 2138 391 
Q 2594 391 2855 752 
Q 3116 1113 3116 1747 
z
M 1159 2969 
Q 1341 3281 1617 3432 
Q 1894 3584 2278 3584 
Q 2916 3584 3314 3078 
Q 3713 2572 3713 1747 
Q 3713 922 3314 415 
Q 2916 -91 2278 -91 
Q 1894 -91 1617 61 
Q 1341 213 1159 525 
L 1159 0 
L 581 0 
L 581 4863 
L 1159 4863 
L 1159 2969 
z
" transform="scale(0.015625)"/>
       <path id="DejaVuSans-41" d="M 2188 4044 
L 1331 1722 
L 3047 1722 
L 2188 4044 
z
M 1831 4666 
L 2547 4666 
L 4325 0 
L 3669 0 
L 3244 1197 
L 1141 1197 
L 716 0 
L 50 0 
L 1831 4666 
z
" transform="scale(0.015625)"/>
       <path id="DejaVuSans-63" d="M 3122 3366 
L 3122 2828 
Q 2878 2963 2633 3030 
Q 2388 3097 2138 3097 
Q 1578 3097 1268 2742 
Q 959 2388 959 1747 
Q 959 1106 1268 751 
Q 1578 397 2138 397 
Q 2388 397 2633 464 
Q 2878 531 3122 666 
L 3122 134 
Q 2881 22 2623 -34 
Q 2366 -91 2075 -91 
Q 1284 -91 818 406 
Q 353 903 353 1747 
Q 353 2603 823 3093 
Q 1294 3584 2113 3584 
Q 2378 3584 2631 3529 
Q 2884 3475 3122 3366 
z
" transform="scale(0.015625)"/>
       <path id="DejaVuSans-47" d="M 3809 666 
L 3809 1919 
L 2778 1919 
L 2778 2438 
L 4434 2438 
L 4434 434 
Q 4069 175 3628 42 
Q 3188 -91 2688 -91 
Q 1594 -91 976 548 
Q 359 1188 359 2328 
Q 359 3472 976 4111 
Q 1594 4750 2688 4750 
Q 3144 4750 3555 4637 
Q 3966 4525 4313 4306 
L 4313 3634 
Q 3963 3931 3569 4081 
Q 3175 4231 2741 4231 
Q 1884 4231 1454 3753 
Q 1025 3275 1025 2328 
Q 1025 1384 1454 906 
Q 1884 428 2741 428 
Q 3075 428 3337 486 
Q 3600 544 3809 666 
z
" transform="scale(0.015625)"/>
       <path id="DejaVuSans-6e" d="M 3513 2113 
L 3513 0 
L 2938 0 
L 2938 2094 
Q 2938 2591 2744 2837 
Q 2550 3084 2163 3084 
Q 1697 3084 1428 2787 
Q 1159 2491 1159 1978 
L 1159 0 
L 581 0 
L 581 3500 
L 1159 3500 
L 1159 2956 
Q 1366 3272 1645 3428 
Q 1925 3584 2291 3584 
Q 2894 3584 3203 3211 
Q 3513 2838 3513 2113 
z
" transform="scale(0.015625)"/>
      </defs>
      <use xlink:href="#DejaVuSans-4d"/>
      <use xlink:href="#DejaVuSans-75" x="86.279297"/>
      <use xlink:href="#DejaVuSans-6c" x="149.658203"/>
      <use xlink:href="#DejaVuSans-74" x="177.441406"/>
      <use xlink:href="#DejaVuSans-69" x="216.650391"/>
      <use xlink:href="#DejaVuSans-2d" x="244.433594"/>
      <use xlink:href="#DejaVuSans-4c" x="280.517578"/>
      <use xlink:href="#DejaVuSans-61" x="336.230469"/>
      <use xlink:href="#DejaVuSans-62" x="397.509766"/>
      <use xlink:href="#DejaVuSans-65" x="460.986328"/>
      <use xlink:href="#DejaVuSans-6c" x="522.509766"/>
      <use xlink:href="#DejaVuSans-20" x="550.292969"/>
      <use xlink:href="#DejaVuSans-41" x="582.080078"/>
      <use xlink:href="#DejaVuSans-63" x="648.738281"/>
      <use xlink:href="#DejaVuSans-63" x="703.71875"/>
      <use xlink:href="#DejaVuSans-20" x="758.699219"/>
      <use xlink:href="#DejaVuSans-47" x="790.486328"/>
      <use xlink:href="#DejaVuSans-61" x="867.976562"/>
      <use xlink:href="#DejaVuSans-69" x="929.255859"/>
      <use xlink:href="#DejaVuSans-6e" x="957.039062"/>
     </g>
    </g>
   </g>
   <g id="patch_3">
    <path d="M 54.090024 111.957804 
L 65.66454 111.957804 
L 65.66454 48.910349 
L 54.090024 48.910349 
L 54.090024 111.957804 
z
" clip-path="url(#p89d1cf69f6)" style="fill: #1f77b4; opacity: 0.6; stroke: #000000; stroke-linejoin: miter"/>
   </g>
   <g id="line2d_11">
    <path d="M 59.877282 111.957804 
L 59.877282 138.109906 
" clip-path="url(#p89d1cf69f6)" style="fill: none; stroke-dasharray: 3.7,1.6; stroke-dashoffset: 0; stroke: #000000"/>
   </g>
   <g id="line2d_12">
    <path d="M 59.877282 48.910349 
L 59.877282 42.69327 
" clip-path="url(#p89d1cf69f6)" style="fill: none; stroke-dasharray: 3.7,1.6; stroke-dashoffset: 0; stroke: #000000"/>
   </g>
   <g id="line2d_13">
    <path d="M 56.983653 138.109906 
L 62.770911 138.109906 
" clip-path="url(#p89d1cf69f6)" style="fill: none; stroke: #000000; stroke-linecap: square"/>
   </g>
   <g id="line2d_14">
    <path d="M 56.983653 42.69327 
L 62.770911 42.69327 
" clip-path="url(#p89d1cf69f6)" style="fill: none; stroke: #000000; stroke-linecap: square"/>
   </g>
   <g id="line2d_15"/>
   <g id="patch_4">
    <path d="M 131.253464 103.16543 
L 142.827981 103.16543 
L 142.827981 48.629956 
L 131.253464 48.629956 
L 131.253464 103.16543 
z
" clip-path="url(#p89d1cf69f6)" style="fill: #1f77b4; opacity: 0.6; stroke: #000000; stroke-linejoin: miter"/>
   </g>
   <g id="line2d_16">
    <path d="M 137.040722 103.16543 
L 137.040722 134.729013 
" clip-path="url(#p89d1cf69f6)" style="fill: none; stroke-dasharray: 3.7,1.6; stroke-dashoffset: 0; stroke: #000000"/>
   </g>
   <g id="line2d_17">
    <path d="M 137.040722 48.629956 
L 137.040722 39.019091 
" clip-path="url(#p89d1cf69f6)" style="fill: none; stroke-dasharray: 3.7,1.6; stroke-dashoffset: 0; stroke: #000000"/>
   </g>
   <g id="line2d_18">
    <path d="M 134.147093 134.729013 
L 139.934351 134.729013 
" clip-path="url(#p89d1cf69f6)" style="fill: none; stroke: #000000; stroke-linecap: square"/>
   </g>
   <g id="line2d_19">
    <path d="M 134.147093 39.019091 
L 139.934351 39.019091 
" clip-path="url(#p89d1cf69f6)" style="fill: none; stroke: #000000; stroke-linecap: square"/>
   </g>
   <g id="line2d_20"/>
   <g id="patch_5">
    <path d="M 208.416905 119.820107 
L 219.991421 119.820107 
L 219.991421 48.440446 
L 208.416905 48.440446 
L 208.416905 119.820107 
z
" clip-path="url(#p89d1cf69f6)" style="fill: #1f77b4; opacity: 0.6; stroke: #000000; stroke-linejoin: miter"/>
   </g>
   <g id="line2d_21">
    <path d="M 214.204163 119.820107 
L 214.204163 134.632638 
" clip-path="url(#p89d1cf69f6)" style="fill: none; stroke-dasharray: 3.7,1.6; stroke-dashoffset: 0; stroke: #000000"/>
   </g>
   <g id="line2d_22">
    <path d="M 214.204163 48.440446 
L 214.204163 39.212473 
" clip-path="url(#p89d1cf69f6)" style="fill: none; stroke-dasharray: 3.7,1.6; stroke-dashoffset: 0; stroke: #000000"/>
   </g>
   <g id="line2d_23">
    <path d="M 211.310534 134.632638 
L 217.097792 134.632638 
" clip-path="url(#p89d1cf69f6)" style="fill: none; stroke: #000000; stroke-linecap: square"/>
   </g>
   <g id="line2d_24">
    <path d="M 211.310534 39.212473 
L 217.097792 39.212473 
" clip-path="url(#p89d1cf69f6)" style="fill: none; stroke: #000000; stroke-linecap: square"/>
   </g>
   <g id="line2d_25"/>
   <g id="patch_6">
    <path d="M 285.580346 122.304797 
L 297.154862 122.304797 
L 297.154862 48.5352 
L 285.580346 48.5352 
L 285.580346 122.304797 
z
" clip-path="url(#p89d1cf69f6)" style="fill: #1f77b4; opacity: 0.6; stroke: #000000; stroke-linejoin: miter"/>
   </g>
   <g id="line2d_26">
    <path d="M 291.367604 122.304797 
L 291.367604 150.495822 
" clip-path="url(#p89d1cf69f6)" style="fill: none; stroke-dasharray: 3.7,1.6; stroke-dashoffset: 0; stroke: #000000"/>
   </g>
   <g id="line2d_27">
    <path d="M 291.367604 48.5352 
L 291.367604 40.952866 
" clip-path="url(#p89d1cf69f6)" style="fill: none; stroke-dasharray: 3.7,1.6; stroke-dashoffset: 0; stroke: #000000"/>
   </g>
   <g id="line2d_28">
    <path d="M 288.473975 150.495822 
L 294.261233 150.495822 
" clip-path="url(#p89d1cf69f6)" style="fill: none; stroke: #000000; stroke-linecap: square"/>
   </g>
   <g id="line2d_29">
    <path d="M 288.473975 40.952866 
L 294.261233 40.952866 
" clip-path="url(#p89d1cf69f6)" style="fill: none; stroke: #000000; stroke-linecap: square"/>
   </g>
   <g id="line2d_30"/>
   <g id="patch_7">
    <path d="M 362.743787 128.508074 
L 374.318303 128.508074 
L 374.318303 50.049347 
L 362.743787 50.049347 
L 362.743787 128.508074 
z
" clip-path="url(#p89d1cf69f6)" style="fill: #1f77b4; opacity: 0.6; stroke: #000000; stroke-linejoin: miter"/>
   </g>
   <g id="line2d_31">
    <path d="M 368.531045 128.508074 
L 368.531045 131.840317 
" clip-path="url(#p89d1cf69f6)" style="fill: none; stroke-dasharray: 3.7,1.6; stroke-dashoffset: 0; stroke: #000000"/>
   </g>
   <g id="line2d_32">
    <path d="M 368.531045 50.049347 
L 368.531045 42.113135 
" clip-path="url(#p89d1cf69f6)" style="fill: none; stroke-dasharray: 3.7,1.6; stroke-dashoffset: 0; stroke: #000000"/>
   </g>
   <g id="line2d_33">
    <path d="M 365.637416 131.840317 
L 371.424674 131.840317 
" clip-path="url(#p89d1cf69f6)" style="fill: none; stroke: #000000; stroke-linecap: square"/>
   </g>
   <g id="line2d_34">
    <path d="M 365.637416 42.113135 
L 371.424674 42.113135 
" clip-path="url(#p89d1cf69f6)" style="fill: none; stroke: #000000; stroke-linecap: square"/>
   </g>
   <g id="line2d_35"/>
   <g id="patch_8">
    <path d="M 65.66454 130.686123 
L 77.239056 130.686123 
L 77.239056 83.71831 
L 65.66454 83.71831 
L 65.66454 130.686123 
z
" clip-path="url(#p89d1cf69f6)" style="fill: #ff7f0e; opacity: 0.6; stroke: #000000; stroke-linejoin: miter"/>
   </g>
   <g id="line2d_36">
    <path d="M 71.451798 130.686123 
L 71.451798 141.300336 
" clip-path="url(#p89d1cf69f6)" style="fill: none; stroke-dasharray: 3.7,1.6; stroke-dashoffset: 0; stroke: #000000"/>
   </g>
   <g id="line2d_37">
    <path d="M 71.451798 83.71831 
L 71.451798 39.019091 
" clip-path="url(#p89d1cf69f6)" style="fill: none; stroke-dasharray: 3.7,1.6; stroke-dashoffset: 0; stroke: #000000"/>
   </g>
   <g id="line2d_38">
    <path d="M 68.558169 141.300336 
L 74.345427 141.300336 
" clip-path="url(#p89d1cf69f6)" style="fill: none; stroke: #000000; stroke-linecap: square"/>
   </g>
   <g id="line2d_39">
    <path d="M 68.558169 39.019091 
L 74.345427 39.019091 
" clip-path="url(#p89d1cf69f6)" style="fill: none; stroke: #000000; stroke-linecap: square"/>
   </g>
   <g id="line2d_40"/>
   <g id="patch_9">
    <path d="M 142.827981 117.190411 
L 154.402497 117.190411 
L 154.402497 49.130803 
L 142.827981 49.130803 
L 142.827981 117.190411 
z
" clip-path="url(#p89d1cf69f6)" style="fill: #ff7f0e; opacity: 0.6; stroke: #000000; stroke-linejoin: miter"/>
   </g>
   <g id="line2d_41">
    <path d="M 148.615239 117.190411 
L 148.615239 131.924375 
" clip-path="url(#p89d1cf69f6)" style="fill: none; stroke-dasharray: 3.7,1.6; stroke-dashoffset: 0; stroke: #000000"/>
   </g>
   <g id="line2d_42">
    <path d="M 148.615239 49.130803 
L 148.615239 45.207168 
" clip-path="url(#p89d1cf69f6)" style="fill: none; stroke-dasharray: 3.7,1.6; stroke-dashoffset: 0; stroke: #000000"/>
   </g>
   <g id="line2d_43">
    <path d="M 145.72161 131.924375 
L 151.508868 131.924375 
" clip-path="url(#p89d1cf69f6)" style="fill: none; stroke: #000000; stroke-linecap: square"/>
   </g>
   <g id="line2d_44">
    <path d="M 145.72161 45.207168 
L 151.508868 45.207168 
" clip-path="url(#p89d1cf69f6)" style="fill: none; stroke: #000000; stroke-linecap: square"/>
   </g>
   <g id="line2d_45"/>
   <g id="patch_10">
    <path d="M 219.991421 130.242805 
L 231.565938 130.242805 
L 231.565938 48.440446 
L 219.991421 48.440446 
L 219.991421 130.242805 
z
" clip-path="url(#p89d1cf69f6)" style="fill: #ff7f0e; opacity: 0.6; stroke: #000000; stroke-linejoin: miter"/>
   </g>
   <g id="line2d_46">
    <path d="M 225.778679 130.242805 
L 225.778679 133.614231 
" clip-path="url(#p89d1cf69f6)" style="fill: none; stroke-dasharray: 3.7,1.6; stroke-dashoffset: 0; stroke: #000000"/>
   </g>
   <g id="line2d_47">
    <path d="M 225.778679 48.440446 
L 225.778679 38.825709 
" clip-path="url(#p89d1cf69f6)" style="fill: none; stroke-dasharray: 3.7,1.6; stroke-dashoffset: 0; stroke: #000000"/>
   </g>
   <g id="line2d_48">
    <path d="M 222.88505 133.614231 
L 228.672308 133.614231 
" clip-path="url(#p89d1cf69f6)" style="fill: none; stroke: #000000; stroke-linecap: square"/>
   </g>
   <g id="line2d_49">
    <path d="M 222.88505 38.825709 
L 228.672308 38.825709 
" clip-path="url(#p89d1cf69f6)" style="fill: none; stroke: #000000; stroke-linecap: square"/>
   </g>
   <g id="line2d_50"/>
   <g id="patch_11">
    <path d="M 297.154862 126.100754 
L 308.729378 126.100754 
L 308.729378 59.147761 
L 297.154862 59.147761 
L 297.154862 126.100754 
z
" clip-path="url(#p89d1cf69f6)" style="fill: #ff7f0e; opacity: 0.6; stroke: #000000; stroke-linejoin: miter"/>
   </g>
   <g id="line2d_51">
    <path d="M 302.94212 126.100754 
L 302.94212 132.07628 
" clip-path="url(#p89d1cf69f6)" style="fill: none; stroke-dasharray: 3.7,1.6; stroke-dashoffset: 0; stroke: #000000"/>
   </g>
   <g id="line2d_52">
    <path d="M 302.94212 59.147761 
L 302.94212 50.621739 
" clip-path="url(#p89d1cf69f6)" style="fill: none; stroke-dasharray: 3.7,1.6; stroke-dashoffset: 0; stroke: #000000"/>
   </g>
   <g id="line2d_53">
    <path d="M 300.048491 132.07628 
L 305.835749 132.07628 
" clip-path="url(#p89d1cf69f6)" style="fill: none; stroke: #000000; stroke-linecap: square"/>
   </g>
   <g id="line2d_54">
    <path d="M 300.048491 50.621739 
L 305.835749 50.621739 
" clip-path="url(#p89d1cf69f6)" style="fill: none; stroke: #000000; stroke-linecap: square"/>
   </g>
   <g id="line2d_55"/>
   <g id="patch_12">
    <path d="M 374.318303 130.353209 
L 385.892819 130.353209 
L 385.892819 83.254207 
L 374.318303 83.254207 
L 374.318303 130.353209 
z
" clip-path="url(#p89d1cf69f6)" style="fill: #ff7f0e; opacity: 0.6; stroke: #000000; stroke-linejoin: miter"/>
   </g>
   <g id="line2d_56">
    <path d="M 380.105561 130.353209 
L 380.105561 133.719955 
" clip-path="url(#p89d1cf69f6)" style="fill: none; stroke-dasharray: 3.7,1.6; stroke-dashoffset: 0; stroke: #000000"/>
   </g>
   <g id="line2d_57">
    <path d="M 380.105561 83.254207 
L 380.105561 64.158172 
" clip-path="url(#p89d1cf69f6)" style="fill: none; stroke-dasharray: 3.7,1.6; stroke-dashoffset: 0; stroke: #000000"/>
   </g>
   <g id="line2d_58">
    <path d="M 377.211932 133.719955 
L 382.99919 133.719955 
" clip-path="url(#p89d1cf69f6)" style="fill: none; stroke: #000000; stroke-linecap: square"/>
   </g>
   <g id="line2d_59">
    <path d="M 377.211932 64.158172 
L 382.99919 64.158172 
" clip-path="url(#p89d1cf69f6)" style="fill: none; stroke: #000000; stroke-linecap: square"/>
   </g>
   <g id="line2d_60"/>
   <g id="patch_13">
    <path d="M 77.239056 117.366063 
L 88.813572 117.366063 
L 88.813572 93.638578 
L 77.239056 93.638578 
L 77.239056 117.366063 
z
" clip-path="url(#p89d1cf69f6)" style="fill: #2ca02c; opacity: 0.6; stroke: #000000; stroke-linejoin: miter"/>
   </g>
   <g id="line2d_61">
    <path d="M 83.026314 117.366063 
L 83.026314 147.296198 
" clip-path="url(#p89d1cf69f6)" style="fill: none; stroke-dasharray: 3.7,1.6; stroke-dashoffset: 0; stroke: #000000"/>
   </g>
   <g id="line2d_62">
    <path d="M 83.026314 93.638578 
L 83.026314 80.401885 
" clip-path="url(#p89d1cf69f6)" style="fill: none; stroke-dasharray: 3.7,1.6; stroke-dashoffset: 0; stroke: #000000"/>
   </g>
   <g id="line2d_63">
    <path d="M 80.132685 147.296198 
L 85.919943 147.296198 
" clip-path="url(#p89d1cf69f6)" style="fill: none; stroke: #000000; stroke-linecap: square"/>
   </g>
   <g id="line2d_64">
    <path d="M 80.132685 80.401885 
L 85.919943 80.401885 
" clip-path="url(#p89d1cf69f6)" style="fill: none; stroke: #000000; stroke-linecap: square"/>
   </g>
   <g id="line2d_65">
    <defs>
     <path id="m722f32cfcd" d="M 0 2 
C 0.530406 2 1.03916 1.789267 1.414214 1.414214 
C 1.789267 1.03916 2 0.530406 2 0 
C 2 -0.530406 1.789267 -1.03916 1.414214 -1.414214 
C 1.03916 -1.789267 0.530406 -2 0 -2 
C -0.530406 -2 -1.03916 -1.789267 -1.414214 -1.414214 
C -1.789267 -1.03916 -2 -0.530406 -2 0 
C -2 0.530406 -1.789267 1.03916 -1.414214 1.414214 
C -1.03916 1.789267 -0.530406 2 0 2 
z
" style="stroke: #000000"/>
    </defs>
    <g clip-path="url(#p89d1cf69f6)">
     <use xlink:href="#m722f32cfcd" x="83.026314" y="158.051545" style="fill: #808080; stroke: #000000"/>
     <use xlink:href="#m722f32cfcd" x="83.026314" y="159.092386" style="fill: #808080; stroke: #000000"/>
    </g>
   </g>
   <g id="patch_14">
    <path d="M 154.402497 112.227661 
L 165.977013 112.227661 
L 165.977013 70.5377 
L 154.402497 70.5377 
L 154.402497 112.227661 
z
" clip-path="url(#p89d1cf69f6)" style="fill: #2ca02c; opacity: 0.6; stroke: #000000; stroke-linejoin: miter"/>
   </g>
   <g id="line2d_66">
    <path d="M 160.189755 112.227661 
L 160.189755 160.82713 
" clip-path="url(#p89d1cf69f6)" style="fill: none; stroke-dasharray: 3.7,1.6; stroke-dashoffset: 0; stroke: #000000"/>
   </g>
   <g id="line2d_67">
    <path d="M 160.189755 70.5377 
L 160.189755 48.440446 
" clip-path="url(#p89d1cf69f6)" style="fill: none; stroke-dasharray: 3.7,1.6; stroke-dashoffset: 0; stroke: #000000"/>
   </g>
   <g id="line2d_68">
    <path d="M 157.296126 160.82713 
L 163.083384 160.82713 
" clip-path="url(#p89d1cf69f6)" style="fill: none; stroke: #000000; stroke-linecap: square"/>
   </g>
   <g id="line2d_69">
    <path d="M 157.296126 48.440446 
L 163.083384 48.440446 
" clip-path="url(#p89d1cf69f6)" style="fill: none; stroke: #000000; stroke-linecap: square"/>
   </g>
   <g id="line2d_70"/>
   <g id="patch_15">
    <path d="M 231.565938 88.35142 
L 243.140454 88.35142 
L 243.140454 48.914217 
L 231.565938 48.914217 
L 231.565938 88.35142 
z
" clip-path="url(#p89d1cf69f6)" style="fill: #2ca02c; opacity: 0.6; stroke: #000000; stroke-linejoin: miter"/>
   </g>
   <g id="line2d_71">
    <path d="M 237.353196 88.35142 
L 237.353196 139.123675 
" clip-path="url(#p89d1cf69f6)" style="fill: none; stroke-dasharray: 3.7,1.6; stroke-dashoffset: 0; stroke: #000000"/>
   </g>
   <g id="line2d_72">
    <path d="M 237.353196 48.914217 
L 237.353196 38.245575 
" clip-path="url(#p89d1cf69f6)" style="fill: none; stroke-dasharray: 3.7,1.6; stroke-dashoffset: 0; stroke: #000000"/>
   </g>
   <g id="line2d_73">
    <path d="M 234.459567 139.123675 
L 240.246825 139.123675 
" clip-path="url(#p89d1cf69f6)" style="fill: none; stroke: #000000; stroke-linecap: square"/>
   </g>
   <g id="line2d_74">
    <path d="M 234.459567 38.245575 
L 240.246825 38.245575 
" clip-path="url(#p89d1cf69f6)" style="fill: none; stroke: #000000; stroke-linecap: square"/>
   </g>
   <g id="line2d_75">
    <g clip-path="url(#p89d1cf69f6)">
     <use xlink:href="#m722f32cfcd" x="237.353196" y="148.529787" style="fill: #808080; stroke: #000000"/>
    </g>
   </g>
   <g id="patch_16">
    <path d="M 308.729378 102.354382 
L 320.303894 102.354382 
L 320.303894 48.629956 
L 308.729378 48.629956 
L 308.729378 102.354382 
z
" clip-path="url(#p89d1cf69f6)" style="fill: #2ca02c; opacity: 0.6; stroke: #000000; stroke-linejoin: miter"/>
   </g>
   <g id="line2d_76">
    <path d="M 314.516636 102.354382 
L 314.516636 141.745051 
" clip-path="url(#p89d1cf69f6)" style="fill: none; stroke-dasharray: 3.7,1.6; stroke-dashoffset: 0; stroke: #000000"/>
   </g>
   <g id="line2d_77">
    <path d="M 314.516636 48.629956 
L 314.516636 38.245575 
" clip-path="url(#p89d1cf69f6)" style="fill: none; stroke-dasharray: 3.7,1.6; stroke-dashoffset: 0; stroke: #000000"/>
   </g>
   <g id="line2d_78">
    <path d="M 311.623007 141.745051 
L 317.410265 141.745051 
" clip-path="url(#p89d1cf69f6)" style="fill: none; stroke: #000000; stroke-linecap: square"/>
   </g>
   <g id="line2d_79">
    <path d="M 311.623007 38.245575 
L 317.410265 38.245575 
" clip-path="url(#p89d1cf69f6)" style="fill: none; stroke: #000000; stroke-linecap: square"/>
   </g>
   <g id="line2d_80"/>
   <g id="patch_17">
    <path d="M 385.892819 121.697462 
L 397.467335 121.697462 
L 397.467335 48.629956 
L 385.892819 48.629956 
L 385.892819 121.697462 
z
" clip-path="url(#p89d1cf69f6)" style="fill: #2ca02c; opacity: 0.6; stroke: #000000; stroke-linejoin: miter"/>
   </g>
   <g id="line2d_81">
    <path d="M 391.680077 121.697462 
L 391.680077 132.261845 
" clip-path="url(#p89d1cf69f6)" style="fill: none; stroke-dasharray: 3.7,1.6; stroke-dashoffset: 0; stroke: #000000"/>
   </g>
   <g id="line2d_82">
    <path d="M 391.680077 48.629956 
L 391.680077 40.17936 
" clip-path="url(#p89d1cf69f6)" style="fill: none; stroke-dasharray: 3.7,1.6; stroke-dashoffset: 0; stroke: #000000"/>
   </g>
   <g id="line2d_83">
    <path d="M 388.786448 132.261845 
L 394.573706 132.261845 
" clip-path="url(#p89d1cf69f6)" style="fill: none; stroke: #000000; stroke-linecap: square"/>
   </g>
   <g id="line2d_84">
    <path d="M 388.786448 40.17936 
L 394.573706 40.17936 
" clip-path="url(#p89d1cf69f6)" style="fill: none; stroke: #000000; stroke-linecap: square"/>
   </g>
   <g id="line2d_85"/>
   <g id="patch_18">
    <path d="M 88.813572 132.315728 
L 100.388088 132.315728 
L 100.388088 131.066797 
L 88.813572 131.066797 
L 88.813572 132.315728 
z
" clip-path="url(#p89d1cf69f6)" style="fill: #d62728; opacity: 0.6; stroke: #000000; stroke-linejoin: miter"/>
   </g>
   <g id="line2d_86">
    <path d="M 94.60083 132.315728 
L 94.60083 133.20372 
" clip-path="url(#p89d1cf69f6)" style="fill: none; stroke-dasharray: 3.7,1.6; stroke-dashoffset: 0; stroke: #000000"/>
   </g>
   <g id="line2d_87">
    <path d="M 94.60083 131.066797 
L 94.60083 131.066796 
" clip-path="url(#p89d1cf69f6)" style="fill: none; stroke-dasharray: 3.7,1.6; stroke-dashoffset: 0; stroke: #000000"/>
   </g>
   <g id="line2d_88">
    <path d="M 91.707201 133.20372 
L 97.494459 133.20372 
" clip-path="url(#p89d1cf69f6)" style="fill: none; stroke: #000000; stroke-linecap: square"/>
   </g>
   <g id="line2d_89">
    <path d="M 91.707201 131.066796 
L 97.494459 131.066796 
" clip-path="url(#p89d1cf69f6)" style="fill: none; stroke: #000000; stroke-linecap: square"/>
   </g>
   <g id="line2d_90">
    <g clip-path="url(#p89d1cf69f6)">
     <use xlink:href="#m722f32cfcd" x="94.60083" y="137.131125" style="fill: #808080; stroke: #000000"/>
     <use xlink:href="#m722f32cfcd" x="94.60083" y="137.889166" style="fill: #808080; stroke: #000000"/>
     <use xlink:href="#m722f32cfcd" x="94.60083" y="128.746273" style="fill: #808080; stroke: #000000"/>
     <use xlink:href="#m722f32cfcd" x="94.60083" y="115.209851" style="fill: #808080; stroke: #000000"/>
     <use xlink:href="#m722f32cfcd" x="94.60083" y="116.664048" style="fill: #808080; stroke: #000000"/>
    </g>
   </g>
   <g id="patch_19">
    <path d="M 165.977013 131.829446 
L 177.551529 131.829446 
L 177.551529 112.417478 
L 165.977013 112.417478 
L 165.977013 131.829446 
z
" clip-path="url(#p89d1cf69f6)" style="fill: #d62728; opacity: 0.6; stroke: #000000; stroke-linejoin: miter"/>
   </g>
   <g id="line2d_91">
    <path d="M 171.764271 131.829446 
L 171.764271 143.953487 
" clip-path="url(#p89d1cf69f6)" style="fill: none; stroke-dasharray: 3.7,1.6; stroke-dashoffset: 0; stroke: #000000"/>
   </g>
   <g id="line2d_92">
    <path d="M 171.764271 112.417478 
L 171.764271 93.938319 
" clip-path="url(#p89d1cf69f6)" style="fill: none; stroke-dasharray: 3.7,1.6; stroke-dashoffset: 0; stroke: #000000"/>
   </g>
   <g id="line2d_93">
    <path d="M 168.870642 143.953487 
L 174.6579 143.953487 
" clip-path="url(#p89d1cf69f6)" style="fill: none; stroke: #000000; stroke-linecap: square"/>
   </g>
   <g id="line2d_94">
    <path d="M 168.870642 93.938319 
L 174.6579 93.938319 
" clip-path="url(#p89d1cf69f6)" style="fill: none; stroke: #000000; stroke-linecap: square"/>
   </g>
   <g id="line2d_95">
    <g clip-path="url(#p89d1cf69f6)">
     <use xlink:href="#m722f32cfcd" x="171.764271" y="61.450881" style="fill: #808080; stroke: #000000"/>
     <use xlink:href="#m722f32cfcd" x="171.764271" y="62.804532" style="fill: #808080; stroke: #000000"/>
     <use xlink:href="#m722f32cfcd" x="171.764271" y="67.252205" style="fill: #808080; stroke: #000000"/>
    </g>
   </g>
   <g id="patch_20">
    <path d="M 243.140454 131.539893 
L 254.71497 131.539893 
L 254.71497 85.816455 
L 243.140454 85.816455 
L 243.140454 131.539893 
z
" clip-path="url(#p89d1cf69f6)" style="fill: #d62728; opacity: 0.6; stroke: #000000; stroke-linejoin: miter"/>
   </g>
   <g id="line2d_96">
    <path d="M 248.927712 131.539893 
L 248.927712 142.058378 
" clip-path="url(#p89d1cf69f6)" style="fill: none; stroke-dasharray: 3.7,1.6; stroke-dashoffset: 0; stroke: #000000"/>
   </g>
   <g id="line2d_97">
    <path d="M 248.927712 85.816455 
L 248.927712 49.461469 
" clip-path="url(#p89d1cf69f6)" style="fill: none; stroke-dasharray: 3.7,1.6; stroke-dashoffset: 0; stroke: #000000"/>
   </g>
   <g id="line2d_98">
    <path d="M 246.034083 142.058378 
L 251.821341 142.058378 
" clip-path="url(#p89d1cf69f6)" style="fill: none; stroke: #000000; stroke-linecap: square"/>
   </g>
   <g id="line2d_99">
    <path d="M 246.034083 49.461469 
L 251.821341 49.461469 
" clip-path="url(#p89d1cf69f6)" style="fill: none; stroke: #000000; stroke-linecap: square"/>
   </g>
   <g id="line2d_100"/>
   <g id="patch_21">
    <path d="M 320.303894 131.64629 
L 331.878411 131.64629 
L 331.878411 70.781355 
L 320.303894 70.781355 
L 320.303894 131.64629 
z
" clip-path="url(#p89d1cf69f6)" style="fill: #d62728; opacity: 0.6; stroke: #000000; stroke-linejoin: miter"/>
   </g>
   <g id="line2d_101">
    <path d="M 326.091153 131.64629 
L 326.091153 143.195446 
" clip-path="url(#p89d1cf69f6)" style="fill: none; stroke-dasharray: 3.7,1.6; stroke-dashoffset: 0; stroke: #000000"/>
   </g>
   <g id="line2d_102">
    <path d="M 326.091153 70.781355 
L 326.091153 45.980684 
" clip-path="url(#p89d1cf69f6)" style="fill: none; stroke-dasharray: 3.7,1.6; stroke-dashoffset: 0; stroke: #000000"/>
   </g>
   <g id="line2d_103">
    <path d="M 323.197524 143.195446 
L 328.984782 143.195446 
" clip-path="url(#p89d1cf69f6)" style="fill: none; stroke: #000000; stroke-linecap: square"/>
   </g>
   <g id="line2d_104">
    <path d="M 323.197524 45.980684 
L 328.984782 45.980684 
" clip-path="url(#p89d1cf69f6)" style="fill: none; stroke: #000000; stroke-linecap: square"/>
   </g>
   <g id="line2d_105"/>
   <g id="patch_22">
    <path d="M 397.467335 131.482144 
L 409.041851 131.482144 
L 409.041851 43.128362 
L 397.467335 43.128362 
L 397.467335 131.482144 
z
" clip-path="url(#p89d1cf69f6)" style="fill: #d62728; opacity: 0.6; stroke: #000000; stroke-linejoin: miter"/>
   </g>
   <g id="line2d_106">
    <path d="M 403.254593 131.482144 
L 403.254593 138.647208 
" clip-path="url(#p89d1cf69f6)" style="fill: none; stroke-dasharray: 3.7,1.6; stroke-dashoffset: 0; stroke: #000000"/>
   </g>
   <g id="line2d_107">
    <path d="M 403.254593 43.128362 
L 403.254593 37.858822 
" clip-path="url(#p89d1cf69f6)" style="fill: none; stroke-dasharray: 3.7,1.6; stroke-dashoffset: 0; stroke: #000000"/>
   </g>
   <g id="line2d_108">
    <path d="M 400.360964 138.647208 
L 406.148222 138.647208 
" clip-path="url(#p89d1cf69f6)" style="fill: none; stroke: #000000; stroke-linecap: square"/>
   </g>
   <g id="line2d_109">
    <path d="M 400.360964 37.858822 
L 406.148222 37.858822 
" clip-path="url(#p89d1cf69f6)" style="fill: none; stroke: #000000; stroke-linecap: square"/>
   </g>
   <g id="line2d_110"/>
   <g id="line2d_111">
    <path d="M 52.160938 131.0668 
L 410.970937 131.0668 
" clip-path="url(#p89d1cf69f6)" style="fill: none; stroke: #000000; stroke-opacity: 0.2; stroke-width: 1.5; stroke-linecap: square"/>
   </g>
   <g id="line2d_112">
    <path d="M 54.090024 81.377245 
L 65.66454 81.377245 
" clip-path="url(#p89d1cf69f6)" style="fill: none; stroke: #000000"/>
   </g>
   <g id="line2d_113">
    <path d="M 131.253464 86.944381 
L 142.827981 86.944381 
" clip-path="url(#p89d1cf69f6)" style="fill: none; stroke: #000000"/>
   </g>
   <g id="line2d_114">
    <path d="M 208.416905 86.96999 
L 219.991421 86.96999 
" clip-path="url(#p89d1cf69f6)" style="fill: none; stroke: #000000"/>
   </g>
   <g id="line2d_115">
    <path d="M 285.580346 94.771848 
L 297.154862 94.771848 
" clip-path="url(#p89d1cf69f6)" style="fill: none; stroke: #000000"/>
   </g>
   <g id="line2d_116">
    <path d="M 362.743787 90.699705 
L 374.318303 90.699705 
" clip-path="url(#p89d1cf69f6)" style="fill: none; stroke: #000000"/>
   </g>
   <g id="line2d_117">
    <path d="M 65.66454 112.499575 
L 77.239056 112.499575 
" clip-path="url(#p89d1cf69f6)" style="fill: none; stroke: #000000"/>
   </g>
   <g id="line2d_118">
    <path d="M 142.827981 70.581353 
L 154.402497 70.581353 
" clip-path="url(#p89d1cf69f6)" style="fill: none; stroke: #000000"/>
   </g>
   <g id="line2d_119">
    <path d="M 219.991421 63.133154 
L 231.565938 63.133154 
" clip-path="url(#p89d1cf69f6)" style="fill: none; stroke: #000000"/>
   </g>
   <g id="line2d_120">
    <path d="M 297.154862 77.269839 
L 308.729378 77.269839 
" clip-path="url(#p89d1cf69f6)" style="fill: none; stroke: #000000"/>
   </g>
   <g id="line2d_121">
    <path d="M 374.318303 103.072895 
L 385.892819 103.072895 
" clip-path="url(#p89d1cf69f6)" style="fill: none; stroke: #000000"/>
   </g>
   <g id="line2d_122">
    <path d="M 77.239056 101.944677 
L 88.813572 101.944677 
" clip-path="url(#p89d1cf69f6)" style="fill: none; stroke: #000000"/>
   </g>
   <g id="line2d_123">
    <path d="M 154.402497 84.016801 
L 165.977013 84.016801 
" clip-path="url(#p89d1cf69f6)" style="fill: none; stroke: #000000"/>
   </g>
   <g id="line2d_124">
    <path d="M 231.565938 66.631735 
L 243.140454 66.631735 
" clip-path="url(#p89d1cf69f6)" style="fill: none; stroke: #000000"/>
   </g>
   <g id="line2d_125">
    <path d="M 308.729378 65.91189 
L 320.303894 65.91189 
" clip-path="url(#p89d1cf69f6)" style="fill: none; stroke: #000000"/>
   </g>
   <g id="line2d_126">
    <path d="M 385.892819 69.469582 
L 397.467335 69.469582 
" clip-path="url(#p89d1cf69f6)" style="fill: none; stroke: #000000"/>
   </g>
   <g id="line2d_127">
    <path d="M 88.813572 131.260182 
L 100.388088 131.260182 
" clip-path="url(#p89d1cf69f6)" style="fill: none; stroke: #000000"/>
   </g>
   <g id="line2d_128">
    <path d="M 165.977013 131.066802 
L 177.551529 131.066802 
" clip-path="url(#p89d1cf69f6)" style="fill: none; stroke: #000000"/>
   </g>
   <g id="line2d_129">
    <path d="M 243.140454 131.066796 
L 254.71497 131.066796 
" clip-path="url(#p89d1cf69f6)" style="fill: none; stroke: #000000"/>
   </g>
   <g id="line2d_130">
    <path d="M 320.303894 120.027396 
L 331.878411 120.027396 
" clip-path="url(#p89d1cf69f6)" style="fill: none; stroke: #000000"/>
   </g>
   <g id="line2d_131">
    <path d="M 397.467335 126.258426 
L 409.041851 126.258426 
" clip-path="url(#p89d1cf69f6)" style="fill: none; stroke: #000000"/>
   </g>
   <g id="patch_23">
    <path d="M 52.160938 168.9688 
L 52.160938 17.3608 
" style="fill: none; stroke: #000000; stroke-width: 0.8; stroke-linejoin: miter; stroke-linecap: square"/>
   </g>
   <g id="patch_24">
    <path d="M 52.160938 168.9688 
L 410.970938 168.9688 
" style="fill: none; stroke: #000000; stroke-width: 0.8; stroke-linejoin: miter; stroke-linecap: square"/>
   </g>
   <g id="legend_1">
    <g id="patch_25">
     <path d="M 71.6425 24.878125 
L 391.489375 24.878125 
Q 393.489375 24.878125 393.489375 22.878125 
L 393.489375 9.2 
Q 393.489375 7.2 391.489375 7.2 
L 71.6425 7.2 
Q 69.6425 7.2 69.6425 9.2 
L 69.6425 22.878125 
Q 69.6425 24.878125 71.6425 24.878125 
z
" style="fill: #ffffff; opacity: 0.8; stroke: #cccccc; stroke-linejoin: miter"/>
    </g>
    <g id="patch_26">
     <path d="M 73.6425 18.798438 
L 93.6425 18.798438 
L 93.6425 11.798438 
L 73.6425 11.798438 
z
" style="fill: #1f77b4; opacity: 0.6"/>
    </g>
    <g id="text_13">
     <!-- TopK 0.1 -->
     <g transform="translate(101.6425 18.798438) scale(0.1 -0.1)">
      <defs>
       <path id="DejaVuSans-54" d="M -19 4666 
L 3928 4666 
L 3928 4134 
L 2272 4134 
L 2272 0 
L 1638 0 
L 1638 4134 
L -19 4134 
L -19 4666 
z
" transform="scale(0.015625)"/>
       <path id="DejaVuSans-6f" d="M 1959 3097 
Q 1497 3097 1228 2736 
Q 959 2375 959 1747 
Q 959 1119 1226 758 
Q 1494 397 1959 397 
Q 2419 397 2687 759 
Q 2956 1122 2956 1747 
Q 2956 2369 2687 2733 
Q 2419 3097 1959 3097 
z
M 1959 3584 
Q 2709 3584 3137 3096 
Q 3566 2609 3566 1747 
Q 3566 888 3137 398 
Q 2709 -91 1959 -91 
Q 1206 -91 779 398 
Q 353 888 353 1747 
Q 353 2609 779 3096 
Q 1206 3584 1959 3584 
z
" transform="scale(0.015625)"/>
       <path id="DejaVuSans-70" d="M 1159 525 
L 1159 -1331 
L 581 -1331 
L 581 3500 
L 1159 3500 
L 1159 2969 
Q 1341 3281 1617 3432 
Q 1894 3584 2278 3584 
Q 2916 3584 3314 3078 
Q 3713 2572 3713 1747 
Q 3713 922 3314 415 
Q 2916 -91 2278 -91 
Q 1894 -91 1617 61 
Q 1341 213 1159 525 
z
M 3116 1747 
Q 3116 2381 2855 2742 
Q 2594 3103 2138 3103 
Q 1681 3103 1420 2742 
Q 1159 2381 1159 1747 
Q 1159 1113 1420 752 
Q 1681 391 2138 391 
Q 2594 391 2855 752 
Q 3116 1113 3116 1747 
z
" transform="scale(0.015625)"/>
       <path id="DejaVuSans-4b" d="M 628 4666 
L 1259 4666 
L 1259 2694 
L 3353 4666 
L 4166 4666 
L 1850 2491 
L 4331 0 
L 3500 0 
L 1259 2247 
L 1259 0 
L 628 0 
L 628 4666 
z
" transform="scale(0.015625)"/>
      </defs>
      <use xlink:href="#DejaVuSans-54"/>
      <use xlink:href="#DejaVuSans-6f" x="44.083984"/>
      <use xlink:href="#DejaVuSans-70" x="105.265625"/>
      <use xlink:href="#DejaVuSans-4b" x="168.742188"/>
      <use xlink:href="#DejaVuSans-20" x="234.318359"/>
      <use xlink:href="#DejaVuSans-30" x="266.105469"/>
      <use xlink:href="#DejaVuSans-2e" x="329.728516"/>
      <use xlink:href="#DejaVuSans-31" x="361.515625"/>
     </g>
    </g>
    <g id="patch_27">
     <path d="M 164.156563 18.798438 
L 184.156563 18.798438 
L 184.156563 11.798438 
L 164.156563 11.798438 
z
" style="fill: #ff7f0e; opacity: 0.6"/>
    </g>
    <g id="text_14">
     <!-- DivDis -->
     <g transform="translate(192.156563 18.798438) scale(0.1 -0.1)">
      <defs>
       <path id="DejaVuSans-44" d="M 1259 4147 
L 1259 519 
L 2022 519 
Q 2988 519 3436 956 
Q 3884 1394 3884 2338 
Q 3884 3275 3436 3711 
Q 2988 4147 2022 4147 
L 1259 4147 
z
M 628 4666 
L 1925 4666 
Q 3281 4666 3915 4102 
Q 4550 3538 4550 2338 
Q 4550 1131 3912 565 
Q 3275 0 1925 0 
L 628 0 
L 628 4666 
z
" transform="scale(0.015625)"/>
       <path id="DejaVuSans-76" d="M 191 3500 
L 800 3500 
L 1894 563 
L 2988 3500 
L 3597 3500 
L 2284 0 
L 1503 0 
L 191 3500 
z
" transform="scale(0.015625)"/>
       <path id="DejaVuSans-73" d="M 2834 3397 
L 2834 2853 
Q 2591 2978 2328 3040 
Q 2066 3103 1784 3103 
Q 1356 3103 1142 2972 
Q 928 2841 928 2578 
Q 928 2378 1081 2264 
Q 1234 2150 1697 2047 
L 1894 2003 
Q 2506 1872 2764 1633 
Q 3022 1394 3022 966 
Q 3022 478 2636 193 
Q 2250 -91 1575 -91 
Q 1294 -91 989 -36 
Q 684 19 347 128 
L 347 722 
Q 666 556 975 473 
Q 1284 391 1588 391 
Q 1994 391 2212 530 
Q 2431 669 2431 922 
Q 2431 1156 2273 1281 
Q 2116 1406 1581 1522 
L 1381 1569 
Q 847 1681 609 1914 
Q 372 2147 372 2553 
Q 372 3047 722 3315 
Q 1072 3584 1716 3584 
Q 2034 3584 2315 3537 
Q 2597 3491 2834 3397 
z
" transform="scale(0.015625)"/>
      </defs>
      <use xlink:href="#DejaVuSans-44"/>
      <use xlink:href="#DejaVuSans-69" x="77.001953"/>
      <use xlink:href="#DejaVuSans-76" x="104.785156"/>
      <use xlink:href="#DejaVuSans-44" x="163.964844"/>
      <use xlink:href="#DejaVuSans-69" x="240.966797"/>
      <use xlink:href="#DejaVuSans-73" x="268.75"/>
     </g>
    </g>
    <g id="patch_28">
     <path d="M 244.240938 18.798438 
L 264.240938 18.798438 
L 264.240938 11.798438 
L 244.240938 11.798438 
z
" style="fill: #2ca02c; opacity: 0.6"/>
    </g>
    <g id="text_15">
     <!-- TopK 0.5 -->
     <g transform="translate(272.240938 18.798438) scale(0.1 -0.1)">
      <use xlink:href="#DejaVuSans-54"/>
      <use xlink:href="#DejaVuSans-6f" x="44.083984"/>
      <use xlink:href="#DejaVuSans-70" x="105.265625"/>
      <use xlink:href="#DejaVuSans-4b" x="168.742188"/>
      <use xlink:href="#DejaVuSans-20" x="234.318359"/>
      <use xlink:href="#DejaVuSans-30" x="266.105469"/>
      <use xlink:href="#DejaVuSans-2e" x="329.728516"/>
      <use xlink:href="#DejaVuSans-35" x="361.515625"/>
     </g>
    </g>
    <g id="patch_29">
     <path d="M 334.755 18.798438 
L 354.755 18.798438 
L 354.755 11.798438 
L 334.755 11.798438 
z
" style="fill: #d62728; opacity: 0.6"/>
    </g>
    <g id="text_16">
     <!-- DBAT -->
     <g transform="translate(362.755 18.798438) scale(0.1 -0.1)">
      <defs>
       <path id="DejaVuSans-42" d="M 1259 2228 
L 1259 519 
L 2272 519 
Q 2781 519 3026 730 
Q 3272 941 3272 1375 
Q 3272 1813 3026 2020 
Q 2781 2228 2272 2228 
L 1259 2228 
z
M 1259 4147 
L 1259 2741 
L 2194 2741 
Q 2656 2741 2882 2914 
Q 3109 3088 3109 3444 
Q 3109 3797 2882 3972 
Q 2656 4147 2194 4147 
L 1259 4147 
z
M 628 4666 
L 2241 4666 
Q 2963 4666 3353 4366 
Q 3744 4066 3744 3513 
Q 3744 3084 3544 2831 
Q 3344 2578 2956 2516 
Q 3422 2416 3680 2098 
Q 3938 1781 3938 1306 
Q 3938 681 3513 340 
Q 3088 0 2303 0 
L 628 0 
L 628 4666 
z
" transform="scale(0.015625)"/>
      </defs>
      <use xlink:href="#DejaVuSans-44"/>
      <use xlink:href="#DejaVuSans-42" x="77.001953"/>
      <use xlink:href="#DejaVuSans-41" x="145.605469"/>
      <use xlink:href="#DejaVuSans-54" x="206.263672"/>
     </g>
    </g>
   </g>
  </g>
 </g>
 <defs>
  <clipPath id="p89d1cf69f6">
   <rect x="52.160938" y="17.3608" width="358.81" height="151.608"/>
  </clipPath>
 </defs>
</svg>
