<?xml version="1.0" encoding="utf-8" standalone="no"?>
<!DOCTYPE svg PUBLIC "-//W3C//DTD SVG 1.1//EN"
  "http://www.w3.org/Graphics/SVG/1.1/DTD/svg11.dtd">
<svg xmlns:xlink="http://www.w3.org/1999/xlink" width="427.95pt" height="201.72745pt" viewBox="0 0 427.95 201.72745" xmlns="http://www.w3.org/2000/svg" version="1.1">
 <metadata>
  <rdf:RDF xmlns:dc="http://purl.org/dc/elements/1.1/" xmlns:cc="http://creativecommons.org/ns#" xmlns:rdf="http://www.w3.org/1999/02/22-rdf-syntax-ns#">
   <cc:Work>
    <dc:type rdf:resource="http://purl.org/dc/dcmitype/StillImage"/>
    <dc:date>2025-02-13T08:50:33.791797</dc:date>
    <dc:format>image/svg+xml</dc:format>
    <dc:creator>
     <cc:Agent>
      <dc:title>Matplotlib v3.9.2, https://matplotlib.org/</dc:title>
     </cc:Agent>
    </dc:creator>
   </cc:Work>
  </rdf:RDF>
 </metadata>
 <defs>
  <style type="text/css">*{stroke-linejoin: round; stroke-linecap: butt}</style>
 </defs>
 <g id="figure_1">
  <g id="patch_1">
   <path d="M 0 201.72745 
L 427.95 201.72745 
L 427.95 0 
L 0 0 
z
" style="fill: #ffffff"/>
  </g>
  <g id="axes_1">
   <g id="patch_2">
    <path d="M 54.055 164.1712 
L 373.895 164.1712 
L 373.895 29.1952 
L 54.055 29.1952 
z
" style="fill: #ffffff"/>
   </g>
   <g id="matplotlib.axis_1">
    <g id="xtick_1">
     <g id="line2d_1">
      <defs>
       <path id="m662950145f" d="M 0 0 
L 0 3.5 
" style="stroke: #000000; stroke-width: 0.8"/>
      </defs>
      <g>
       <use xlink:href="#m662950145f" x="76.409409" y="164.1712" style="stroke: #000000; stroke-width: 0.8"/>
      </g>
     </g>
     <g id="text_1">
      <!-- 0.10 -->
      <g transform="translate(65.276596 178.769638) scale(0.1 -0.1)">
       <defs>
        <path id="DejaVuSans-30" d="M 2034 4250 
Q 1547 4250 1301 3770 
Q 1056 3291 1056 2328 
Q 1056 1369 1301 889 
Q 1547 409 2034 409 
Q 2525 409 2770 889 
Q 3016 1369 3016 2328 
Q 3016 3291 2770 3770 
Q 2525 4250 2034 4250 
z
M 2034 4750 
Q 2819 4750 3233 4129 
Q 3647 3509 3647 2328 
Q 3647 1150 3233 529 
Q 2819 -91 2034 -91 
Q 1250 -91 836 529 
Q 422 1150 422 2328 
Q 422 3509 836 4129 
Q 1250 4750 2034 4750 
z
" transform="scale(0.015625)"/>
        <path id="DejaVuSans-2e" d="M 684 794 
L 1344 794 
L 1344 0 
L 684 0 
L 684 794 
z
" transform="scale(0.015625)"/>
        <path id="DejaVuSans-31" d="M 794 531 
L 1825 531 
L 1825 4091 
L 703 3866 
L 703 4441 
L 1819 4666 
L 2450 4666 
L 2450 531 
L 3481 531 
L 3481 0 
L 794 0 
L 794 531 
z
" transform="scale(0.015625)"/>
       </defs>
       <use xlink:href="#DejaVuSans-30"/>
       <use xlink:href="#DejaVuSans-2e" x="63.623047"/>
       <use xlink:href="#DejaVuSans-31" x="95.410156"/>
       <use xlink:href="#DejaVuSans-30" x="159.033203"/>
      </g>
     </g>
    </g>
    <g id="xtick_2">
     <g id="line2d_2">
      <g>
       <use xlink:href="#m662950145f" x="145.192204" y="164.1712" style="stroke: #000000; stroke-width: 0.8"/>
      </g>
     </g>
     <g id="text_2">
      <!-- 0.25 -->
      <g transform="translate(134.059392 178.769638) scale(0.1 -0.1)">
       <defs>
        <path id="DejaVuSans-32" d="M 1228 531 
L 3431 531 
L 3431 0 
L 469 0 
L 469 531 
Q 828 903 1448 1529 
Q 2069 2156 2228 2338 
Q 2531 2678 2651 2914 
Q 2772 3150 2772 3378 
Q 2772 3750 2511 3984 
Q 2250 4219 1831 4219 
Q 1534 4219 1204 4116 
Q 875 4013 500 3803 
L 500 4441 
Q 881 4594 1212 4672 
Q 1544 4750 1819 4750 
Q 2544 4750 2975 4387 
Q 3406 4025 3406 3419 
Q 3406 3131 3298 2873 
Q 3191 2616 2906 2266 
Q 2828 2175 2409 1742 
Q 1991 1309 1228 531 
z
" transform="scale(0.015625)"/>
        <path id="DejaVuSans-35" d="M 691 4666 
L 3169 4666 
L 3169 4134 
L 1269 4134 
L 1269 2991 
Q 1406 3038 1543 3061 
Q 1681 3084 1819 3084 
Q 2600 3084 3056 2656 
Q 3513 2228 3513 1497 
Q 3513 744 3044 326 
Q 2575 -91 1722 -91 
Q 1428 -91 1123 -41 
Q 819 9 494 109 
L 494 744 
Q 775 591 1075 516 
Q 1375 441 1709 441 
Q 2250 441 2565 725 
Q 2881 1009 2881 1497 
Q 2881 1984 2565 2268 
Q 2250 2553 1709 2553 
Q 1456 2553 1204 2497 
Q 953 2441 691 2322 
L 691 4666 
z
" transform="scale(0.015625)"/>
       </defs>
       <use xlink:href="#DejaVuSans-30"/>
       <use xlink:href="#DejaVuSans-2e" x="63.623047"/>
       <use xlink:href="#DejaVuSans-32" x="95.410156"/>
       <use xlink:href="#DejaVuSans-35" x="159.033203"/>
      </g>
     </g>
    </g>
    <g id="xtick_3">
     <g id="line2d_3">
      <g>
       <use xlink:href="#m662950145f" x="213.975" y="164.1712" style="stroke: #000000; stroke-width: 0.8"/>
      </g>
     </g>
     <g id="text_3">
      <!-- 0.50 -->
      <g transform="translate(202.842187 178.769638) scale(0.1 -0.1)">
       <use xlink:href="#DejaVuSans-30"/>
       <use xlink:href="#DejaVuSans-2e" x="63.623047"/>
       <use xlink:href="#DejaVuSans-35" x="95.410156"/>
       <use xlink:href="#DejaVuSans-30" x="159.033203"/>
      </g>
     </g>
    </g>
    <g id="xtick_4">
     <g id="line2d_4">
      <g>
       <use xlink:href="#m662950145f" x="282.757796" y="164.1712" style="stroke: #000000; stroke-width: 0.8"/>
      </g>
     </g>
     <g id="text_4">
      <!-- 0.75 -->
      <g transform="translate(271.624983 178.769638) scale(0.1 -0.1)">
       <defs>
        <path id="DejaVuSans-37" d="M 525 4666 
L 3525 4666 
L 3525 4397 
L 1831 0 
L 1172 0 
L 2766 4134 
L 525 4134 
L 525 4666 
z
" transform="scale(0.015625)"/>
       </defs>
       <use xlink:href="#DejaVuSans-30"/>
       <use xlink:href="#DejaVuSans-2e" x="63.623047"/>
       <use xlink:href="#DejaVuSans-37" x="95.410156"/>
       <use xlink:href="#DejaVuSans-35" x="159.033203"/>
      </g>
     </g>
    </g>
    <g id="xtick_5">
     <g id="line2d_5">
      <g>
       <use xlink:href="#m662950145f" x="351.540591" y="164.1712" style="stroke: #000000; stroke-width: 0.8"/>
      </g>
     </g>
     <g id="text_5">
      <!-- 1.00 -->
      <g transform="translate(340.407779 178.769638) scale(0.1 -0.1)">
       <use xlink:href="#DejaVuSans-31"/>
       <use xlink:href="#DejaVuSans-2e" x="63.623047"/>
       <use xlink:href="#DejaVuSans-30" x="95.410156"/>
       <use xlink:href="#DejaVuSans-30" x="159.033203"/>
      </g>
     </g>
    </g>
    <g id="text_6">
     <!-- Mix Rate -->
     <g transform="translate(192.260937 192.447763) scale(0.1 -0.1)">
      <defs>
       <path id="DejaVuSans-4d" d="M 628 4666 
L 1569 4666 
L 2759 1491 
L 3956 4666 
L 4897 4666 
L 4897 0 
L 4281 0 
L 4281 4097 
L 3078 897 
L 2444 897 
L 1241 4097 
L 1241 0 
L 628 0 
L 628 4666 
z
" transform="scale(0.015625)"/>
       <path id="DejaVuSans-69" d="M 603 3500 
L 1178 3500 
L 1178 0 
L 603 0 
L 603 3500 
z
M 603 4863 
L 1178 4863 
L 1178 4134 
L 603 4134 
L 603 4863 
z
" transform="scale(0.015625)"/>
       <path id="DejaVuSans-78" d="M 3513 3500 
L 2247 1797 
L 3578 0 
L 2900 0 
L 1881 1375 
L 863 0 
L 184 0 
L 1544 1831 
L 300 3500 
L 978 3500 
L 1906 2253 
L 2834 3500 
L 3513 3500 
z
" transform="scale(0.015625)"/>
       <path id="DejaVuSans-20" transform="scale(0.015625)"/>
       <path id="DejaVuSans-52" d="M 2841 2188 
Q 3044 2119 3236 1894 
Q 3428 1669 3622 1275 
L 4263 0 
L 3584 0 
L 2988 1197 
Q 2756 1666 2539 1819 
Q 2322 1972 1947 1972 
L 1259 1972 
L 1259 0 
L 628 0 
L 628 4666 
L 2053 4666 
Q 2853 4666 3247 4331 
Q 3641 3997 3641 3322 
Q 3641 2881 3436 2590 
Q 3231 2300 2841 2188 
z
M 1259 4147 
L 1259 2491 
L 2053 2491 
Q 2509 2491 2742 2702 
Q 2975 2913 2975 3322 
Q 2975 3731 2742 3939 
Q 2509 4147 2053 4147 
L 1259 4147 
z
" transform="scale(0.015625)"/>
       <path id="DejaVuSans-61" d="M 2194 1759 
Q 1497 1759 1228 1600 
Q 959 1441 959 1056 
Q 959 750 1161 570 
Q 1363 391 1709 391 
Q 2188 391 2477 730 
Q 2766 1069 2766 1631 
L 2766 1759 
L 2194 1759 
z
M 3341 1997 
L 3341 0 
L 2766 0 
L 2766 531 
Q 2569 213 2275 61 
Q 1981 -91 1556 -91 
Q 1019 -91 701 211 
Q 384 513 384 1019 
Q 384 1609 779 1909 
Q 1175 2209 1959 2209 
L 2766 2209 
L 2766 2266 
Q 2766 2663 2505 2880 
Q 2244 3097 1772 3097 
Q 1472 3097 1187 3025 
Q 903 2953 641 2809 
L 641 3341 
Q 956 3463 1253 3523 
Q 1550 3584 1831 3584 
Q 2591 3584 2966 3190 
Q 3341 2797 3341 1997 
z
" transform="scale(0.015625)"/>
       <path id="DejaVuSans-74" d="M 1172 4494 
L 1172 3500 
L 2356 3500 
L 2356 3053 
L 1172 3053 
L 1172 1153 
Q 1172 725 1289 603 
Q 1406 481 1766 481 
L 2356 481 
L 2356 0 
L 1766 0 
Q 1100 0 847 248 
Q 594 497 594 1153 
L 594 3053 
L 172 3053 
L 172 3500 
L 594 3500 
L 594 4494 
L 1172 4494 
z
" transform="scale(0.015625)"/>
       <path id="DejaVuSans-65" d="M 3597 1894 
L 3597 1613 
L 953 1613 
Q 991 1019 1311 708 
Q 1631 397 2203 397 
Q 2534 397 2845 478 
Q 3156 559 3463 722 
L 3463 178 
Q 3153 47 2828 -22 
Q 2503 -91 2169 -91 
Q 1331 -91 842 396 
Q 353 884 353 1716 
Q 353 2575 817 3079 
Q 1281 3584 2069 3584 
Q 2775 3584 3186 3129 
Q 3597 2675 3597 1894 
z
M 3022 2063 
Q 3016 2534 2758 2815 
Q 2500 3097 2075 3097 
Q 1594 3097 1305 2825 
Q 1016 2553 972 2059 
L 3022 2063 
z
" transform="scale(0.015625)"/>
      </defs>
      <use xlink:href="#DejaVuSans-4d"/>
      <use xlink:href="#DejaVuSans-69" x="86.279297"/>
      <use xlink:href="#DejaVuSans-78" x="114.0625"/>
      <use xlink:href="#DejaVuSans-20" x="173.242188"/>
      <use xlink:href="#DejaVuSans-52" x="205.029297"/>
      <use xlink:href="#DejaVuSans-61" x="272.261719"/>
      <use xlink:href="#DejaVuSans-74" x="333.541016"/>
      <use xlink:href="#DejaVuSans-65" x="372.75"/>
     </g>
    </g>
   </g>
   <g id="matplotlib.axis_2">
    <g id="ytick_1">
     <g id="line2d_6">
      <defs>
       <path id="mef8801cf64" d="M 0 0 
L -3.5 0 
" style="stroke: #000000; stroke-width: 0.8"/>
      </defs>
      <g>
       <use xlink:href="#mef8801cf64" x="54.055" y="164.1712" style="stroke: #000000; stroke-width: 0.8"/>
      </g>
     </g>
     <g id="text_7">
      <!-- −0.1 -->
      <g transform="translate(22.772187 167.970419) scale(0.1 -0.1)">
       <defs>
        <path id="DejaVuSans-2212" d="M 678 2272 
L 4684 2272 
L 4684 1741 
L 678 1741 
L 678 2272 
z
" transform="scale(0.015625)"/>
       </defs>
       <use xlink:href="#DejaVuSans-2212"/>
       <use xlink:href="#DejaVuSans-30" x="83.789062"/>
       <use xlink:href="#DejaVuSans-2e" x="147.412109"/>
       <use xlink:href="#DejaVuSans-31" x="179.199219"/>
      </g>
     </g>
    </g>
    <g id="ytick_2">
     <g id="line2d_7">
      <g>
       <use xlink:href="#mef8801cf64" x="54.055" y="125.606629" style="stroke: #000000; stroke-width: 0.8"/>
      </g>
     </g>
     <g id="text_8">
      <!-- 0.0 -->
      <g transform="translate(31.151875 129.405847) scale(0.1 -0.1)">
       <use xlink:href="#DejaVuSans-30"/>
       <use xlink:href="#DejaVuSans-2e" x="63.623047"/>
       <use xlink:href="#DejaVuSans-30" x="95.410156"/>
      </g>
     </g>
    </g>
    <g id="ytick_3">
     <g id="line2d_8">
      <g>
       <use xlink:href="#mef8801cf64" x="54.055" y="87.042057" style="stroke: #000000; stroke-width: 0.8"/>
      </g>
     </g>
     <g id="text_9">
      <!-- 0.1 -->
      <g transform="translate(31.151875 90.841276) scale(0.1 -0.1)">
       <use xlink:href="#DejaVuSans-30"/>
       <use xlink:href="#DejaVuSans-2e" x="63.623047"/>
       <use xlink:href="#DejaVuSans-31" x="95.410156"/>
      </g>
     </g>
    </g>
    <g id="ytick_4">
     <g id="line2d_9">
      <g>
       <use xlink:href="#mef8801cf64" x="54.055" y="48.477486" style="stroke: #000000; stroke-width: 0.8"/>
      </g>
     </g>
     <g id="text_10">
      <!-- 0.2 -->
      <g transform="translate(31.151875 52.276704) scale(0.1 -0.1)">
       <use xlink:href="#DejaVuSans-30"/>
       <use xlink:href="#DejaVuSans-2e" x="63.623047"/>
       <use xlink:href="#DejaVuSans-32" x="95.410156"/>
      </g>
     </g>
    </g>
    <g id="text_11">
     <!-- Multi-Label Acc Gain -->
     <g transform="translate(16.6925 147.703513) rotate(-90) scale(0.1 -0.1)">
      <defs>
       <path id="DejaVuSans-75" d="M 544 1381 
L 544 3500 
L 1119 3500 
L 1119 1403 
Q 1119 906 1312 657 
Q 1506 409 1894 409 
Q 2359 409 2629 706 
Q 2900 1003 2900 1516 
L 2900 3500 
L 3475 3500 
L 3475 0 
L 2900 0 
L 2900 538 
Q 2691 219 2414 64 
Q 2138 -91 1772 -91 
Q 1169 -91 856 284 
Q 544 659 544 1381 
z
M 1991 3584 
L 1991 3584 
z
" transform="scale(0.015625)"/>
       <path id="DejaVuSans-6c" d="M 603 4863 
L 1178 4863 
L 1178 0 
L 603 0 
L 603 4863 
z
" transform="scale(0.015625)"/>
       <path id="DejaVuSans-2d" d="M 313 2009 
L 1997 2009 
L 1997 1497 
L 313 1497 
L 313 2009 
z
" transform="scale(0.015625)"/>
       <path id="DejaVuSans-4c" d="M 628 4666 
L 1259 4666 
L 1259 531 
L 3531 531 
L 3531 0 
L 628 0 
L 628 4666 
z
" transform="scale(0.015625)"/>
       <path id="DejaVuSans-62" d="M 3116 1747 
Q 3116 2381 2855 2742 
Q 2594 3103 2138 3103 
Q 1681 3103 1420 2742 
Q 1159 2381 1159 1747 
Q 1159 1113 1420 752 
Q 1681 391 2138 391 
Q 2594 391 2855 752 
Q 3116 1113 3116 1747 
z
M 1159 2969 
Q 1341 3281 1617 3432 
Q 1894 3584 2278 3584 
Q 2916 3584 3314 3078 
Q 3713 2572 3713 1747 
Q 3713 922 3314 415 
Q 2916 -91 2278 -91 
Q 1894 -91 1617 61 
Q 1341 213 1159 525 
L 1159 0 
L 581 0 
L 581 4863 
L 1159 4863 
L 1159 2969 
z
" transform="scale(0.015625)"/>
       <path id="DejaVuSans-41" d="M 2188 4044 
L 1331 1722 
L 3047 1722 
L 2188 4044 
z
M 1831 4666 
L 2547 4666 
L 4325 0 
L 3669 0 
L 3244 1197 
L 1141 1197 
L 716 0 
L 50 0 
L 1831 4666 
z
" transform="scale(0.015625)"/>
       <path id="DejaVuSans-63" d="M 3122 3366 
L 3122 2828 
Q 2878 2963 2633 3030 
Q 2388 3097 2138 3097 
Q 1578 3097 1268 2742 
Q 959 2388 959 1747 
Q 959 1106 1268 751 
Q 1578 397 2138 397 
Q 2388 397 2633 464 
Q 2878 531 3122 666 
L 3122 134 
Q 2881 22 2623 -34 
Q 2366 -91 2075 -91 
Q 1284 -91 818 406 
Q 353 903 353 1747 
Q 353 2603 823 3093 
Q 1294 3584 2113 3584 
Q 2378 3584 2631 3529 
Q 2884 3475 3122 3366 
z
" transform="scale(0.015625)"/>
       <path id="DejaVuSans-47" d="M 3809 666 
L 3809 1919 
L 2778 1919 
L 2778 2438 
L 4434 2438 
L 4434 434 
Q 4069 175 3628 42 
Q 3188 -91 2688 -91 
Q 1594 -91 976 548 
Q 359 1188 359 2328 
Q 359 3472 976 4111 
Q 1594 4750 2688 4750 
Q 3144 4750 3555 4637 
Q 3966 4525 4313 4306 
L 4313 3634 
Q 3963 3931 3569 4081 
Q 3175 4231 2741 4231 
Q 1884 4231 1454 3753 
Q 1025 3275 1025 2328 
Q 1025 1384 1454 906 
Q 1884 428 2741 428 
Q 3075 428 3337 486 
Q 3600 544 3809 666 
z
" transform="scale(0.015625)"/>
       <path id="DejaVuSans-6e" d="M 3513 2113 
L 3513 0 
L 2938 0 
L 2938 2094 
Q 2938 2591 2744 2837 
Q 2550 3084 2163 3084 
Q 1697 3084 1428 2787 
Q 1159 2491 1159 1978 
L 1159 0 
L 581 0 
L 581 3500 
L 1159 3500 
L 1159 2956 
Q 1366 3272 1645 3428 
Q 1925 3584 2291 3584 
Q 2894 3584 3203 3211 
Q 3513 2838 3513 2113 
z
" transform="scale(0.015625)"/>
      </defs>
      <use xlink:href="#DejaVuSans-4d"/>
      <use xlink:href="#DejaVuSans-75" x="86.279297"/>
      <use xlink:href="#DejaVuSans-6c" x="149.658203"/>
      <use xlink:href="#DejaVuSans-74" x="177.441406"/>
      <use xlink:href="#DejaVuSans-69" x="216.650391"/>
      <use xlink:href="#DejaVuSans-2d" x="244.433594"/>
      <use xlink:href="#DejaVuSans-4c" x="280.517578"/>
      <use xlink:href="#DejaVuSans-61" x="336.230469"/>
      <use xlink:href="#DejaVuSans-62" x="397.509766"/>
      <use xlink:href="#DejaVuSans-65" x="460.986328"/>
      <use xlink:href="#DejaVuSans-6c" x="522.509766"/>
      <use xlink:href="#DejaVuSans-20" x="550.292969"/>
      <use xlink:href="#DejaVuSans-41" x="582.080078"/>
      <use xlink:href="#DejaVuSans-63" x="648.738281"/>
      <use xlink:href="#DejaVuSans-63" x="703.71875"/>
      <use xlink:href="#DejaVuSans-20" x="758.699219"/>
      <use xlink:href="#DejaVuSans-47" x="790.486328"/>
      <use xlink:href="#DejaVuSans-61" x="867.976562"/>
      <use xlink:href="#DejaVuSans-69" x="929.255859"/>
      <use xlink:href="#DejaVuSans-6e" x="957.039062"/>
     </g>
    </g>
   </g>
   <g id="patch_3">
    <path d="M 55.77457 125.993961 
L 66.091989 125.993961 
L 66.091989 48.095774 
L 55.77457 48.095774 
L 55.77457 125.993961 
z
" clip-path="url(#p6c301c2eb9)" style="fill: #1e3d8f; opacity: 0.6; stroke: #000000; stroke-linejoin: miter"/>
   </g>
   <g id="line2d_10">
    <path d="M 60.93328 125.993961 
L 60.93328 130.043926 
" clip-path="url(#p6c301c2eb9)" style="fill: none; stroke-dasharray: 3.7,1.6; stroke-dashoffset: 0; stroke: #000000"/>
   </g>
   <g id="line2d_11">
    <path d="M 60.93328 48.095774 
L 60.93328 40.803936 
" clip-path="url(#p6c301c2eb9)" style="fill: none; stroke-dasharray: 3.7,1.6; stroke-dashoffset: 0; stroke: #000000"/>
   </g>
   <g id="line2d_12">
    <path d="M 58.353925 130.043926 
L 63.512634 130.043926 
" clip-path="url(#p6c301c2eb9)" style="fill: none; stroke: #000000; stroke-linecap: square"/>
   </g>
   <g id="line2d_13">
    <path d="M 58.353925 40.803936 
L 63.512634 40.803936 
" clip-path="url(#p6c301c2eb9)" style="fill: none; stroke: #000000; stroke-linecap: square"/>
   </g>
   <g id="line2d_14"/>
   <g id="patch_4">
    <path d="M 124.557366 102.787809 
L 134.874785 102.787809 
L 134.874785 41.535869 
L 124.557366 41.535869 
L 124.557366 102.787809 
z
" clip-path="url(#p6c301c2eb9)" style="fill: #1e3d8f; opacity: 0.6; stroke: #000000; stroke-linejoin: miter"/>
   </g>
   <g id="line2d_15">
    <path d="M 129.716075 102.787809 
L 129.716075 131.706129 
" clip-path="url(#p6c301c2eb9)" style="fill: none; stroke-dasharray: 3.7,1.6; stroke-dashoffset: 0; stroke: #000000"/>
   </g>
   <g id="line2d_16">
    <path d="M 129.716075 41.535869 
L 129.716075 31.949818 
" clip-path="url(#p6c301c2eb9)" style="fill: none; stroke-dasharray: 3.7,1.6; stroke-dashoffset: 0; stroke: #000000"/>
   </g>
   <g id="line2d_17">
    <path d="M 127.13672 131.706129 
L 132.29543 131.706129 
" clip-path="url(#p6c301c2eb9)" style="fill: none; stroke: #000000; stroke-linecap: square"/>
   </g>
   <g id="line2d_18">
    <path d="M 127.13672 31.949818 
L 132.29543 31.949818 
" clip-path="url(#p6c301c2eb9)" style="fill: none; stroke: #000000; stroke-linecap: square"/>
   </g>
   <g id="line2d_19"/>
   <g id="patch_5">
    <path d="M 193.340161 113.154452 
L 203.657581 113.154452 
L 203.657581 41.549642 
L 193.340161 41.549642 
L 193.340161 113.154452 
z
" clip-path="url(#p6c301c2eb9)" style="fill: #1e3d8f; opacity: 0.6; stroke: #000000; stroke-linejoin: miter"/>
   </g>
   <g id="line2d_20">
    <path d="M 198.498871 113.154452 
L 198.498871 125.793377 
" clip-path="url(#p6c301c2eb9)" style="fill: none; stroke-dasharray: 3.7,1.6; stroke-dashoffset: 0; stroke: #000000"/>
   </g>
   <g id="line2d_21">
    <path d="M 198.498871 41.549642 
L 198.498871 37.065528 
" clip-path="url(#p6c301c2eb9)" style="fill: none; stroke-dasharray: 3.7,1.6; stroke-dashoffset: 0; stroke: #000000"/>
   </g>
   <g id="line2d_22">
    <path d="M 195.919516 125.793377 
L 201.078226 125.793377 
" clip-path="url(#p6c301c2eb9)" style="fill: none; stroke: #000000; stroke-linecap: square"/>
   </g>
   <g id="line2d_23">
    <path d="M 195.919516 37.065528 
L 201.078226 37.065528 
" clip-path="url(#p6c301c2eb9)" style="fill: none; stroke: #000000; stroke-linecap: square"/>
   </g>
   <g id="line2d_24"/>
   <g id="patch_6">
    <path d="M 262.122957 110.389006 
L 272.440376 110.389006 
L 272.440376 43.013523 
L 262.122957 43.013523 
L 262.122957 110.389006 
z
" clip-path="url(#p6c301c2eb9)" style="fill: #1e3d8f; opacity: 0.6; stroke: #000000; stroke-linejoin: miter"/>
   </g>
   <g id="line2d_25">
    <path d="M 267.281667 110.389006 
L 267.281667 127.947313 
" clip-path="url(#p6c301c2eb9)" style="fill: none; stroke-dasharray: 3.7,1.6; stroke-dashoffset: 0; stroke: #000000"/>
   </g>
   <g id="line2d_26">
    <path d="M 267.281667 43.013523 
L 267.281667 35.097949 
" clip-path="url(#p6c301c2eb9)" style="fill: none; stroke-dasharray: 3.7,1.6; stroke-dashoffset: 0; stroke: #000000"/>
   </g>
   <g id="line2d_27">
    <path d="M 264.702312 127.947313 
L 269.861022 127.947313 
" clip-path="url(#p6c301c2eb9)" style="fill: none; stroke: #000000; stroke-linecap: square"/>
   </g>
   <g id="line2d_28">
    <path d="M 264.702312 35.097949 
L 269.861022 35.097949 
" clip-path="url(#p6c301c2eb9)" style="fill: none; stroke: #000000; stroke-linecap: square"/>
   </g>
   <g id="line2d_29"/>
   <g id="patch_7">
    <path d="M 330.905753 114.786277 
L 341.223172 114.786277 
L 341.223172 50.346694 
L 330.905753 50.346694 
L 330.905753 114.786277 
z
" clip-path="url(#p6c301c2eb9)" style="fill: #1e3d8f; opacity: 0.6; stroke: #000000; stroke-linejoin: miter"/>
   </g>
   <g id="line2d_30">
    <path d="M 336.064462 114.786277 
L 336.064462 125.077113 
" clip-path="url(#p6c301c2eb9)" style="fill: none; stroke-dasharray: 3.7,1.6; stroke-dashoffset: 0; stroke: #000000"/>
   </g>
   <g id="line2d_31">
    <path d="M 336.064462 50.346694 
L 336.064462 39.426621 
" clip-path="url(#p6c301c2eb9)" style="fill: none; stroke-dasharray: 3.7,1.6; stroke-dashoffset: 0; stroke: #000000"/>
   </g>
   <g id="line2d_32">
    <path d="M 333.485108 125.077113 
L 338.643817 125.077113 
" clip-path="url(#p6c301c2eb9)" style="fill: none; stroke: #000000; stroke-linecap: square"/>
   </g>
   <g id="line2d_33">
    <path d="M 333.485108 39.426621 
L 338.643817 39.426621 
" clip-path="url(#p6c301c2eb9)" style="fill: none; stroke: #000000; stroke-linecap: square"/>
   </g>
   <g id="line2d_34"/>
   <g id="patch_8">
    <path d="M 66.091989 106.163585 
L 76.409409 106.163585 
L 76.409409 42.013986 
L 66.091989 42.013986 
L 66.091989 106.163585 
z
" clip-path="url(#p6c301c2eb9)" style="fill: #1f77b4; opacity: 0.6; stroke: #000000; stroke-linejoin: miter"/>
   </g>
   <g id="line2d_35">
    <path d="M 71.250699 106.163585 
L 71.250699 132.772857 
" clip-path="url(#p6c301c2eb9)" style="fill: none; stroke-dasharray: 3.7,1.6; stroke-dashoffset: 0; stroke: #000000"/>
   </g>
   <g id="line2d_36">
    <path d="M 71.250699 42.013986 
L 71.250699 35.688225 
" clip-path="url(#p6c301c2eb9)" style="fill: none; stroke-dasharray: 3.7,1.6; stroke-dashoffset: 0; stroke: #000000"/>
   </g>
   <g id="line2d_37">
    <path d="M 68.671344 132.772857 
L 73.830054 132.772857 
" clip-path="url(#p6c301c2eb9)" style="fill: none; stroke: #000000; stroke-linecap: square"/>
   </g>
   <g id="line2d_38">
    <path d="M 68.671344 35.688225 
L 73.830054 35.688225 
" clip-path="url(#p6c301c2eb9)" style="fill: none; stroke: #000000; stroke-linecap: square"/>
   </g>
   <g id="line2d_39"/>
   <g id="patch_9">
    <path d="M 134.874785 97.21751 
L 145.192204 97.21751 
L 145.192204 41.728692 
L 134.874785 41.728692 
L 134.874785 97.21751 
z
" clip-path="url(#p6c301c2eb9)" style="fill: #1f77b4; opacity: 0.6; stroke: #000000; stroke-linejoin: miter"/>
   </g>
   <g id="line2d_40">
    <path d="M 140.033495 97.21751 
L 140.033495 129.332861 
" clip-path="url(#p6c301c2eb9)" style="fill: none; stroke-dasharray: 3.7,1.6; stroke-dashoffset: 0; stroke: #000000"/>
   </g>
   <g id="line2d_41">
    <path d="M 140.033495 41.728692 
L 140.033495 31.949818 
" clip-path="url(#p6c301c2eb9)" style="fill: none; stroke-dasharray: 3.7,1.6; stroke-dashoffset: 0; stroke: #000000"/>
   </g>
   <g id="line2d_42">
    <path d="M 137.45414 129.332861 
L 142.612849 129.332861 
" clip-path="url(#p6c301c2eb9)" style="fill: none; stroke: #000000; stroke-linecap: square"/>
   </g>
   <g id="line2d_43">
    <path d="M 137.45414 31.949818 
L 142.612849 31.949818 
" clip-path="url(#p6c301c2eb9)" style="fill: none; stroke: #000000; stroke-linecap: square"/>
   </g>
   <g id="line2d_44"/>
   <g id="patch_10">
    <path d="M 203.657581 114.16333 
L 213.975 114.16333 
L 213.975 41.535869 
L 203.657581 41.535869 
L 203.657581 114.16333 
z
" clip-path="url(#p6c301c2eb9)" style="fill: #1f77b4; opacity: 0.6; stroke: #000000; stroke-linejoin: miter"/>
   </g>
   <g id="line2d_45">
    <path d="M 208.81629 114.16333 
L 208.81629 129.234802 
" clip-path="url(#p6c301c2eb9)" style="fill: none; stroke-dasharray: 3.7,1.6; stroke-dashoffset: 0; stroke: #000000"/>
   </g>
   <g id="line2d_46">
    <path d="M 208.81629 41.535869 
L 208.81629 32.14658 
" clip-path="url(#p6c301c2eb9)" style="fill: none; stroke-dasharray: 3.7,1.6; stroke-dashoffset: 0; stroke: #000000"/>
   </g>
   <g id="line2d_47">
    <path d="M 206.236935 129.234802 
L 211.395645 129.234802 
" clip-path="url(#p6c301c2eb9)" style="fill: none; stroke: #000000; stroke-linecap: square"/>
   </g>
   <g id="line2d_48">
    <path d="M 206.236935 32.14658 
L 211.395645 32.14658 
" clip-path="url(#p6c301c2eb9)" style="fill: none; stroke: #000000; stroke-linecap: square"/>
   </g>
   <g id="line2d_49"/>
   <g id="patch_11">
    <path d="M 272.440376 116.691455 
L 282.757796 116.691455 
L 282.757796 41.632279 
L 272.440376 41.632279 
L 272.440376 116.691455 
z
" clip-path="url(#p6c301c2eb9)" style="fill: #1f77b4; opacity: 0.6; stroke: #000000; stroke-linejoin: miter"/>
   </g>
   <g id="line2d_50">
    <path d="M 277.599086 116.691455 
L 277.599086 145.375293 
" clip-path="url(#p6c301c2eb9)" style="fill: none; stroke-dasharray: 3.7,1.6; stroke-dashoffset: 0; stroke: #000000"/>
   </g>
   <g id="line2d_51">
    <path d="M 277.599086 41.632279 
L 277.599086 33.917397 
" clip-path="url(#p6c301c2eb9)" style="fill: none; stroke-dasharray: 3.7,1.6; stroke-dashoffset: 0; stroke: #000000"/>
   </g>
   <g id="line2d_52">
    <path d="M 275.019731 145.375293 
L 280.178441 145.375293 
" clip-path="url(#p6c301c2eb9)" style="fill: none; stroke: #000000; stroke-linecap: square"/>
   </g>
   <g id="line2d_53">
    <path d="M 275.019731 33.917397 
L 280.178441 33.917397 
" clip-path="url(#p6c301c2eb9)" style="fill: none; stroke: #000000; stroke-linecap: square"/>
   </g>
   <g id="line2d_54"/>
   <g id="patch_12">
    <path d="M 341.223172 123.003173 
L 351.540591 123.003173 
L 351.540591 43.172896 
L 341.223172 43.172896 
L 341.223172 123.003173 
z
" clip-path="url(#p6c301c2eb9)" style="fill: #1f77b4; opacity: 0.6; stroke: #000000; stroke-linejoin: miter"/>
   </g>
   <g id="line2d_55">
    <path d="M 346.381882 123.003173 
L 346.381882 126.393667 
" clip-path="url(#p6c301c2eb9)" style="fill: none; stroke-dasharray: 3.7,1.6; stroke-dashoffset: 0; stroke: #000000"/>
   </g>
   <g id="line2d_56">
    <path d="M 346.381882 43.172896 
L 346.381882 35.097949 
" clip-path="url(#p6c301c2eb9)" style="fill: none; stroke-dasharray: 3.7,1.6; stroke-dashoffset: 0; stroke: #000000"/>
   </g>
   <g id="line2d_57">
    <path d="M 343.802527 126.393667 
L 348.961237 126.393667 
" clip-path="url(#p6c301c2eb9)" style="fill: none; stroke: #000000; stroke-linecap: square"/>
   </g>
   <g id="line2d_58">
    <path d="M 343.802527 35.097949 
L 348.961237 35.097949 
" clip-path="url(#p6c301c2eb9)" style="fill: none; stroke: #000000; stroke-linecap: square"/>
   </g>
   <g id="line2d_59"/>
   <g id="patch_13">
    <path d="M 76.409409 130.166372 
L 86.726828 130.166372 
L 86.726828 112.941484 
L 76.409409 112.941484 
L 76.409409 130.166372 
z
" clip-path="url(#p6c301c2eb9)" style="fill: #556b2f; opacity: 0.6; stroke: #000000; stroke-linejoin: miter"/>
   </g>
   <g id="line2d_60">
    <path d="M 81.568118 130.166372 
L 81.568118 137.947297 
" clip-path="url(#p6c301c2eb9)" style="fill: none; stroke-dasharray: 3.7,1.6; stroke-dashoffset: 0; stroke: #000000"/>
   </g>
   <g id="line2d_61">
    <path d="M 81.568118 112.941484 
L 81.568118 92.604213 
" clip-path="url(#p6c301c2eb9)" style="fill: none; stroke-dasharray: 3.7,1.6; stroke-dashoffset: 0; stroke: #000000"/>
   </g>
   <g id="line2d_62">
    <path d="M 78.988763 137.947297 
L 84.147473 137.947297 
" clip-path="url(#p6c301c2eb9)" style="fill: none; stroke: #000000; stroke-linecap: square"/>
   </g>
   <g id="line2d_63">
    <path d="M 78.988763 92.604213 
L 84.147473 92.604213 
" clip-path="url(#p6c301c2eb9)" style="fill: none; stroke: #000000; stroke-linecap: square"/>
   </g>
   <g id="line2d_64">
    <defs>
     <path id="mdb82afa2b4" d="M 0 2 
C 0.530406 2 1.03916 1.789267 1.414214 1.414214 
C 1.789267 1.03916 2 0.530406 2 0 
C 2 -0.530406 1.789267 -1.03916 1.414214 -1.414214 
C 1.03916 -1.789267 0.530406 -2 0 -2 
C -0.530406 -2 -1.03916 -1.789267 -1.414214 -1.414214 
C -1.789267 -1.03916 -2 -0.530406 -2 0 
C -2 0.530406 -1.789267 1.03916 -1.414214 1.414214 
C -1.03916 1.789267 -0.530406 2 0 2 
z
" style="stroke: #000000"/>
    </defs>
    <g clip-path="url(#p6c301c2eb9)">
     <use xlink:href="#mdb82afa2b4" x="81.568118" y="83.11949" style="fill: #808080; stroke: #000000"/>
    </g>
   </g>
   <g id="patch_14">
    <path d="M 145.192204 118.188114 
L 155.509624 118.188114 
L 155.509624 84.090696 
L 145.192204 84.090696 
L 145.192204 118.188114 
z
" clip-path="url(#p6c301c2eb9)" style="fill: #556b2f; opacity: 0.6; stroke: #000000; stroke-linejoin: miter"/>
   </g>
   <g id="line2d_65">
    <path d="M 150.350914 118.188114 
L 150.350914 137.947297 
" clip-path="url(#p6c301c2eb9)" style="fill: none; stroke-dasharray: 3.7,1.6; stroke-dashoffset: 0; stroke: #000000"/>
   </g>
   <g id="line2d_66">
    <path d="M 150.350914 84.090696 
L 150.350914 68.743559 
" clip-path="url(#p6c301c2eb9)" style="fill: none; stroke-dasharray: 3.7,1.6; stroke-dashoffset: 0; stroke: #000000"/>
   </g>
   <g id="line2d_67">
    <path d="M 147.771559 137.947297 
L 152.930269 137.947297 
" clip-path="url(#p6c301c2eb9)" style="fill: none; stroke: #000000; stroke-linecap: square"/>
   </g>
   <g id="line2d_68">
    <path d="M 147.771559 68.743559 
L 152.930269 68.743559 
" clip-path="url(#p6c301c2eb9)" style="fill: none; stroke: #000000; stroke-linecap: square"/>
   </g>
   <g id="line2d_69"/>
   <g id="patch_15">
    <path d="M 213.975 99.596342 
L 224.292419 99.596342 
L 224.292419 46.267897 
L 213.975 46.267897 
L 213.975 99.596342 
z
" clip-path="url(#p6c301c2eb9)" style="fill: #556b2f; opacity: 0.6; stroke: #000000; stroke-linejoin: miter"/>
   </g>
   <g id="line2d_70">
    <path d="M 219.13371 99.596342 
L 219.13371 126.901016 
" clip-path="url(#p6c301c2eb9)" style="fill: none; stroke-dasharray: 3.7,1.6; stroke-dashoffset: 0; stroke: #000000"/>
   </g>
   <g id="line2d_71">
    <path d="M 219.13371 46.267897 
L 219.13371 38.639594 
" clip-path="url(#p6c301c2eb9)" style="fill: none; stroke-dasharray: 3.7,1.6; stroke-dashoffset: 0; stroke: #000000"/>
   </g>
   <g id="line2d_72">
    <path d="M 216.554355 126.901016 
L 221.713065 126.901016 
" clip-path="url(#p6c301c2eb9)" style="fill: none; stroke: #000000; stroke-linecap: square"/>
   </g>
   <g id="line2d_73">
    <path d="M 216.554355 38.639594 
L 221.713065 38.639594 
" clip-path="url(#p6c301c2eb9)" style="fill: none; stroke: #000000; stroke-linecap: square"/>
   </g>
   <g id="line2d_74"/>
   <g id="patch_16">
    <path d="M 282.757796 81.422212 
L 293.075215 81.422212 
L 293.075215 40.902303 
L 282.757796 40.902303 
L 282.757796 81.422212 
z
" clip-path="url(#p6c301c2eb9)" style="fill: #556b2f; opacity: 0.6; stroke: #000000; stroke-linejoin: miter"/>
   </g>
   <g id="line2d_75">
    <path d="M 287.916505 81.422212 
L 287.916505 126.155767 
" clip-path="url(#p6c301c2eb9)" style="fill: none; stroke-dasharray: 3.7,1.6; stroke-dashoffset: 0; stroke: #000000"/>
   </g>
   <g id="line2d_76">
    <path d="M 287.916505 40.902303 
L 287.916505 30.572515 
" clip-path="url(#p6c301c2eb9)" style="fill: none; stroke-dasharray: 3.7,1.6; stroke-dashoffset: 0; stroke: #000000"/>
   </g>
   <g id="line2d_77">
    <path d="M 285.337151 126.155767 
L 290.49586 126.155767 
" clip-path="url(#p6c301c2eb9)" style="fill: none; stroke: #000000; stroke-linecap: square"/>
   </g>
   <g id="line2d_78">
    <path d="M 285.337151 30.572515 
L 290.49586 30.572515 
" clip-path="url(#p6c301c2eb9)" style="fill: none; stroke: #000000; stroke-linecap: square"/>
   </g>
   <g id="line2d_79"/>
   <g id="patch_17">
    <path d="M 351.540591 101.750896 
L 361.858011 101.750896 
L 361.858011 42.017923 
L 351.540591 42.017923 
L 351.540591 101.750896 
z
" clip-path="url(#p6c301c2eb9)" style="fill: #556b2f; opacity: 0.6; stroke: #000000; stroke-linejoin: miter"/>
   </g>
   <g id="line2d_80">
    <path d="M 356.699301 101.750896 
L 356.699301 125.979255 
" clip-path="url(#p6c301c2eb9)" style="fill: none; stroke-dasharray: 3.7,1.6; stroke-dashoffset: 0; stroke: #000000"/>
   </g>
   <g id="line2d_81">
    <path d="M 356.699301 42.017923 
L 356.699301 31.359542 
" clip-path="url(#p6c301c2eb9)" style="fill: none; stroke-dasharray: 3.7,1.6; stroke-dashoffset: 0; stroke: #000000"/>
   </g>
   <g id="line2d_82">
    <path d="M 354.119946 125.979255 
L 359.278656 125.979255 
" clip-path="url(#p6c301c2eb9)" style="fill: none; stroke: #000000; stroke-linecap: square"/>
   </g>
   <g id="line2d_83">
    <path d="M 354.119946 31.359542 
L 359.278656 31.359542 
" clip-path="url(#p6c301c2eb9)" style="fill: none; stroke: #000000; stroke-linecap: square"/>
   </g>
   <g id="line2d_84"/>
   <g id="patch_18">
    <path d="M 86.726828 111.666387 
L 97.044247 111.666387 
L 97.044247 87.524117 
L 86.726828 87.524117 
L 86.726828 111.666387 
z
" clip-path="url(#p6c301c2eb9)" style="fill: #2ca02c; opacity: 0.6; stroke: #000000; stroke-linejoin: miter"/>
   </g>
   <g id="line2d_85">
    <path d="M 91.885538 111.666387 
L 91.885538 142.119735 
" clip-path="url(#p6c301c2eb9)" style="fill: none; stroke-dasharray: 3.7,1.6; stroke-dashoffset: 0; stroke: #000000"/>
   </g>
   <g id="line2d_86">
    <path d="M 91.885538 87.524117 
L 91.885538 74.056032 
" clip-path="url(#p6c301c2eb9)" style="fill: none; stroke-dasharray: 3.7,1.6; stroke-dashoffset: 0; stroke: #000000"/>
   </g>
   <g id="line2d_87">
    <path d="M 89.306183 142.119735 
L 94.464892 142.119735 
" clip-path="url(#p6c301c2eb9)" style="fill: none; stroke: #000000; stroke-linecap: square"/>
   </g>
   <g id="line2d_88">
    <path d="M 89.306183 74.056032 
L 94.464892 74.056032 
" clip-path="url(#p6c301c2eb9)" style="fill: none; stroke: #000000; stroke-linecap: square"/>
   </g>
   <g id="line2d_89">
    <g clip-path="url(#p6c301c2eb9)">
     <use xlink:href="#mdb82afa2b4" x="91.885538" y="153.063099" style="fill: #808080; stroke: #000000"/>
     <use xlink:href="#mdb82afa2b4" x="91.885538" y="154.122134" style="fill: #808080; stroke: #000000"/>
    </g>
   </g>
   <g id="patch_19">
    <path d="M 155.509624 106.43816 
L 165.827043 106.43816 
L 165.827043 64.019409 
L 155.509624 64.019409 
L 155.509624 106.43816 
z
" clip-path="url(#p6c301c2eb9)" style="fill: #2ca02c; opacity: 0.6; stroke: #000000; stroke-linejoin: miter"/>
   </g>
   <g id="line2d_90">
    <path d="M 160.668333 106.43816 
L 160.668333 155.887204 
" clip-path="url(#p6c301c2eb9)" style="fill: none; stroke-dasharray: 3.7,1.6; stroke-dashoffset: 0; stroke: #000000"/>
   </g>
   <g id="line2d_91">
    <path d="M 160.668333 64.019409 
L 160.668333 41.535869 
" clip-path="url(#p6c301c2eb9)" style="fill: none; stroke-dasharray: 3.7,1.6; stroke-dashoffset: 0; stroke: #000000"/>
   </g>
   <g id="line2d_92">
    <path d="M 158.088978 155.887204 
L 163.247688 155.887204 
" clip-path="url(#p6c301c2eb9)" style="fill: none; stroke: #000000; stroke-linecap: square"/>
   </g>
   <g id="line2d_93">
    <path d="M 158.088978 41.535869 
L 163.247688 41.535869 
" clip-path="url(#p6c301c2eb9)" style="fill: none; stroke: #000000; stroke-linecap: square"/>
   </g>
   <g id="line2d_94"/>
   <g id="patch_20">
    <path d="M 224.292419 82.144534 
L 234.609839 82.144534 
L 234.609839 42.017923 
L 224.292419 42.017923 
L 224.292419 82.144534 
z
" clip-path="url(#p6c301c2eb9)" style="fill: #2ca02c; opacity: 0.6; stroke: #000000; stroke-linejoin: miter"/>
   </g>
   <g id="line2d_95">
    <path d="M 229.451129 82.144534 
L 229.451129 133.804347 
" clip-path="url(#p6c301c2eb9)" style="fill: none; stroke-dasharray: 3.7,1.6; stroke-dashoffset: 0; stroke: #000000"/>
   </g>
   <g id="line2d_96">
    <path d="M 229.451129 42.017923 
L 229.451129 31.162779 
" clip-path="url(#p6c301c2eb9)" style="fill: none; stroke-dasharray: 3.7,1.6; stroke-dashoffset: 0; stroke: #000000"/>
   </g>
   <g id="line2d_97">
    <path d="M 226.871774 133.804347 
L 232.030484 133.804347 
" clip-path="url(#p6c301c2eb9)" style="fill: none; stroke: #000000; stroke-linecap: square"/>
   </g>
   <g id="line2d_98">
    <path d="M 226.871774 31.162779 
L 232.030484 31.162779 
" clip-path="url(#p6c301c2eb9)" style="fill: none; stroke: #000000; stroke-linecap: square"/>
   </g>
   <g id="line2d_99">
    <g clip-path="url(#p6c301c2eb9)">
     <use xlink:href="#mdb82afa2b4" x="229.451129" y="143.37489" style="fill: #808080; stroke: #000000"/>
    </g>
   </g>
   <g id="patch_21">
    <path d="M 293.075215 96.392284 
L 303.392634 96.392284 
L 303.392634 41.728692 
L 293.075215 41.728692 
L 293.075215 96.392284 
z
" clip-path="url(#p6c301c2eb9)" style="fill: #2ca02c; opacity: 0.6; stroke: #000000; stroke-linejoin: miter"/>
   </g>
   <g id="line2d_100">
    <path d="M 298.233925 96.392284 
L 298.233925 136.471548 
" clip-path="url(#p6c301c2eb9)" style="fill: none; stroke-dasharray: 3.7,1.6; stroke-dashoffset: 0; stroke: #000000"/>
   </g>
   <g id="line2d_101">
    <path d="M 298.233925 41.728692 
L 298.233925 31.162779 
" clip-path="url(#p6c301c2eb9)" style="fill: none; stroke-dasharray: 3.7,1.6; stroke-dashoffset: 0; stroke: #000000"/>
   </g>
   <g id="line2d_102">
    <path d="M 295.65457 136.471548 
L 300.81328 136.471548 
" clip-path="url(#p6c301c2eb9)" style="fill: none; stroke: #000000; stroke-linecap: square"/>
   </g>
   <g id="line2d_103">
    <path d="M 295.65457 31.162779 
L 300.81328 31.162779 
" clip-path="url(#p6c301c2eb9)" style="fill: none; stroke: #000000; stroke-linecap: square"/>
   </g>
   <g id="line2d_104"/>
   <g id="patch_22">
    <path d="M 361.858011 116.073504 
L 372.17543 116.073504 
L 372.17543 41.728692 
L 361.858011 41.728692 
L 361.858011 116.073504 
z
" clip-path="url(#p6c301c2eb9)" style="fill: #2ca02c; opacity: 0.6; stroke: #000000; stroke-linejoin: miter"/>
   </g>
   <g id="line2d_105">
    <path d="M 367.01672 116.073504 
L 367.01672 126.822564 
" clip-path="url(#p6c301c2eb9)" style="fill: none; stroke-dasharray: 3.7,1.6; stroke-dashoffset: 0; stroke: #000000"/>
   </g>
   <g id="line2d_106">
    <path d="M 367.01672 41.728692 
L 367.01672 33.13037 
" clip-path="url(#p6c301c2eb9)" style="fill: none; stroke-dasharray: 3.7,1.6; stroke-dashoffset: 0; stroke: #000000"/>
   </g>
   <g id="line2d_107">
    <path d="M 364.437366 126.822564 
L 369.596075 126.822564 
" clip-path="url(#p6c301c2eb9)" style="fill: none; stroke: #000000; stroke-linecap: square"/>
   </g>
   <g id="line2d_108">
    <path d="M 364.437366 33.13037 
L 369.596075 33.13037 
" clip-path="url(#p6c301c2eb9)" style="fill: none; stroke: #000000; stroke-linecap: square"/>
   </g>
   <g id="line2d_109"/>
   <g id="line2d_110">
    <path d="M 54.055 125.606629 
L 373.895 125.606629 
" clip-path="url(#p6c301c2eb9)" style="fill: none; stroke: #000000; stroke-opacity: 0.2; stroke-width: 1.5; stroke-linecap: square"/>
   </g>
   <g id="line2d_111">
    <path d="M 55.77457 76.537151 
L 66.091989 76.537151 
" clip-path="url(#p6c301c2eb9)" style="fill: none; stroke: #000000"/>
   </g>
   <g id="line2d_112">
    <path d="M 124.557366 70.888801 
L 134.874785 70.888801 
" clip-path="url(#p6c301c2eb9)" style="fill: none; stroke: #000000"/>
   </g>
   <g id="line2d_113">
    <path d="M 193.340161 82.237466 
L 203.657581 82.237466 
" clip-path="url(#p6c301c2eb9)" style="fill: none; stroke: #000000"/>
   </g>
   <g id="line2d_114">
    <path d="M 262.122957 87.693538 
L 272.440376 87.693538 
" clip-path="url(#p6c301c2eb9)" style="fill: none; stroke: #000000"/>
   </g>
   <g id="line2d_115">
    <path d="M 330.905753 100.075517 
L 341.223172 100.075517 
" clip-path="url(#p6c301c2eb9)" style="fill: none; stroke: #000000"/>
   </g>
   <g id="line2d_116">
    <path d="M 66.091989 75.048441 
L 76.409409 75.048441 
" clip-path="url(#p6c301c2eb9)" style="fill: none; stroke: #000000"/>
   </g>
   <g id="line2d_117">
    <path d="M 134.874785 80.712898 
L 145.192204 80.712898 
" clip-path="url(#p6c301c2eb9)" style="fill: none; stroke: #000000"/>
   </g>
   <g id="line2d_118">
    <path d="M 203.657581 80.738954 
L 213.975 80.738954 
" clip-path="url(#p6c301c2eb9)" style="fill: none; stroke: #000000"/>
   </g>
   <g id="line2d_119">
    <path d="M 272.440376 88.677198 
L 282.757796 88.677198 
" clip-path="url(#p6c301c2eb9)" style="fill: none; stroke: #000000"/>
   </g>
   <g id="line2d_120">
    <path d="M 341.223172 84.53387 
L 351.540591 84.53387 
" clip-path="url(#p6c301c2eb9)" style="fill: none; stroke: #000000"/>
   </g>
   <g id="line2d_121">
    <path d="M 76.409409 121.376338 
L 86.726828 121.376338 
" clip-path="url(#p6c301c2eb9)" style="fill: none; stroke: #000000"/>
   </g>
   <g id="line2d_122">
    <path d="M 145.192204 99.176637 
L 155.509624 99.176637 
" clip-path="url(#p6c301c2eb9)" style="fill: none; stroke: #000000"/>
   </g>
   <g id="line2d_123">
    <path d="M 213.975 64.077243 
L 224.292419 64.077243 
" clip-path="url(#p6c301c2eb9)" style="fill: none; stroke: #000000"/>
   </g>
   <g id="line2d_124">
    <path d="M 282.757796 47.518055 
L 293.075215 47.518055 
" clip-path="url(#p6c301c2eb9)" style="fill: none; stroke: #000000"/>
   </g>
   <g id="line2d_125">
    <path d="M 351.540591 56.074382 
L 361.858011 56.074382 
" clip-path="url(#p6c301c2eb9)" style="fill: none; stroke: #000000"/>
   </g>
   <g id="line2d_126">
    <path d="M 86.726828 95.975417 
L 97.044247 95.975417 
" clip-path="url(#p6c301c2eb9)" style="fill: none; stroke: #000000"/>
   </g>
   <g id="line2d_127">
    <path d="M 155.509624 77.734141 
L 165.827043 77.734141 
" clip-path="url(#p6c301c2eb9)" style="fill: none; stroke: #000000"/>
   </g>
   <g id="line2d_128">
    <path d="M 224.292419 60.045163 
L 234.609839 60.045163 
" clip-path="url(#p6c301c2eb9)" style="fill: none; stroke: #000000"/>
   </g>
   <g id="line2d_129">
    <path d="M 293.075215 59.312734 
L 303.392634 59.312734 
" clip-path="url(#p6c301c2eb9)" style="fill: none; stroke: #000000"/>
   </g>
   <g id="line2d_130">
    <path d="M 361.858011 62.932619 
L 372.17543 62.932619 
" clip-path="url(#p6c301c2eb9)" style="fill: none; stroke: #000000"/>
   </g>
   <g id="patch_23">
    <path d="M 54.055 164.1712 
L 54.055 29.1952 
" style="fill: none; stroke: #000000; stroke-width: 0.8; stroke-linejoin: miter; stroke-linecap: square"/>
   </g>
   <g id="patch_24">
    <path d="M 54.055 164.1712 
L 373.895 164.1712 
" style="fill: none; stroke: #000000; stroke-width: 0.8; stroke-linejoin: miter; stroke-linecap: square"/>
   </g>
   <g id="legend_1">
    <g id="patch_25">
     <path d="M 9.2 24.878125 
L 418.75 24.878125 
Q 420.75 24.878125 420.75 22.878125 
L 420.75 9.2 
Q 420.75 7.2 418.75 7.2 
L 9.2 7.2 
Q 7.2 7.2 7.2 9.2 
L 7.2 22.878125 
Q 7.2 24.878125 9.2 24.878125 
z
" style="fill: #ffffff; opacity: 0.8; stroke: #cccccc; stroke-linejoin: miter"/>
    </g>
    <g id="patch_26">
     <path d="M 11.2 18.798438 
L 31.2 18.798438 
L 31.2 11.798438 
L 11.2 11.798438 
z
" style="fill: #1e3d8f; opacity: 0.6"/>
    </g>
    <g id="text_12">
     <!-- TopK 0.1 Const -->
     <g transform="translate(39.2 18.798438) scale(0.1 -0.1)">
      <defs>
       <path id="DejaVuSans-54" d="M -19 4666 
L 3928 4666 
L 3928 4134 
L 2272 4134 
L 2272 0 
L 1638 0 
L 1638 4134 
L -19 4134 
L -19 4666 
z
" transform="scale(0.015625)"/>
       <path id="DejaVuSans-6f" d="M 1959 3097 
Q 1497 3097 1228 2736 
Q 959 2375 959 1747 
Q 959 1119 1226 758 
Q 1494 397 1959 397 
Q 2419 397 2687 759 
Q 2956 1122 2956 1747 
Q 2956 2369 2687 2733 
Q 2419 3097 1959 3097 
z
M 1959 3584 
Q 2709 3584 3137 3096 
Q 3566 2609 3566 1747 
Q 3566 888 3137 398 
Q 2709 -91 1959 -91 
Q 1206 -91 779 398 
Q 353 888 353 1747 
Q 353 2609 779 3096 
Q 1206 3584 1959 3584 
z
" transform="scale(0.015625)"/>
       <path id="DejaVuSans-70" d="M 1159 525 
L 1159 -1331 
L 581 -1331 
L 581 3500 
L 1159 3500 
L 1159 2969 
Q 1341 3281 1617 3432 
Q 1894 3584 2278 3584 
Q 2916 3584 3314 3078 
Q 3713 2572 3713 1747 
Q 3713 922 3314 415 
Q 2916 -91 2278 -91 
Q 1894 -91 1617 61 
Q 1341 213 1159 525 
z
M 3116 1747 
Q 3116 2381 2855 2742 
Q 2594 3103 2138 3103 
Q 1681 3103 1420 2742 
Q 1159 2381 1159 1747 
Q 1159 1113 1420 752 
Q 1681 391 2138 391 
Q 2594 391 2855 752 
Q 3116 1113 3116 1747 
z
" transform="scale(0.015625)"/>
       <path id="DejaVuSans-4b" d="M 628 4666 
L 1259 4666 
L 1259 2694 
L 3353 4666 
L 4166 4666 
L 1850 2491 
L 4331 0 
L 3500 0 
L 1259 2247 
L 1259 0 
L 628 0 
L 628 4666 
z
" transform="scale(0.015625)"/>
       <path id="DejaVuSans-43" d="M 4122 4306 
L 4122 3641 
Q 3803 3938 3442 4084 
Q 3081 4231 2675 4231 
Q 1875 4231 1450 3742 
Q 1025 3253 1025 2328 
Q 1025 1406 1450 917 
Q 1875 428 2675 428 
Q 3081 428 3442 575 
Q 3803 722 4122 1019 
L 4122 359 
Q 3791 134 3420 21 
Q 3050 -91 2638 -91 
Q 1578 -91 968 557 
Q 359 1206 359 2328 
Q 359 3453 968 4101 
Q 1578 4750 2638 4750 
Q 3056 4750 3426 4639 
Q 3797 4528 4122 4306 
z
" transform="scale(0.015625)"/>
       <path id="DejaVuSans-73" d="M 2834 3397 
L 2834 2853 
Q 2591 2978 2328 3040 
Q 2066 3103 1784 3103 
Q 1356 3103 1142 2972 
Q 928 2841 928 2578 
Q 928 2378 1081 2264 
Q 1234 2150 1697 2047 
L 1894 2003 
Q 2506 1872 2764 1633 
Q 3022 1394 3022 966 
Q 3022 478 2636 193 
Q 2250 -91 1575 -91 
Q 1294 -91 989 -36 
Q 684 19 347 128 
L 347 722 
Q 666 556 975 473 
Q 1284 391 1588 391 
Q 1994 391 2212 530 
Q 2431 669 2431 922 
Q 2431 1156 2273 1281 
Q 2116 1406 1581 1522 
L 1381 1569 
Q 847 1681 609 1914 
Q 372 2147 372 2553 
Q 372 3047 722 3315 
Q 1072 3584 1716 3584 
Q 2034 3584 2315 3537 
Q 2597 3491 2834 3397 
z
" transform="scale(0.015625)"/>
      </defs>
      <use xlink:href="#DejaVuSans-54"/>
      <use xlink:href="#DejaVuSans-6f" x="44.083984"/>
      <use xlink:href="#DejaVuSans-70" x="105.265625"/>
      <use xlink:href="#DejaVuSans-4b" x="168.742188"/>
      <use xlink:href="#DejaVuSans-20" x="234.318359"/>
      <use xlink:href="#DejaVuSans-30" x="266.105469"/>
      <use xlink:href="#DejaVuSans-2e" x="329.728516"/>
      <use xlink:href="#DejaVuSans-31" x="361.515625"/>
      <use xlink:href="#DejaVuSans-20" x="425.138672"/>
      <use xlink:href="#DejaVuSans-43" x="456.925781"/>
      <use xlink:href="#DejaVuSans-6f" x="526.75"/>
      <use xlink:href="#DejaVuSans-6e" x="587.931641"/>
      <use xlink:href="#DejaVuSans-73" x="651.310547"/>
      <use xlink:href="#DejaVuSans-74" x="703.410156"/>
     </g>
    </g>
    <g id="patch_27">
     <path d="M 133.460938 18.798438 
L 153.460938 18.798438 
L 153.460938 11.798438 
L 133.460938 11.798438 
z
" style="fill: #1f77b4; opacity: 0.6"/>
    </g>
    <g id="text_13">
     <!-- TopK 0.1 -->
     <g transform="translate(161.460938 18.798438) scale(0.1 -0.1)">
      <use xlink:href="#DejaVuSans-54"/>
      <use xlink:href="#DejaVuSans-6f" x="44.083984"/>
      <use xlink:href="#DejaVuSans-70" x="105.265625"/>
      <use xlink:href="#DejaVuSans-4b" x="168.742188"/>
      <use xlink:href="#DejaVuSans-20" x="234.318359"/>
      <use xlink:href="#DejaVuSans-30" x="266.105469"/>
      <use xlink:href="#DejaVuSans-2e" x="329.728516"/>
      <use xlink:href="#DejaVuSans-31" x="361.515625"/>
     </g>
    </g>
    <g id="patch_28">
     <path d="M 223.975 18.798438 
L 243.975 18.798438 
L 243.975 11.798438 
L 223.975 11.798438 
z
" style="fill: #556b2f; opacity: 0.6"/>
    </g>
    <g id="text_14">
     <!-- TopK 0.5 Const -->
     <g transform="translate(251.975 18.798438) scale(0.1 -0.1)">
      <use xlink:href="#DejaVuSans-54"/>
      <use xlink:href="#DejaVuSans-6f" x="44.083984"/>
      <use xlink:href="#DejaVuSans-70" x="105.265625"/>
      <use xlink:href="#DejaVuSans-4b" x="168.742188"/>
      <use xlink:href="#DejaVuSans-20" x="234.318359"/>
      <use xlink:href="#DejaVuSans-30" x="266.105469"/>
      <use xlink:href="#DejaVuSans-2e" x="329.728516"/>
      <use xlink:href="#DejaVuSans-35" x="361.515625"/>
      <use xlink:href="#DejaVuSans-20" x="425.138672"/>
      <use xlink:href="#DejaVuSans-43" x="456.925781"/>
      <use xlink:href="#DejaVuSans-6f" x="526.75"/>
      <use xlink:href="#DejaVuSans-6e" x="587.931641"/>
      <use xlink:href="#DejaVuSans-73" x="651.310547"/>
      <use xlink:href="#DejaVuSans-74" x="703.410156"/>
     </g>
    </g>
    <g id="patch_29">
     <path d="M 346.235937 18.798438 
L 366.235937 18.798438 
L 366.235937 11.798438 
L 346.235937 11.798438 
z
" style="fill: #2ca02c; opacity: 0.6"/>
    </g>
    <g id="text_15">
     <!-- TopK 0.5 -->
     <g transform="translate(374.235937 18.798438) scale(0.1 -0.1)">
      <use xlink:href="#DejaVuSans-54"/>
      <use xlink:href="#DejaVuSans-6f" x="44.083984"/>
      <use xlink:href="#DejaVuSans-70" x="105.265625"/>
      <use xlink:href="#DejaVuSans-4b" x="168.742188"/>
      <use xlink:href="#DejaVuSans-20" x="234.318359"/>
      <use xlink:href="#DejaVuSans-30" x="266.105469"/>
      <use xlink:href="#DejaVuSans-2e" x="329.728516"/>
      <use xlink:href="#DejaVuSans-35" x="361.515625"/>
     </g>
    </g>
   </g>
  </g>
 </g>
 <defs>
  <clipPath id="p6c301c2eb9">
   <rect x="54.055" y="29.1952" width="319.84" height="134.976"/>
  </clipPath>
 </defs>
</svg>
