<?xml version="1.0" encoding="utf-8" standalone="no"?>
<!DOCTYPE svg PUBLIC "-//W3C//DTD SVG 1.1//EN"
  "http://www.w3.org/Graphics/SVG/1.1/DTD/svg11.dtd">
<svg xmlns:xlink="http://www.w3.org/1999/xlink" width="424.52375pt" height="208.042006pt" viewBox="0 0 424.52375 208.042006" xmlns="http://www.w3.org/2000/svg" version="1.1">
 <metadata>
  <rdf:RDF xmlns:dc="http://purl.org/dc/elements/1.1/" xmlns:cc="http://creativecommons.org/ns#" xmlns:rdf="http://www.w3.org/1999/02/22-rdf-syntax-ns#">
   <cc:Work>
    <dc:type rdf:resource="http://purl.org/dc/dcmitype/StillImage"/>
    <dc:date>2025-02-12T19:28:58.604200</dc:date>
    <dc:format>image/svg+xml</dc:format>
    <dc:creator>
     <cc:Agent>
      <dc:title>Matplotlib v3.9.2, https://matplotlib.org/</dc:title>
     </cc:Agent>
    </dc:creator>
   </cc:Work>
  </rdf:RDF>
 </metadata>
 <defs>
  <style type="text/css">*{stroke-linejoin: round; stroke-linecap: butt}</style>
 </defs>
 <g id="figure_1">
  <g id="patch_1">
   <path d="M 0 208.042006 
L 424.52375 208.042006 
L 424.52375 0 
L 0 0 
z
" style="fill: #ffffff"/>
  </g>
  <g id="axes_1">
   <g id="patch_2">
    <path d="M 50.14375 157.576238 
L 417.32375 157.576238 
L 417.32375 10.999219 
L 50.14375 10.999219 
z
" style="fill: #ffffff"/>
   </g>
   <g id="patch_3">
    <path d="M 66.83375 157.576238 
L 77.718533 157.576238 
L 77.718533 98.14858 
L 66.83375 98.14858 
z
" clip-path="url(#p632c6e038c)" style="fill: #1f77b4"/>
   </g>
   <g id="patch_4">
    <path d="M 139.398967 157.576238 
L 150.28375 157.576238 
L 150.28375 92.279345 
L 139.398967 92.279345 
z
" clip-path="url(#p632c6e038c)" style="fill: #1f77b4"/>
   </g>
   <g id="patch_5">
    <path d="M 211.964185 157.576238 
L 222.848967 157.576238 
L 222.848967 99.637206 
L 211.964185 99.637206 
z
" clip-path="url(#p632c6e038c)" style="fill: #1f77b4"/>
   </g>
   <g id="patch_6">
    <path d="M 284.529402 157.576238 
L 295.414185 157.576238 
L 295.414185 106.088516 
L 284.529402 106.088516 
z
" clip-path="url(#p632c6e038c)" style="fill: #1f77b4"/>
   </g>
   <g id="patch_7">
    <path d="M 357.09462 157.576238 
L 367.979402 157.576238 
L 367.979402 103.926919 
L 357.09462 103.926919 
z
" clip-path="url(#p632c6e038c)" style="fill: #1f77b4"/>
   </g>
   <g id="patch_8">
    <path d="M 77.718533 157.576238 
L 88.603315 157.576238 
L 88.603315 122.840389 
L 77.718533 122.840389 
z
" clip-path="url(#p632c6e038c)" style="fill: #ff7f0e"/>
   </g>
   <g id="patch_9">
    <path d="M 150.28375 157.576238 
L 161.168533 157.576238 
L 161.168533 93.746858 
L 150.28375 93.746858 
z
" clip-path="url(#p632c6e038c)" style="fill: #ff7f0e"/>
   </g>
   <g id="patch_10">
    <path d="M 222.848967 157.576238 
L 233.73375 157.576238 
L 233.73375 91.010234 
L 222.848967 91.010234 
z
" clip-path="url(#p632c6e038c)" style="fill: #ff7f0e"/>
   </g>
   <g id="patch_11">
    <path d="M 295.414185 157.576238 
L 306.298967 157.576238 
L 306.298967 101.613576 
L 295.414185 101.613576 
z
" clip-path="url(#p632c6e038c)" style="fill: #ff7f0e"/>
   </g>
   <g id="patch_12">
    <path d="M 367.979402 157.576238 
L 378.864185 157.576238 
L 378.864185 122.805896 
L 367.979402 122.805896 
z
" clip-path="url(#p632c6e038c)" style="fill: #ff7f0e"/>
   </g>
   <g id="patch_13">
    <path d="M 88.603315 157.576238 
L 99.488098 157.576238 
L 99.488098 130.183289 
L 88.603315 130.183289 
z
" clip-path="url(#p632c6e038c)" style="fill: #2ca02c"/>
   </g>
   <g id="patch_14">
    <path d="M 161.168533 157.576238 
L 172.053315 157.576238 
L 172.053315 110.334461 
L 161.168533 110.334461 
z
" clip-path="url(#p632c6e038c)" style="fill: #2ca02c"/>
   </g>
   <g id="patch_15">
    <path d="M 233.73375 157.576238 
L 244.618533 157.576238 
L 244.618533 89.30812 
L 233.73375 89.30812 
z
" clip-path="url(#p632c6e038c)" style="fill: #2ca02c"/>
   </g>
   <g id="patch_16">
    <path d="M 306.298967 157.576238 
L 317.18375 157.576238 
L 317.18375 90.111387 
L 306.298967 90.111387 
z
" clip-path="url(#p632c6e038c)" style="fill: #2ca02c"/>
   </g>
   <g id="patch_17">
    <path d="M 378.864185 157.576238 
L 389.748967 157.576238 
L 389.748967 92.507866 
L 378.864185 92.507866 
z
" clip-path="url(#p632c6e038c)" style="fill: #2ca02c"/>
   </g>
   <g id="patch_18">
    <path d="M 99.488098 157.576238 
L 110.37288 157.576238 
L 110.37288 156.666833 
L 99.488098 156.666833 
z
" clip-path="url(#p632c6e038c)" style="fill: #d62728"/>
   </g>
   <g id="patch_19">
    <path d="M 172.053315 157.576238 
L 182.938098 157.576238 
L 182.938098 138.76957 
L 172.053315 138.76957 
z
" clip-path="url(#p632c6e038c)" style="fill: #d62728"/>
   </g>
   <g id="patch_20">
    <path d="M 244.618533 157.576238 
L 255.503315 157.576238 
L 255.503315 128.896208 
L 244.618533 128.896208 
z
" clip-path="url(#p632c6e038c)" style="fill: #d62728"/>
   </g>
   <g id="patch_21">
    <path d="M 317.18375 157.576238 
L 328.068533 157.576238 
L 328.068533 121.608204 
L 317.18375 121.608204 
z
" clip-path="url(#p632c6e038c)" style="fill: #d62728"/>
   </g>
   <g id="patch_22">
    <path d="M 389.748967 157.576238 
L 400.63375 157.576238 
L 400.63375 115.879372 
L 389.748967 115.879372 
z
" clip-path="url(#p632c6e038c)" style="fill: #d62728"/>
   </g>
   <g id="matplotlib.axis_1">
    <g id="xtick_1">
     <g id="line2d_1">
      <defs>
       <path id="m6d9a4afd0e" d="M 0 0 
L 0 3.5 
" style="stroke: #000000; stroke-width: 0.8"/>
      </defs>
      <g>
       <use xlink:href="#m6d9a4afd0e" x="88.603315" y="157.576238" style="stroke: #000000; stroke-width: 0.8"/>
      </g>
     </g>
     <g id="text_1">
      <!-- 0.10 -->
      <g transform="translate(82.682401 185.693319) rotate(-45) scale(0.1 -0.1)">
       <defs>
        <path id="DejaVuSans-30" d="M 2034 4250 
Q 1547 4250 1301 3770 
Q 1056 3291 1056 2328 
Q 1056 1369 1301 889 
Q 1547 409 2034 409 
Q 2525 409 2770 889 
Q 3016 1369 3016 2328 
Q 3016 3291 2770 3770 
Q 2525 4250 2034 4250 
z
M 2034 4750 
Q 2819 4750 3233 4129 
Q 3647 3509 3647 2328 
Q 3647 1150 3233 529 
Q 2819 -91 2034 -91 
Q 1250 -91 836 529 
Q 422 1150 422 2328 
Q 422 3509 836 4129 
Q 1250 4750 2034 4750 
z
" transform="scale(0.015625)"/>
        <path id="DejaVuSans-2e" d="M 684 794 
L 1344 794 
L 1344 0 
L 684 0 
L 684 794 
z
" transform="scale(0.015625)"/>
        <path id="DejaVuSans-31" d="M 794 531 
L 1825 531 
L 1825 4091 
L 703 3866 
L 703 4441 
L 1819 4666 
L 2450 4666 
L 2450 531 
L 3481 531 
L 3481 0 
L 794 0 
L 794 531 
z
" transform="scale(0.015625)"/>
       </defs>
       <use xlink:href="#DejaVuSans-30"/>
       <use xlink:href="#DejaVuSans-2e" x="63.623047"/>
       <use xlink:href="#DejaVuSans-31" x="95.410156"/>
       <use xlink:href="#DejaVuSans-30" x="159.033203"/>
      </g>
     </g>
    </g>
    <g id="xtick_2">
     <g id="line2d_2">
      <g>
       <use xlink:href="#m6d9a4afd0e" x="161.168533" y="157.576238" style="stroke: #000000; stroke-width: 0.8"/>
      </g>
     </g>
     <g id="text_2">
      <!-- 0.25 -->
      <g transform="translate(155.247618 185.693319) rotate(-45) scale(0.1 -0.1)">
       <defs>
        <path id="DejaVuSans-32" d="M 1228 531 
L 3431 531 
L 3431 0 
L 469 0 
L 469 531 
Q 828 903 1448 1529 
Q 2069 2156 2228 2338 
Q 2531 2678 2651 2914 
Q 2772 3150 2772 3378 
Q 2772 3750 2511 3984 
Q 2250 4219 1831 4219 
Q 1534 4219 1204 4116 
Q 875 4013 500 3803 
L 500 4441 
Q 881 4594 1212 4672 
Q 1544 4750 1819 4750 
Q 2544 4750 2975 4387 
Q 3406 4025 3406 3419 
Q 3406 3131 3298 2873 
Q 3191 2616 2906 2266 
Q 2828 2175 2409 1742 
Q 1991 1309 1228 531 
z
" transform="scale(0.015625)"/>
        <path id="DejaVuSans-35" d="M 691 4666 
L 3169 4666 
L 3169 4134 
L 1269 4134 
L 1269 2991 
Q 1406 3038 1543 3061 
Q 1681 3084 1819 3084 
Q 2600 3084 3056 2656 
Q 3513 2228 3513 1497 
Q 3513 744 3044 326 
Q 2575 -91 1722 -91 
Q 1428 -91 1123 -41 
Q 819 9 494 109 
L 494 744 
Q 775 591 1075 516 
Q 1375 441 1709 441 
Q 2250 441 2565 725 
Q 2881 1009 2881 1497 
Q 2881 1984 2565 2268 
Q 2250 2553 1709 2553 
Q 1456 2553 1204 2497 
Q 953 2441 691 2322 
L 691 4666 
z
" transform="scale(0.015625)"/>
       </defs>
       <use xlink:href="#DejaVuSans-30"/>
       <use xlink:href="#DejaVuSans-2e" x="63.623047"/>
       <use xlink:href="#DejaVuSans-32" x="95.410156"/>
       <use xlink:href="#DejaVuSans-35" x="159.033203"/>
      </g>
     </g>
    </g>
    <g id="xtick_3">
     <g id="line2d_3">
      <g>
       <use xlink:href="#m6d9a4afd0e" x="233.73375" y="157.576238" style="stroke: #000000; stroke-width: 0.8"/>
      </g>
     </g>
     <g id="text_3">
      <!-- 0.50 -->
      <g transform="translate(227.812836 185.693319) rotate(-45) scale(0.1 -0.1)">
       <use xlink:href="#DejaVuSans-30"/>
       <use xlink:href="#DejaVuSans-2e" x="63.623047"/>
       <use xlink:href="#DejaVuSans-35" x="95.410156"/>
       <use xlink:href="#DejaVuSans-30" x="159.033203"/>
      </g>
     </g>
    </g>
    <g id="xtick_4">
     <g id="line2d_4">
      <g>
       <use xlink:href="#m6d9a4afd0e" x="306.298967" y="157.576238" style="stroke: #000000; stroke-width: 0.8"/>
      </g>
     </g>
     <g id="text_4">
      <!-- 0.75 -->
      <g transform="translate(300.378053 185.693319) rotate(-45) scale(0.1 -0.1)">
       <defs>
        <path id="DejaVuSans-37" d="M 525 4666 
L 3525 4666 
L 3525 4397 
L 1831 0 
L 1172 0 
L 2766 4134 
L 525 4134 
L 525 4666 
z
" transform="scale(0.015625)"/>
       </defs>
       <use xlink:href="#DejaVuSans-30"/>
       <use xlink:href="#DejaVuSans-2e" x="63.623047"/>
       <use xlink:href="#DejaVuSans-37" x="95.410156"/>
       <use xlink:href="#DejaVuSans-35" x="159.033203"/>
      </g>
     </g>
    </g>
    <g id="xtick_5">
     <g id="line2d_5">
      <g>
       <use xlink:href="#m6d9a4afd0e" x="378.864185" y="157.576238" style="stroke: #000000; stroke-width: 0.8"/>
      </g>
     </g>
     <g id="text_5">
      <!-- 1.00 -->
      <g transform="translate(372.94327 185.693319) rotate(-45) scale(0.1 -0.1)">
       <use xlink:href="#DejaVuSans-31"/>
       <use xlink:href="#DejaVuSans-2e" x="63.623047"/>
       <use xlink:href="#DejaVuSans-30" x="95.410156"/>
       <use xlink:href="#DejaVuSans-30" x="159.033203"/>
      </g>
     </g>
    </g>
    <g id="text_6">
     <!-- Mix Rate -->
     <g transform="translate(212.019688 198.762318) scale(0.1 -0.1)">
      <defs>
       <path id="DejaVuSans-4d" d="M 628 4666 
L 1569 4666 
L 2759 1491 
L 3956 4666 
L 4897 4666 
L 4897 0 
L 4281 0 
L 4281 4097 
L 3078 897 
L 2444 897 
L 1241 4097 
L 1241 0 
L 628 0 
L 628 4666 
z
" transform="scale(0.015625)"/>
       <path id="DejaVuSans-69" d="M 603 3500 
L 1178 3500 
L 1178 0 
L 603 0 
L 603 3500 
z
M 603 4863 
L 1178 4863 
L 1178 4134 
L 603 4134 
L 603 4863 
z
" transform="scale(0.015625)"/>
       <path id="DejaVuSans-78" d="M 3513 3500 
L 2247 1797 
L 3578 0 
L 2900 0 
L 1881 1375 
L 863 0 
L 184 0 
L 1544 1831 
L 300 3500 
L 978 3500 
L 1906 2253 
L 2834 3500 
L 3513 3500 
z
" transform="scale(0.015625)"/>
       <path id="DejaVuSans-20" transform="scale(0.015625)"/>
       <path id="DejaVuSans-52" d="M 2841 2188 
Q 3044 2119 3236 1894 
Q 3428 1669 3622 1275 
L 4263 0 
L 3584 0 
L 2988 1197 
Q 2756 1666 2539 1819 
Q 2322 1972 1947 1972 
L 1259 1972 
L 1259 0 
L 628 0 
L 628 4666 
L 2053 4666 
Q 2853 4666 3247 4331 
Q 3641 3997 3641 3322 
Q 3641 2881 3436 2590 
Q 3231 2300 2841 2188 
z
M 1259 4147 
L 1259 2491 
L 2053 2491 
Q 2509 2491 2742 2702 
Q 2975 2913 2975 3322 
Q 2975 3731 2742 3939 
Q 2509 4147 2053 4147 
L 1259 4147 
z
" transform="scale(0.015625)"/>
       <path id="DejaVuSans-61" d="M 2194 1759 
Q 1497 1759 1228 1600 
Q 959 1441 959 1056 
Q 959 750 1161 570 
Q 1363 391 1709 391 
Q 2188 391 2477 730 
Q 2766 1069 2766 1631 
L 2766 1759 
L 2194 1759 
z
M 3341 1997 
L 3341 0 
L 2766 0 
L 2766 531 
Q 2569 213 2275 61 
Q 1981 -91 1556 -91 
Q 1019 -91 701 211 
Q 384 513 384 1019 
Q 384 1609 779 1909 
Q 1175 2209 1959 2209 
L 2766 2209 
L 2766 2266 
Q 2766 2663 2505 2880 
Q 2244 3097 1772 3097 
Q 1472 3097 1187 3025 
Q 903 2953 641 2809 
L 641 3341 
Q 956 3463 1253 3523 
Q 1550 3584 1831 3584 
Q 2591 3584 2966 3190 
Q 3341 2797 3341 1997 
z
" transform="scale(0.015625)"/>
       <path id="DejaVuSans-74" d="M 1172 4494 
L 1172 3500 
L 2356 3500 
L 2356 3053 
L 1172 3053 
L 1172 1153 
Q 1172 725 1289 603 
Q 1406 481 1766 481 
L 2356 481 
L 2356 0 
L 1766 0 
Q 1100 0 847 248 
Q 594 497 594 1153 
L 594 3053 
L 172 3053 
L 172 3500 
L 594 3500 
L 594 4494 
L 1172 4494 
z
" transform="scale(0.015625)"/>
       <path id="DejaVuSans-65" d="M 3597 1894 
L 3597 1613 
L 953 1613 
Q 991 1019 1311 708 
Q 1631 397 2203 397 
Q 2534 397 2845 478 
Q 3156 559 3463 722 
L 3463 178 
Q 3153 47 2828 -22 
Q 2503 -91 2169 -91 
Q 1331 -91 842 396 
Q 353 884 353 1716 
Q 353 2575 817 3079 
Q 1281 3584 2069 3584 
Q 2775 3584 3186 3129 
Q 3597 2675 3597 1894 
z
M 3022 2063 
Q 3016 2534 2758 2815 
Q 2500 3097 2075 3097 
Q 1594 3097 1305 2825 
Q 1016 2553 972 2059 
L 3022 2063 
z
" transform="scale(0.015625)"/>
      </defs>
      <use xlink:href="#DejaVuSans-4d"/>
      <use xlink:href="#DejaVuSans-69" x="86.279297"/>
      <use xlink:href="#DejaVuSans-78" x="114.0625"/>
      <use xlink:href="#DejaVuSans-20" x="173.242188"/>
      <use xlink:href="#DejaVuSans-52" x="205.029297"/>
      <use xlink:href="#DejaVuSans-61" x="272.261719"/>
      <use xlink:href="#DejaVuSans-74" x="333.541016"/>
      <use xlink:href="#DejaVuSans-65" x="372.75"/>
     </g>
    </g>
   </g>
   <g id="matplotlib.axis_2">
    <g id="ytick_1">
     <g id="line2d_6">
      <defs>
       <path id="m54cb4c08fe" d="M 0 0 
L -3.5 0 
" style="stroke: #000000; stroke-width: 0.8"/>
      </defs>
      <g>
       <use xlink:href="#m54cb4c08fe" x="50.14375" y="157.576238" style="stroke: #000000; stroke-width: 0.8"/>
      </g>
     </g>
     <g id="text_7">
      <!-- 0.00 -->
      <g transform="translate(20.878125 161.375457) scale(0.1 -0.1)">
       <use xlink:href="#DejaVuSans-30"/>
       <use xlink:href="#DejaVuSans-2e" x="63.623047"/>
       <use xlink:href="#DejaVuSans-30" x="95.410156"/>
       <use xlink:href="#DejaVuSans-30" x="159.033203"/>
      </g>
     </g>
    </g>
    <g id="ytick_2">
     <g id="line2d_7">
      <g>
       <use xlink:href="#m54cb4c08fe" x="50.14375" y="133.146735" style="stroke: #000000; stroke-width: 0.8"/>
      </g>
     </g>
     <g id="text_8">
      <!-- 0.05 -->
      <g transform="translate(20.878125 136.945954) scale(0.1 -0.1)">
       <use xlink:href="#DejaVuSans-30"/>
       <use xlink:href="#DejaVuSans-2e" x="63.623047"/>
       <use xlink:href="#DejaVuSans-30" x="95.410156"/>
       <use xlink:href="#DejaVuSans-35" x="159.033203"/>
      </g>
     </g>
    </g>
    <g id="ytick_3">
     <g id="line2d_8">
      <g>
       <use xlink:href="#m54cb4c08fe" x="50.14375" y="108.717232" style="stroke: #000000; stroke-width: 0.8"/>
      </g>
     </g>
     <g id="text_9">
      <!-- 0.10 -->
      <g transform="translate(20.878125 112.516451) scale(0.1 -0.1)">
       <use xlink:href="#DejaVuSans-30"/>
       <use xlink:href="#DejaVuSans-2e" x="63.623047"/>
       <use xlink:href="#DejaVuSans-31" x="95.410156"/>
       <use xlink:href="#DejaVuSans-30" x="159.033203"/>
      </g>
     </g>
    </g>
    <g id="ytick_4">
     <g id="line2d_9">
      <g>
       <use xlink:href="#m54cb4c08fe" x="50.14375" y="84.287729" style="stroke: #000000; stroke-width: 0.8"/>
      </g>
     </g>
     <g id="text_10">
      <!-- 0.15 -->
      <g transform="translate(20.878125 88.086947) scale(0.1 -0.1)">
       <use xlink:href="#DejaVuSans-30"/>
       <use xlink:href="#DejaVuSans-2e" x="63.623047"/>
       <use xlink:href="#DejaVuSans-31" x="95.410156"/>
       <use xlink:href="#DejaVuSans-35" x="159.033203"/>
      </g>
     </g>
    </g>
    <g id="ytick_5">
     <g id="line2d_10">
      <g>
       <use xlink:href="#m54cb4c08fe" x="50.14375" y="59.858225" style="stroke: #000000; stroke-width: 0.8"/>
      </g>
     </g>
     <g id="text_11">
      <!-- 0.20 -->
      <g transform="translate(20.878125 63.657444) scale(0.1 -0.1)">
       <use xlink:href="#DejaVuSans-30"/>
       <use xlink:href="#DejaVuSans-2e" x="63.623047"/>
       <use xlink:href="#DejaVuSans-32" x="95.410156"/>
       <use xlink:href="#DejaVuSans-30" x="159.033203"/>
      </g>
     </g>
    </g>
    <g id="ytick_6">
     <g id="line2d_11">
      <g>
       <use xlink:href="#m54cb4c08fe" x="50.14375" y="35.428722" style="stroke: #000000; stroke-width: 0.8"/>
      </g>
     </g>
     <g id="text_12">
      <!-- 0.25 -->
      <g transform="translate(20.878125 39.227941) scale(0.1 -0.1)">
       <use xlink:href="#DejaVuSans-30"/>
       <use xlink:href="#DejaVuSans-2e" x="63.623047"/>
       <use xlink:href="#DejaVuSans-32" x="95.410156"/>
       <use xlink:href="#DejaVuSans-35" x="159.033203"/>
      </g>
     </g>
    </g>
    <g id="ytick_7">
     <g id="line2d_12">
      <g>
       <use xlink:href="#m54cb4c08fe" x="50.14375" y="10.999219" style="stroke: #000000; stroke-width: 0.8"/>
      </g>
     </g>
     <g id="text_13">
      <!-- 0.30 -->
      <g transform="translate(20.878125 14.798437) scale(0.1 -0.1)">
       <defs>
        <path id="DejaVuSans-33" d="M 2597 2516 
Q 3050 2419 3304 2112 
Q 3559 1806 3559 1356 
Q 3559 666 3084 287 
Q 2609 -91 1734 -91 
Q 1441 -91 1130 -33 
Q 819 25 488 141 
L 488 750 
Q 750 597 1062 519 
Q 1375 441 1716 441 
Q 2309 441 2620 675 
Q 2931 909 2931 1356 
Q 2931 1769 2642 2001 
Q 2353 2234 1838 2234 
L 1294 2234 
L 1294 2753 
L 1863 2753 
Q 2328 2753 2575 2939 
Q 2822 3125 2822 3475 
Q 2822 3834 2567 4026 
Q 2313 4219 1838 4219 
Q 1578 4219 1281 4162 
Q 984 4106 628 3988 
L 628 4550 
Q 988 4650 1302 4700 
Q 1616 4750 1894 4750 
Q 2613 4750 3031 4423 
Q 3450 4097 3450 3541 
Q 3450 3153 3228 2886 
Q 3006 2619 2597 2516 
z
" transform="scale(0.015625)"/>
       </defs>
       <use xlink:href="#DejaVuSans-30"/>
       <use xlink:href="#DejaVuSans-2e" x="63.623047"/>
       <use xlink:href="#DejaVuSans-33" x="95.410156"/>
       <use xlink:href="#DejaVuSans-30" x="159.033203"/>
      </g>
     </g>
    </g>
    <g id="text_14">
     <!-- Multi-Label Acc Gain -->
     <g transform="translate(14.798438 135.308041) rotate(-90) scale(0.1 -0.1)">
      <defs>
       <path id="DejaVuSans-75" d="M 544 1381 
L 544 3500 
L 1119 3500 
L 1119 1403 
Q 1119 906 1312 657 
Q 1506 409 1894 409 
Q 2359 409 2629 706 
Q 2900 1003 2900 1516 
L 2900 3500 
L 3475 3500 
L 3475 0 
L 2900 0 
L 2900 538 
Q 2691 219 2414 64 
Q 2138 -91 1772 -91 
Q 1169 -91 856 284 
Q 544 659 544 1381 
z
M 1991 3584 
L 1991 3584 
z
" transform="scale(0.015625)"/>
       <path id="DejaVuSans-6c" d="M 603 4863 
L 1178 4863 
L 1178 0 
L 603 0 
L 603 4863 
z
" transform="scale(0.015625)"/>
       <path id="DejaVuSans-2d" d="M 313 2009 
L 1997 2009 
L 1997 1497 
L 313 1497 
L 313 2009 
z
" transform="scale(0.015625)"/>
       <path id="DejaVuSans-4c" d="M 628 4666 
L 1259 4666 
L 1259 531 
L 3531 531 
L 3531 0 
L 628 0 
L 628 4666 
z
" transform="scale(0.015625)"/>
       <path id="DejaVuSans-62" d="M 3116 1747 
Q 3116 2381 2855 2742 
Q 2594 3103 2138 3103 
Q 1681 3103 1420 2742 
Q 1159 2381 1159 1747 
Q 1159 1113 1420 752 
Q 1681 391 2138 391 
Q 2594 391 2855 752 
Q 3116 1113 3116 1747 
z
M 1159 2969 
Q 1341 3281 1617 3432 
Q 1894 3584 2278 3584 
Q 2916 3584 3314 3078 
Q 3713 2572 3713 1747 
Q 3713 922 3314 415 
Q 2916 -91 2278 -91 
Q 1894 -91 1617 61 
Q 1341 213 1159 525 
L 1159 0 
L 581 0 
L 581 4863 
L 1159 4863 
L 1159 2969 
z
" transform="scale(0.015625)"/>
       <path id="DejaVuSans-41" d="M 2188 4044 
L 1331 1722 
L 3047 1722 
L 2188 4044 
z
M 1831 4666 
L 2547 4666 
L 4325 0 
L 3669 0 
L 3244 1197 
L 1141 1197 
L 716 0 
L 50 0 
L 1831 4666 
z
" transform="scale(0.015625)"/>
       <path id="DejaVuSans-63" d="M 3122 3366 
L 3122 2828 
Q 2878 2963 2633 3030 
Q 2388 3097 2138 3097 
Q 1578 3097 1268 2742 
Q 959 2388 959 1747 
Q 959 1106 1268 751 
Q 1578 397 2138 397 
Q 2388 397 2633 464 
Q 2878 531 3122 666 
L 3122 134 
Q 2881 22 2623 -34 
Q 2366 -91 2075 -91 
Q 1284 -91 818 406 
Q 353 903 353 1747 
Q 353 2603 823 3093 
Q 1294 3584 2113 3584 
Q 2378 3584 2631 3529 
Q 2884 3475 3122 3366 
z
" transform="scale(0.015625)"/>
       <path id="DejaVuSans-47" d="M 3809 666 
L 3809 1919 
L 2778 1919 
L 2778 2438 
L 4434 2438 
L 4434 434 
Q 4069 175 3628 42 
Q 3188 -91 2688 -91 
Q 1594 -91 976 548 
Q 359 1188 359 2328 
Q 359 3472 976 4111 
Q 1594 4750 2688 4750 
Q 3144 4750 3555 4637 
Q 3966 4525 4313 4306 
L 4313 3634 
Q 3963 3931 3569 4081 
Q 3175 4231 2741 4231 
Q 1884 4231 1454 3753 
Q 1025 3275 1025 2328 
Q 1025 1384 1454 906 
Q 1884 428 2741 428 
Q 3075 428 3337 486 
Q 3600 544 3809 666 
z
" transform="scale(0.015625)"/>
       <path id="DejaVuSans-6e" d="M 3513 2113 
L 3513 0 
L 2938 0 
L 2938 2094 
Q 2938 2591 2744 2837 
Q 2550 3084 2163 3084 
Q 1697 3084 1428 2787 
Q 1159 2491 1159 1978 
L 1159 0 
L 581 0 
L 581 3500 
L 1159 3500 
L 1159 2956 
Q 1366 3272 1645 3428 
Q 1925 3584 2291 3584 
Q 2894 3584 3203 3211 
Q 3513 2838 3513 2113 
z
" transform="scale(0.015625)"/>
      </defs>
      <use xlink:href="#DejaVuSans-4d"/>
      <use xlink:href="#DejaVuSans-75" x="86.279297"/>
      <use xlink:href="#DejaVuSans-6c" x="149.658203"/>
      <use xlink:href="#DejaVuSans-74" x="177.441406"/>
      <use xlink:href="#DejaVuSans-69" x="216.650391"/>
      <use xlink:href="#DejaVuSans-2d" x="244.433594"/>
      <use xlink:href="#DejaVuSans-4c" x="280.517578"/>
      <use xlink:href="#DejaVuSans-61" x="336.230469"/>
      <use xlink:href="#DejaVuSans-62" x="397.509766"/>
      <use xlink:href="#DejaVuSans-65" x="460.986328"/>
      <use xlink:href="#DejaVuSans-6c" x="522.509766"/>
      <use xlink:href="#DejaVuSans-20" x="550.292969"/>
      <use xlink:href="#DejaVuSans-41" x="582.080078"/>
      <use xlink:href="#DejaVuSans-63" x="648.738281"/>
      <use xlink:href="#DejaVuSans-63" x="703.71875"/>
      <use xlink:href="#DejaVuSans-20" x="758.699219"/>
      <use xlink:href="#DejaVuSans-47" x="790.486328"/>
      <use xlink:href="#DejaVuSans-61" x="867.976562"/>
      <use xlink:href="#DejaVuSans-69" x="929.255859"/>
      <use xlink:href="#DejaVuSans-6e" x="957.039062"/>
     </g>
    </g>
   </g>
   <g id="LineCollection_1">
    <path d="M 72.276141 142.324182 
L 72.276141 53.972978 
" clip-path="url(#p632c6e038c)" style="fill: none; stroke: #000000; stroke-width: 1.5"/>
    <path d="M 144.841359 136.260865 
L 144.841359 48.297824 
" clip-path="url(#p632c6e038c)" style="fill: none; stroke: #000000; stroke-width: 1.5"/>
    <path d="M 217.406576 145.044132 
L 217.406576 54.23028 
" clip-path="url(#p632c6e038c)" style="fill: none; stroke: #000000; stroke-width: 1.5"/>
    <path d="M 289.971793 154.094398 
L 289.971793 58.082634 
" clip-path="url(#p632c6e038c)" style="fill: none; stroke: #000000; stroke-width: 1.5"/>
    <path d="M 362.537011 150.105524 
L 362.537011 57.748315 
" clip-path="url(#p632c6e038c)" style="fill: none; stroke: #000000; stroke-width: 1.5"/>
   </g>
   <g id="line2d_13">
    <defs>
     <path id="m549db29206" d="M 3 0 
L -3 -0 
" style="stroke: #000000"/>
    </defs>
    <g clip-path="url(#p632c6e038c)">
     <use xlink:href="#m549db29206" x="72.276141" y="142.324182" style="stroke: #000000"/>
     <use xlink:href="#m549db29206" x="144.841359" y="136.260865" style="stroke: #000000"/>
     <use xlink:href="#m549db29206" x="217.406576" y="145.044132" style="stroke: #000000"/>
     <use xlink:href="#m549db29206" x="289.971793" y="154.094398" style="stroke: #000000"/>
     <use xlink:href="#m549db29206" x="362.537011" y="150.105524" style="stroke: #000000"/>
    </g>
   </g>
   <g id="line2d_14">
    <g clip-path="url(#p632c6e038c)">
     <use xlink:href="#m549db29206" x="72.276141" y="53.972978" style="stroke: #000000"/>
     <use xlink:href="#m549db29206" x="144.841359" y="48.297824" style="stroke: #000000"/>
     <use xlink:href="#m549db29206" x="217.406576" y="54.23028" style="stroke: #000000"/>
     <use xlink:href="#m549db29206" x="289.971793" y="58.082634" style="stroke: #000000"/>
     <use xlink:href="#m549db29206" x="362.537011" y="57.748315" style="stroke: #000000"/>
    </g>
   </g>
   <g id="LineCollection_2">
    <path d="M 83.160924 165.793503 
L 83.160924 79.887274 
" clip-path="url(#p632c6e038c)" style="fill: none; stroke: #000000; stroke-width: 1.5"/>
    <path d="M 155.726141 138.442536 
L 155.726141 49.05118 
" clip-path="url(#p632c6e038c)" style="fill: none; stroke: #000000; stroke-width: 1.5"/>
    <path d="M 228.291359 142.228492 
L 228.291359 39.791976 
" clip-path="url(#p632c6e038c)" style="fill: none; stroke: #000000; stroke-width: 1.5"/>
    <path d="M 300.856576 143.827004 
L 300.856576 59.400148 
" clip-path="url(#p632c6e038c)" style="fill: none; stroke: #000000; stroke-width: 1.5"/>
    <path d="M 373.421793 153.179005 
L 373.421793 92.432787 
" clip-path="url(#p632c6e038c)" style="fill: none; stroke: #000000; stroke-width: 1.5"/>
   </g>
   <g id="line2d_15">
    <g clip-path="url(#p632c6e038c)">
     <use xlink:href="#m549db29206" x="83.160924" y="165.793503" style="stroke: #000000"/>
     <use xlink:href="#m549db29206" x="155.726141" y="138.442536" style="stroke: #000000"/>
     <use xlink:href="#m549db29206" x="228.291359" y="142.228492" style="stroke: #000000"/>
     <use xlink:href="#m549db29206" x="300.856576" y="143.827004" style="stroke: #000000"/>
     <use xlink:href="#m549db29206" x="373.421793" y="153.179005" style="stroke: #000000"/>
    </g>
   </g>
   <g id="line2d_16">
    <g clip-path="url(#p632c6e038c)">
     <use xlink:href="#m549db29206" x="83.160924" y="79.887274" style="stroke: #000000"/>
     <use xlink:href="#m549db29206" x="155.726141" y="49.05118" style="stroke: #000000"/>
     <use xlink:href="#m549db29206" x="228.291359" y="39.791976" style="stroke: #000000"/>
     <use xlink:href="#m549db29206" x="300.856576" y="59.400148" style="stroke: #000000"/>
     <use xlink:href="#m549db29206" x="373.421793" y="92.432787" style="stroke: #000000"/>
    </g>
   </g>
   <g id="LineCollection_3">
    <path d="M 94.045707 161.147038 
L 94.045707 99.21954 
" clip-path="url(#p632c6e038c)" style="fill: none; stroke: #000000; stroke-width: 1.5"/>
    <path d="M 166.610924 157.102647 
L 166.610924 63.566276 
" clip-path="url(#p632c6e038c)" style="fill: none; stroke: #000000; stroke-width: 1.5"/>
    <path d="M 239.176141 136.550831 
L 239.176141 42.065409 
" clip-path="url(#p632c6e038c)" style="fill: none; stroke: #000000; stroke-width: 1.5"/>
    <path d="M 311.741359 138.887355 
L 311.741359 41.335419 
" clip-path="url(#p632c6e038c)" style="fill: none; stroke: #000000; stroke-width: 1.5"/>
    <path d="M 384.306576 138.880132 
L 384.306576 46.1356 
" clip-path="url(#p632c6e038c)" style="fill: none; stroke: #000000; stroke-width: 1.5"/>
   </g>
   <g id="line2d_17">
    <g clip-path="url(#p632c6e038c)">
     <use xlink:href="#m549db29206" x="94.045707" y="161.147038" style="stroke: #000000"/>
     <use xlink:href="#m549db29206" x="166.610924" y="157.102647" style="stroke: #000000"/>
     <use xlink:href="#m549db29206" x="239.176141" y="136.550831" style="stroke: #000000"/>
     <use xlink:href="#m549db29206" x="311.741359" y="138.887355" style="stroke: #000000"/>
     <use xlink:href="#m549db29206" x="384.306576" y="138.880132" style="stroke: #000000"/>
    </g>
   </g>
   <g id="line2d_18">
    <g clip-path="url(#p632c6e038c)">
     <use xlink:href="#m549db29206" x="94.045707" y="99.21954" style="stroke: #000000"/>
     <use xlink:href="#m549db29206" x="166.610924" y="63.566276" style="stroke: #000000"/>
     <use xlink:href="#m549db29206" x="239.176141" y="42.065409" style="stroke: #000000"/>
     <use xlink:href="#m549db29206" x="311.741359" y="41.335419" style="stroke: #000000"/>
     <use xlink:href="#m549db29206" x="384.306576" y="46.1356" style="stroke: #000000"/>
    </g>
   </g>
   <g id="LineCollection_4">
    <path d="M 104.930489 163.990084 
L 104.930489 149.343582 
" clip-path="url(#p632c6e038c)" style="fill: none; stroke: #000000; stroke-width: 1.5"/>
    <path d="M 177.495707 172.99615 
L 177.495707 104.54299 
" clip-path="url(#p632c6e038c)" style="fill: none; stroke: #000000; stroke-width: 1.5"/>
    <path d="M 250.060924 172.399641 
L 250.060924 85.392775 
" clip-path="url(#p632c6e038c)" style="fill: none; stroke: #000000; stroke-width: 1.5"/>
    <path d="M 322.626141 166.790131 
L 322.626141 76.426276 
" clip-path="url(#p632c6e038c)" style="fill: none; stroke: #000000; stroke-width: 1.5"/>
    <path d="M 395.191359 170.958128 
L 395.191359 60.800615 
" clip-path="url(#p632c6e038c)" style="fill: none; stroke: #000000; stroke-width: 1.5"/>
   </g>
   <g id="line2d_19">
    <g clip-path="url(#p632c6e038c)">
     <use xlink:href="#m549db29206" x="104.930489" y="163.990084" style="stroke: #000000"/>
     <use xlink:href="#m549db29206" x="177.495707" y="172.99615" style="stroke: #000000"/>
     <use xlink:href="#m549db29206" x="250.060924" y="172.399641" style="stroke: #000000"/>
     <use xlink:href="#m549db29206" x="322.626141" y="166.790131" style="stroke: #000000"/>
     <use xlink:href="#m549db29206" x="395.191359" y="170.958128" style="stroke: #000000"/>
    </g>
   </g>
   <g id="line2d_20">
    <g clip-path="url(#p632c6e038c)">
     <use xlink:href="#m549db29206" x="104.930489" y="149.343582" style="stroke: #000000"/>
     <use xlink:href="#m549db29206" x="177.495707" y="104.54299" style="stroke: #000000"/>
     <use xlink:href="#m549db29206" x="250.060924" y="85.392775" style="stroke: #000000"/>
     <use xlink:href="#m549db29206" x="322.626141" y="76.426276" style="stroke: #000000"/>
     <use xlink:href="#m549db29206" x="395.191359" y="60.800615" style="stroke: #000000"/>
    </g>
   </g>
   <g id="line2d_21">
    <path d="M 50.14375 157.576238 
L 417.32375 157.576238 
" clip-path="url(#p632c6e038c)" style="fill: none; stroke: #000000; stroke-opacity: 0.2; stroke-width: 1.5; stroke-linecap: square"/>
   </g>
   <g id="patch_23">
    <path d="M 50.14375 157.576238 
L 50.14375 10.999219 
" style="fill: none; stroke: #000000; stroke-width: 0.8; stroke-linejoin: miter; stroke-linecap: square"/>
   </g>
   <g id="patch_24">
    <path d="M 50.14375 157.576238 
L 417.32375 157.576238 
" style="fill: none; stroke: #000000; stroke-width: 0.8; stroke-linejoin: miter; stroke-linecap: square"/>
   </g>
   <g id="legend_1">
    <g id="patch_25">
     <path d="M 73.810313 30.012918 
L 393.657187 30.012918 
Q 395.657187 30.012918 395.657187 28.012918 
L 395.657187 14.334793 
Q 395.657187 12.334793 393.657187 12.334793 
L 73.810313 12.334793 
Q 71.810313 12.334793 71.810313 14.334793 
L 71.810313 28.012918 
Q 71.810313 30.012918 73.810313 30.012918 
z
" style="fill: #ffffff; opacity: 0.8; stroke: #cccccc; stroke-linejoin: miter"/>
    </g>
    <g id="patch_26">
     <path d="M 75.810313 23.933231 
L 95.810313 23.933231 
L 95.810313 16.933231 
L 75.810313 16.933231 
z
" style="fill: #1f77b4"/>
    </g>
    <g id="text_15">
     <!-- TopK 0.1 -->
     <g transform="translate(103.810313 23.933231) scale(0.1 -0.1)">
      <defs>
       <path id="DejaVuSans-54" d="M -19 4666 
L 3928 4666 
L 3928 4134 
L 2272 4134 
L 2272 0 
L 1638 0 
L 1638 4134 
L -19 4134 
L -19 4666 
z
" transform="scale(0.015625)"/>
       <path id="DejaVuSans-6f" d="M 1959 3097 
Q 1497 3097 1228 2736 
Q 959 2375 959 1747 
Q 959 1119 1226 758 
Q 1494 397 1959 397 
Q 2419 397 2687 759 
Q 2956 1122 2956 1747 
Q 2956 2369 2687 2733 
Q 2419 3097 1959 3097 
z
M 1959 3584 
Q 2709 3584 3137 3096 
Q 3566 2609 3566 1747 
Q 3566 888 3137 398 
Q 2709 -91 1959 -91 
Q 1206 -91 779 398 
Q 353 888 353 1747 
Q 353 2609 779 3096 
Q 1206 3584 1959 3584 
z
" transform="scale(0.015625)"/>
       <path id="DejaVuSans-70" d="M 1159 525 
L 1159 -1331 
L 581 -1331 
L 581 3500 
L 1159 3500 
L 1159 2969 
Q 1341 3281 1617 3432 
Q 1894 3584 2278 3584 
Q 2916 3584 3314 3078 
Q 3713 2572 3713 1747 
Q 3713 922 3314 415 
Q 2916 -91 2278 -91 
Q 1894 -91 1617 61 
Q 1341 213 1159 525 
z
M 3116 1747 
Q 3116 2381 2855 2742 
Q 2594 3103 2138 3103 
Q 1681 3103 1420 2742 
Q 1159 2381 1159 1747 
Q 1159 1113 1420 752 
Q 1681 391 2138 391 
Q 2594 391 2855 752 
Q 3116 1113 3116 1747 
z
" transform="scale(0.015625)"/>
       <path id="DejaVuSans-4b" d="M 628 4666 
L 1259 4666 
L 1259 2694 
L 3353 4666 
L 4166 4666 
L 1850 2491 
L 4331 0 
L 3500 0 
L 1259 2247 
L 1259 0 
L 628 0 
L 628 4666 
z
" transform="scale(0.015625)"/>
      </defs>
      <use xlink:href="#DejaVuSans-54"/>
      <use xlink:href="#DejaVuSans-6f" x="44.083984"/>
      <use xlink:href="#DejaVuSans-70" x="105.265625"/>
      <use xlink:href="#DejaVuSans-4b" x="168.742188"/>
      <use xlink:href="#DejaVuSans-20" x="234.318359"/>
      <use xlink:href="#DejaVuSans-30" x="266.105469"/>
      <use xlink:href="#DejaVuSans-2e" x="329.728516"/>
      <use xlink:href="#DejaVuSans-31" x="361.515625"/>
     </g>
    </g>
    <g id="patch_27">
     <path d="M 166.324375 23.933231 
L 186.324375 23.933231 
L 186.324375 16.933231 
L 166.324375 16.933231 
z
" style="fill: #ff7f0e"/>
    </g>
    <g id="text_16">
     <!-- DivDis -->
     <g transform="translate(194.324375 23.933231) scale(0.1 -0.1)">
      <defs>
       <path id="DejaVuSans-44" d="M 1259 4147 
L 1259 519 
L 2022 519 
Q 2988 519 3436 956 
Q 3884 1394 3884 2338 
Q 3884 3275 3436 3711 
Q 2988 4147 2022 4147 
L 1259 4147 
z
M 628 4666 
L 1925 4666 
Q 3281 4666 3915 4102 
Q 4550 3538 4550 2338 
Q 4550 1131 3912 565 
Q 3275 0 1925 0 
L 628 0 
L 628 4666 
z
" transform="scale(0.015625)"/>
       <path id="DejaVuSans-76" d="M 191 3500 
L 800 3500 
L 1894 563 
L 2988 3500 
L 3597 3500 
L 2284 0 
L 1503 0 
L 191 3500 
z
" transform="scale(0.015625)"/>
       <path id="DejaVuSans-73" d="M 2834 3397 
L 2834 2853 
Q 2591 2978 2328 3040 
Q 2066 3103 1784 3103 
Q 1356 3103 1142 2972 
Q 928 2841 928 2578 
Q 928 2378 1081 2264 
Q 1234 2150 1697 2047 
L 1894 2003 
Q 2506 1872 2764 1633 
Q 3022 1394 3022 966 
Q 3022 478 2636 193 
Q 2250 -91 1575 -91 
Q 1294 -91 989 -36 
Q 684 19 347 128 
L 347 722 
Q 666 556 975 473 
Q 1284 391 1588 391 
Q 1994 391 2212 530 
Q 2431 669 2431 922 
Q 2431 1156 2273 1281 
Q 2116 1406 1581 1522 
L 1381 1569 
Q 847 1681 609 1914 
Q 372 2147 372 2553 
Q 372 3047 722 3315 
Q 1072 3584 1716 3584 
Q 2034 3584 2315 3537 
Q 2597 3491 2834 3397 
z
" transform="scale(0.015625)"/>
      </defs>
      <use xlink:href="#DejaVuSans-44"/>
      <use xlink:href="#DejaVuSans-69" x="77.001953"/>
      <use xlink:href="#DejaVuSans-76" x="104.785156"/>
      <use xlink:href="#DejaVuSans-44" x="163.964844"/>
      <use xlink:href="#DejaVuSans-69" x="240.966797"/>
      <use xlink:href="#DejaVuSans-73" x="268.75"/>
     </g>
    </g>
    <g id="patch_28">
     <path d="M 246.40875 23.933231 
L 266.40875 23.933231 
L 266.40875 16.933231 
L 246.40875 16.933231 
z
" style="fill: #2ca02c"/>
    </g>
    <g id="text_17">
     <!-- TopK 0.5 -->
     <g transform="translate(274.40875 23.933231) scale(0.1 -0.1)">
      <use xlink:href="#DejaVuSans-54"/>
      <use xlink:href="#DejaVuSans-6f" x="44.083984"/>
      <use xlink:href="#DejaVuSans-70" x="105.265625"/>
      <use xlink:href="#DejaVuSans-4b" x="168.742188"/>
      <use xlink:href="#DejaVuSans-20" x="234.318359"/>
      <use xlink:href="#DejaVuSans-30" x="266.105469"/>
      <use xlink:href="#DejaVuSans-2e" x="329.728516"/>
      <use xlink:href="#DejaVuSans-35" x="361.515625"/>
     </g>
    </g>
    <g id="patch_29">
     <path d="M 336.922812 23.933231 
L 356.922812 23.933231 
L 356.922812 16.933231 
L 336.922812 16.933231 
z
" style="fill: #d62728"/>
    </g>
    <g id="text_18">
     <!-- DBAT -->
     <g transform="translate(364.922812 23.933231) scale(0.1 -0.1)">
      <defs>
       <path id="DejaVuSans-42" d="M 1259 2228 
L 1259 519 
L 2272 519 
Q 2781 519 3026 730 
Q 3272 941 3272 1375 
Q 3272 1813 3026 2020 
Q 2781 2228 2272 2228 
L 1259 2228 
z
M 1259 4147 
L 1259 2741 
L 2194 2741 
Q 2656 2741 2882 2914 
Q 3109 3088 3109 3444 
Q 3109 3797 2882 3972 
Q 2656 4147 2194 4147 
L 1259 4147 
z
M 628 4666 
L 2241 4666 
Q 2963 4666 3353 4366 
Q 3744 4066 3744 3513 
Q 3744 3084 3544 2831 
Q 3344 2578 2956 2516 
Q 3422 2416 3680 2098 
Q 3938 1781 3938 1306 
Q 3938 681 3513 340 
Q 3088 0 2303 0 
L 628 0 
L 628 4666 
z
" transform="scale(0.015625)"/>
      </defs>
      <use xlink:href="#DejaVuSans-44"/>
      <use xlink:href="#DejaVuSans-42" x="77.001953"/>
      <use xlink:href="#DejaVuSans-41" x="145.605469"/>
      <use xlink:href="#DejaVuSans-54" x="206.263672"/>
     </g>
    </g>
   </g>
  </g>
 </g>
 <defs>
  <clipPath id="p632c6e038c">
   <rect x="50.14375" y="10.999219" width="367.18" height="146.57702"/>
  </clipPath>
 </defs>
</svg>
