<?xml version="1.0" encoding="utf-8" standalone="no"?>
<!DOCTYPE svg PUBLIC "-//W3C//DTD SVG 1.1//EN"
  "http://www.w3.org/Graphics/SVG/1.1/DTD/svg11.dtd">
<svg xmlns:xlink="http://www.w3.org/1999/xlink" width="428.22375pt" height="189.999093pt" viewBox="0 0 428.22375 189.999093" xmlns="http://www.w3.org/2000/svg" version="1.1">
 <metadata>
  <rdf:RDF xmlns:dc="http://purl.org/dc/elements/1.1/" xmlns:cc="http://creativecommons.org/ns#" xmlns:rdf="http://www.w3.org/1999/02/22-rdf-syntax-ns#">
   <cc:Work>
    <dc:type rdf:resource="http://purl.org/dc/dcmitype/StillImage"/>
    <dc:date>2025-02-12T19:32:22.627306</dc:date>
    <dc:format>image/svg+xml</dc:format>
    <dc:creator>
     <cc:Agent>
      <dc:title>Matplotlib v3.9.2, https://matplotlib.org/</dc:title>
     </cc:Agent>
    </dc:creator>
   </cc:Work>
  </rdf:RDF>
 </metadata>
 <defs>
  <style type="text/css">*{stroke-linejoin: round; stroke-linecap: butt}</style>
 </defs>
 <g id="figure_1">
  <g id="patch_1">
   <path d="M 0 189.999093 
L 428.22375 189.999093 
L 428.22375 0 
L 0 0 
z
" style="fill: #ffffff"/>
  </g>
  <g id="axes_1">
   <g id="patch_2">
    <path d="M 50.14375 139.533325 
L 378.35375 139.533325 
L 378.35375 33.892306 
L 50.14375 33.892306 
z
" style="fill: #ffffff"/>
   </g>
   <g id="patch_3">
    <path d="M 65.062386 139.533325 
L 74.791932 139.533325 
L 74.791932 97.435547 
L 65.062386 97.435547 
z
" clip-path="url(#p38ea469fbe)" style="fill: #1e3d8f"/>
   </g>
   <g id="patch_4">
    <path d="M 129.926023 139.533325 
L 139.655568 139.533325 
L 139.655568 85.161239 
L 129.926023 85.161239 
z
" clip-path="url(#p38ea469fbe)" style="fill: #1e3d8f"/>
   </g>
   <g id="patch_5">
    <path d="M 194.789659 139.533325 
L 204.519205 139.533325 
L 204.519205 89.064098 
L 194.789659 89.064098 
z
" clip-path="url(#p38ea469fbe)" style="fill: #1e3d8f"/>
   </g>
   <g id="patch_6">
    <path d="M 259.653295 139.533325 
L 269.382841 139.533325 
L 269.382841 92.119223 
L 259.653295 92.119223 
z
" clip-path="url(#p38ea469fbe)" style="fill: #1e3d8f"/>
   </g>
   <g id="patch_7">
    <path d="M 324.516932 139.533325 
L 334.246477 139.533325 
L 334.246477 97.835058 
L 324.516932 97.835058 
z
" clip-path="url(#p38ea469fbe)" style="fill: #1e3d8f"/>
   </g>
   <g id="patch_8">
    <path d="M 74.791932 139.533325 
L 84.521477 139.533325 
L 84.521477 88.136468 
L 74.791932 88.136468 
z
" clip-path="url(#p38ea469fbe)" style="fill: #1f77b4"/>
   </g>
   <g id="patch_9">
    <path d="M 139.655568 139.533325 
L 149.385114 139.533325 
L 149.385114 83.060377 
L 139.655568 83.060377 
z
" clip-path="url(#p38ea469fbe)" style="fill: #1f77b4"/>
   </g>
   <g id="patch_10">
    <path d="M 204.519205 139.533325 
L 214.24875 139.533325 
L 214.24875 89.423928 
L 204.519205 89.423928 
z
" clip-path="url(#p38ea469fbe)" style="fill: #1f77b4"/>
   </g>
   <g id="patch_11">
    <path d="M 269.382841 139.533325 
L 279.112386 139.533325 
L 279.112386 95.003435 
L 269.382841 95.003435 
z
" clip-path="url(#p38ea469fbe)" style="fill: #1f77b4"/>
   </g>
   <g id="patch_12">
    <path d="M 334.246477 139.533325 
L 343.976023 139.533325 
L 343.976023 93.133948 
L 334.246477 93.133948 
z
" clip-path="url(#p38ea469fbe)" style="fill: #1f77b4"/>
   </g>
   <g id="patch_13">
    <path d="M 84.521477 139.533325 
L 94.251023 139.533325 
L 94.251023 132.198201 
L 84.521477 132.198201 
z
" clip-path="url(#p38ea469fbe)" style="fill: #556b2f"/>
   </g>
   <g id="patch_14">
    <path d="M 149.385114 139.533325 
L 159.114659 139.533325 
L 159.114659 113.309158 
L 149.385114 113.309158 
z
" clip-path="url(#p38ea469fbe)" style="fill: #556b2f"/>
   </g>
   <g id="patch_15">
    <path d="M 214.24875 139.533325 
L 223.978295 139.533325 
L 223.978295 81.669608 
L 214.24875 81.669608 
z
" clip-path="url(#p38ea469fbe)" style="fill: #556b2f"/>
   </g>
   <g id="patch_16">
    <path d="M 279.112386 139.533325 
L 288.841932 139.533325 
L 288.841932 70.854493 
L 279.112386 70.854493 
z
" clip-path="url(#p38ea469fbe)" style="fill: #556b2f"/>
   </g>
   <g id="patch_17">
    <path d="M 343.976023 139.533325 
L 353.705568 139.533325 
L 353.705568 79.569823 
L 343.976023 79.569823 
z
" clip-path="url(#p38ea469fbe)" style="fill: #556b2f"/>
   </g>
   <g id="patch_18">
    <path d="M 94.251023 139.533325 
L 103.980568 139.533325 
L 103.980568 115.842143 
L 94.251023 115.842143 
z
" clip-path="url(#p38ea469fbe)" style="fill: #2ca02c"/>
   </g>
   <g id="patch_19">
    <path d="M 159.114659 139.533325 
L 168.844205 139.533325 
L 168.844205 98.675602 
L 159.114659 98.675602 
z
" clip-path="url(#p38ea469fbe)" style="fill: #2ca02c"/>
   </g>
   <g id="patch_20">
    <path d="M 223.978295 139.533325 
L 233.707841 139.533325 
L 233.707841 80.490671 
L 223.978295 80.490671 
z
" clip-path="url(#p38ea469fbe)" style="fill: #2ca02c"/>
   </g>
   <g id="patch_21">
    <path d="M 288.841932 139.533325 
L 298.571477 139.533325 
L 298.571477 81.185387 
L 288.841932 81.185387 
z
" clip-path="url(#p38ea469fbe)" style="fill: #2ca02c"/>
   </g>
   <g id="patch_22">
    <path d="M 353.705568 139.533325 
L 363.435114 139.533325 
L 363.435114 83.258017 
L 353.705568 83.258017 
z
" clip-path="url(#p38ea469fbe)" style="fill: #2ca02c"/>
   </g>
   <g id="matplotlib.axis_1">
    <g id="xtick_1">
     <g id="line2d_1">
      <defs>
       <path id="mdc3f279e27" d="M 0 0 
L 0 3.5 
" style="stroke: #000000; stroke-width: 0.8"/>
      </defs>
      <g>
       <use xlink:href="#mdc3f279e27" x="84.521477" y="139.533325" style="stroke: #000000; stroke-width: 0.8"/>
      </g>
     </g>
     <g id="text_1">
      <!-- 0.10 -->
      <g transform="translate(78.600563 167.650406) rotate(-45) scale(0.1 -0.1)">
       <defs>
        <path id="DejaVuSans-30" d="M 2034 4250 
Q 1547 4250 1301 3770 
Q 1056 3291 1056 2328 
Q 1056 1369 1301 889 
Q 1547 409 2034 409 
Q 2525 409 2770 889 
Q 3016 1369 3016 2328 
Q 3016 3291 2770 3770 
Q 2525 4250 2034 4250 
z
M 2034 4750 
Q 2819 4750 3233 4129 
Q 3647 3509 3647 2328 
Q 3647 1150 3233 529 
Q 2819 -91 2034 -91 
Q 1250 -91 836 529 
Q 422 1150 422 2328 
Q 422 3509 836 4129 
Q 1250 4750 2034 4750 
z
" transform="scale(0.015625)"/>
        <path id="DejaVuSans-2e" d="M 684 794 
L 1344 794 
L 1344 0 
L 684 0 
L 684 794 
z
" transform="scale(0.015625)"/>
        <path id="DejaVuSans-31" d="M 794 531 
L 1825 531 
L 1825 4091 
L 703 3866 
L 703 4441 
L 1819 4666 
L 2450 4666 
L 2450 531 
L 3481 531 
L 3481 0 
L 794 0 
L 794 531 
z
" transform="scale(0.015625)"/>
       </defs>
       <use xlink:href="#DejaVuSans-30"/>
       <use xlink:href="#DejaVuSans-2e" x="63.623047"/>
       <use xlink:href="#DejaVuSans-31" x="95.410156"/>
       <use xlink:href="#DejaVuSans-30" x="159.033203"/>
      </g>
     </g>
    </g>
    <g id="xtick_2">
     <g id="line2d_2">
      <g>
       <use xlink:href="#mdc3f279e27" x="149.385114" y="139.533325" style="stroke: #000000; stroke-width: 0.8"/>
      </g>
     </g>
     <g id="text_2">
      <!-- 0.25 -->
      <g transform="translate(143.464199 167.650406) rotate(-45) scale(0.1 -0.1)">
       <defs>
        <path id="DejaVuSans-32" d="M 1228 531 
L 3431 531 
L 3431 0 
L 469 0 
L 469 531 
Q 828 903 1448 1529 
Q 2069 2156 2228 2338 
Q 2531 2678 2651 2914 
Q 2772 3150 2772 3378 
Q 2772 3750 2511 3984 
Q 2250 4219 1831 4219 
Q 1534 4219 1204 4116 
Q 875 4013 500 3803 
L 500 4441 
Q 881 4594 1212 4672 
Q 1544 4750 1819 4750 
Q 2544 4750 2975 4387 
Q 3406 4025 3406 3419 
Q 3406 3131 3298 2873 
Q 3191 2616 2906 2266 
Q 2828 2175 2409 1742 
Q 1991 1309 1228 531 
z
" transform="scale(0.015625)"/>
        <path id="DejaVuSans-35" d="M 691 4666 
L 3169 4666 
L 3169 4134 
L 1269 4134 
L 1269 2991 
Q 1406 3038 1543 3061 
Q 1681 3084 1819 3084 
Q 2600 3084 3056 2656 
Q 3513 2228 3513 1497 
Q 3513 744 3044 326 
Q 2575 -91 1722 -91 
Q 1428 -91 1123 -41 
Q 819 9 494 109 
L 494 744 
Q 775 591 1075 516 
Q 1375 441 1709 441 
Q 2250 441 2565 725 
Q 2881 1009 2881 1497 
Q 2881 1984 2565 2268 
Q 2250 2553 1709 2553 
Q 1456 2553 1204 2497 
Q 953 2441 691 2322 
L 691 4666 
z
" transform="scale(0.015625)"/>
       </defs>
       <use xlink:href="#DejaVuSans-30"/>
       <use xlink:href="#DejaVuSans-2e" x="63.623047"/>
       <use xlink:href="#DejaVuSans-32" x="95.410156"/>
       <use xlink:href="#DejaVuSans-35" x="159.033203"/>
      </g>
     </g>
    </g>
    <g id="xtick_3">
     <g id="line2d_3">
      <g>
       <use xlink:href="#mdc3f279e27" x="214.24875" y="139.533325" style="stroke: #000000; stroke-width: 0.8"/>
      </g>
     </g>
     <g id="text_3">
      <!-- 0.50 -->
      <g transform="translate(208.327836 167.650406) rotate(-45) scale(0.1 -0.1)">
       <use xlink:href="#DejaVuSans-30"/>
       <use xlink:href="#DejaVuSans-2e" x="63.623047"/>
       <use xlink:href="#DejaVuSans-35" x="95.410156"/>
       <use xlink:href="#DejaVuSans-30" x="159.033203"/>
      </g>
     </g>
    </g>
    <g id="xtick_4">
     <g id="line2d_4">
      <g>
       <use xlink:href="#mdc3f279e27" x="279.112386" y="139.533325" style="stroke: #000000; stroke-width: 0.8"/>
      </g>
     </g>
     <g id="text_4">
      <!-- 0.75 -->
      <g transform="translate(273.191472 167.650406) rotate(-45) scale(0.1 -0.1)">
       <defs>
        <path id="DejaVuSans-37" d="M 525 4666 
L 3525 4666 
L 3525 4397 
L 1831 0 
L 1172 0 
L 2766 4134 
L 525 4134 
L 525 4666 
z
" transform="scale(0.015625)"/>
       </defs>
       <use xlink:href="#DejaVuSans-30"/>
       <use xlink:href="#DejaVuSans-2e" x="63.623047"/>
       <use xlink:href="#DejaVuSans-37" x="95.410156"/>
       <use xlink:href="#DejaVuSans-35" x="159.033203"/>
      </g>
     </g>
    </g>
    <g id="xtick_5">
     <g id="line2d_5">
      <g>
       <use xlink:href="#mdc3f279e27" x="343.976023" y="139.533325" style="stroke: #000000; stroke-width: 0.8"/>
      </g>
     </g>
     <g id="text_5">
      <!-- 1.00 -->
      <g transform="translate(338.055108 167.650406) rotate(-45) scale(0.1 -0.1)">
       <use xlink:href="#DejaVuSans-31"/>
       <use xlink:href="#DejaVuSans-2e" x="63.623047"/>
       <use xlink:href="#DejaVuSans-30" x="95.410156"/>
       <use xlink:href="#DejaVuSans-30" x="159.033203"/>
      </g>
     </g>
    </g>
    <g id="text_6">
     <!-- Mix Rate -->
     <g transform="translate(192.534687 180.719405) scale(0.1 -0.1)">
      <defs>
       <path id="DejaVuSans-4d" d="M 628 4666 
L 1569 4666 
L 2759 1491 
L 3956 4666 
L 4897 4666 
L 4897 0 
L 4281 0 
L 4281 4097 
L 3078 897 
L 2444 897 
L 1241 4097 
L 1241 0 
L 628 0 
L 628 4666 
z
" transform="scale(0.015625)"/>
       <path id="DejaVuSans-69" d="M 603 3500 
L 1178 3500 
L 1178 0 
L 603 0 
L 603 3500 
z
M 603 4863 
L 1178 4863 
L 1178 4134 
L 603 4134 
L 603 4863 
z
" transform="scale(0.015625)"/>
       <path id="DejaVuSans-78" d="M 3513 3500 
L 2247 1797 
L 3578 0 
L 2900 0 
L 1881 1375 
L 863 0 
L 184 0 
L 1544 1831 
L 300 3500 
L 978 3500 
L 1906 2253 
L 2834 3500 
L 3513 3500 
z
" transform="scale(0.015625)"/>
       <path id="DejaVuSans-20" transform="scale(0.015625)"/>
       <path id="DejaVuSans-52" d="M 2841 2188 
Q 3044 2119 3236 1894 
Q 3428 1669 3622 1275 
L 4263 0 
L 3584 0 
L 2988 1197 
Q 2756 1666 2539 1819 
Q 2322 1972 1947 1972 
L 1259 1972 
L 1259 0 
L 628 0 
L 628 4666 
L 2053 4666 
Q 2853 4666 3247 4331 
Q 3641 3997 3641 3322 
Q 3641 2881 3436 2590 
Q 3231 2300 2841 2188 
z
M 1259 4147 
L 1259 2491 
L 2053 2491 
Q 2509 2491 2742 2702 
Q 2975 2913 2975 3322 
Q 2975 3731 2742 3939 
Q 2509 4147 2053 4147 
L 1259 4147 
z
" transform="scale(0.015625)"/>
       <path id="DejaVuSans-61" d="M 2194 1759 
Q 1497 1759 1228 1600 
Q 959 1441 959 1056 
Q 959 750 1161 570 
Q 1363 391 1709 391 
Q 2188 391 2477 730 
Q 2766 1069 2766 1631 
L 2766 1759 
L 2194 1759 
z
M 3341 1997 
L 3341 0 
L 2766 0 
L 2766 531 
Q 2569 213 2275 61 
Q 1981 -91 1556 -91 
Q 1019 -91 701 211 
Q 384 513 384 1019 
Q 384 1609 779 1909 
Q 1175 2209 1959 2209 
L 2766 2209 
L 2766 2266 
Q 2766 2663 2505 2880 
Q 2244 3097 1772 3097 
Q 1472 3097 1187 3025 
Q 903 2953 641 2809 
L 641 3341 
Q 956 3463 1253 3523 
Q 1550 3584 1831 3584 
Q 2591 3584 2966 3190 
Q 3341 2797 3341 1997 
z
" transform="scale(0.015625)"/>
       <path id="DejaVuSans-74" d="M 1172 4494 
L 1172 3500 
L 2356 3500 
L 2356 3053 
L 1172 3053 
L 1172 1153 
Q 1172 725 1289 603 
Q 1406 481 1766 481 
L 2356 481 
L 2356 0 
L 1766 0 
Q 1100 0 847 248 
Q 594 497 594 1153 
L 594 3053 
L 172 3053 
L 172 3500 
L 594 3500 
L 594 4494 
L 1172 4494 
z
" transform="scale(0.015625)"/>
       <path id="DejaVuSans-65" d="M 3597 1894 
L 3597 1613 
L 953 1613 
Q 991 1019 1311 708 
Q 1631 397 2203 397 
Q 2534 397 2845 478 
Q 3156 559 3463 722 
L 3463 178 
Q 3153 47 2828 -22 
Q 2503 -91 2169 -91 
Q 1331 -91 842 396 
Q 353 884 353 1716 
Q 353 2575 817 3079 
Q 1281 3584 2069 3584 
Q 2775 3584 3186 3129 
Q 3597 2675 3597 1894 
z
M 3022 2063 
Q 3016 2534 2758 2815 
Q 2500 3097 2075 3097 
Q 1594 3097 1305 2825 
Q 1016 2553 972 2059 
L 3022 2063 
z
" transform="scale(0.015625)"/>
      </defs>
      <use xlink:href="#DejaVuSans-4d"/>
      <use xlink:href="#DejaVuSans-69" x="86.279297"/>
      <use xlink:href="#DejaVuSans-78" x="114.0625"/>
      <use xlink:href="#DejaVuSans-20" x="173.242188"/>
      <use xlink:href="#DejaVuSans-52" x="205.029297"/>
      <use xlink:href="#DejaVuSans-61" x="272.261719"/>
      <use xlink:href="#DejaVuSans-74" x="333.541016"/>
      <use xlink:href="#DejaVuSans-65" x="372.75"/>
     </g>
    </g>
   </g>
   <g id="matplotlib.axis_2">
    <g id="ytick_1">
     <g id="line2d_6">
      <defs>
       <path id="m414ae8d615" d="M 0 0 
L -3.5 0 
" style="stroke: #000000; stroke-width: 0.8"/>
      </defs>
      <g>
       <use xlink:href="#m414ae8d615" x="50.14375" y="139.533325" style="stroke: #000000; stroke-width: 0.8"/>
      </g>
     </g>
     <g id="text_7">
      <!-- 0.00 -->
      <g transform="translate(20.878125 143.332544) scale(0.1 -0.1)">
       <use xlink:href="#DejaVuSans-30"/>
       <use xlink:href="#DejaVuSans-2e" x="63.623047"/>
       <use xlink:href="#DejaVuSans-30" x="95.410156"/>
       <use xlink:href="#DejaVuSans-30" x="159.033203"/>
      </g>
     </g>
    </g>
    <g id="ytick_2">
     <g id="line2d_7">
      <g>
       <use xlink:href="#m414ae8d615" x="50.14375" y="118.405121" style="stroke: #000000; stroke-width: 0.8"/>
      </g>
     </g>
     <g id="text_8">
      <!-- 0.05 -->
      <g transform="translate(20.878125 122.20434) scale(0.1 -0.1)">
       <use xlink:href="#DejaVuSans-30"/>
       <use xlink:href="#DejaVuSans-2e" x="63.623047"/>
       <use xlink:href="#DejaVuSans-30" x="95.410156"/>
       <use xlink:href="#DejaVuSans-35" x="159.033203"/>
      </g>
     </g>
    </g>
    <g id="ytick_3">
     <g id="line2d_8">
      <g>
       <use xlink:href="#m414ae8d615" x="50.14375" y="97.276918" style="stroke: #000000; stroke-width: 0.8"/>
      </g>
     </g>
     <g id="text_9">
      <!-- 0.10 -->
      <g transform="translate(20.878125 101.076136) scale(0.1 -0.1)">
       <use xlink:href="#DejaVuSans-30"/>
       <use xlink:href="#DejaVuSans-2e" x="63.623047"/>
       <use xlink:href="#DejaVuSans-31" x="95.410156"/>
       <use xlink:href="#DejaVuSans-30" x="159.033203"/>
      </g>
     </g>
    </g>
    <g id="ytick_4">
     <g id="line2d_9">
      <g>
       <use xlink:href="#m414ae8d615" x="50.14375" y="76.148714" style="stroke: #000000; stroke-width: 0.8"/>
      </g>
     </g>
     <g id="text_10">
      <!-- 0.15 -->
      <g transform="translate(20.878125 79.947932) scale(0.1 -0.1)">
       <use xlink:href="#DejaVuSans-30"/>
       <use xlink:href="#DejaVuSans-2e" x="63.623047"/>
       <use xlink:href="#DejaVuSans-31" x="95.410156"/>
       <use xlink:href="#DejaVuSans-35" x="159.033203"/>
      </g>
     </g>
    </g>
    <g id="ytick_5">
     <g id="line2d_10">
      <g>
       <use xlink:href="#m414ae8d615" x="50.14375" y="55.02051" style="stroke: #000000; stroke-width: 0.8"/>
      </g>
     </g>
     <g id="text_11">
      <!-- 0.20 -->
      <g transform="translate(20.878125 58.819729) scale(0.1 -0.1)">
       <use xlink:href="#DejaVuSans-30"/>
       <use xlink:href="#DejaVuSans-2e" x="63.623047"/>
       <use xlink:href="#DejaVuSans-32" x="95.410156"/>
       <use xlink:href="#DejaVuSans-30" x="159.033203"/>
      </g>
     </g>
    </g>
    <g id="ytick_6">
     <g id="line2d_11">
      <g>
       <use xlink:href="#m414ae8d615" x="50.14375" y="33.892306" style="stroke: #000000; stroke-width: 0.8"/>
      </g>
     </g>
     <g id="text_12">
      <!-- 0.25 -->
      <g transform="translate(20.878125 37.691525) scale(0.1 -0.1)">
       <use xlink:href="#DejaVuSans-30"/>
       <use xlink:href="#DejaVuSans-2e" x="63.623047"/>
       <use xlink:href="#DejaVuSans-32" x="95.410156"/>
       <use xlink:href="#DejaVuSans-35" x="159.033203"/>
      </g>
     </g>
    </g>
    <g id="text_13">
     <!-- Multi-Label Acc Gain -->
     <g transform="translate(14.798438 137.733128) rotate(-90) scale(0.1 -0.1)">
      <defs>
       <path id="DejaVuSans-75" d="M 544 1381 
L 544 3500 
L 1119 3500 
L 1119 1403 
Q 1119 906 1312 657 
Q 1506 409 1894 409 
Q 2359 409 2629 706 
Q 2900 1003 2900 1516 
L 2900 3500 
L 3475 3500 
L 3475 0 
L 2900 0 
L 2900 538 
Q 2691 219 2414 64 
Q 2138 -91 1772 -91 
Q 1169 -91 856 284 
Q 544 659 544 1381 
z
M 1991 3584 
L 1991 3584 
z
" transform="scale(0.015625)"/>
       <path id="DejaVuSans-6c" d="M 603 4863 
L 1178 4863 
L 1178 0 
L 603 0 
L 603 4863 
z
" transform="scale(0.015625)"/>
       <path id="DejaVuSans-2d" d="M 313 2009 
L 1997 2009 
L 1997 1497 
L 313 1497 
L 313 2009 
z
" transform="scale(0.015625)"/>
       <path id="DejaVuSans-4c" d="M 628 4666 
L 1259 4666 
L 1259 531 
L 3531 531 
L 3531 0 
L 628 0 
L 628 4666 
z
" transform="scale(0.015625)"/>
       <path id="DejaVuSans-62" d="M 3116 1747 
Q 3116 2381 2855 2742 
Q 2594 3103 2138 3103 
Q 1681 3103 1420 2742 
Q 1159 2381 1159 1747 
Q 1159 1113 1420 752 
Q 1681 391 2138 391 
Q 2594 391 2855 752 
Q 3116 1113 3116 1747 
z
M 1159 2969 
Q 1341 3281 1617 3432 
Q 1894 3584 2278 3584 
Q 2916 3584 3314 3078 
Q 3713 2572 3713 1747 
Q 3713 922 3314 415 
Q 2916 -91 2278 -91 
Q 1894 -91 1617 61 
Q 1341 213 1159 525 
L 1159 0 
L 581 0 
L 581 4863 
L 1159 4863 
L 1159 2969 
z
" transform="scale(0.015625)"/>
       <path id="DejaVuSans-41" d="M 2188 4044 
L 1331 1722 
L 3047 1722 
L 2188 4044 
z
M 1831 4666 
L 2547 4666 
L 4325 0 
L 3669 0 
L 3244 1197 
L 1141 1197 
L 716 0 
L 50 0 
L 1831 4666 
z
" transform="scale(0.015625)"/>
       <path id="DejaVuSans-63" d="M 3122 3366 
L 3122 2828 
Q 2878 2963 2633 3030 
Q 2388 3097 2138 3097 
Q 1578 3097 1268 2742 
Q 959 2388 959 1747 
Q 959 1106 1268 751 
Q 1578 397 2138 397 
Q 2388 397 2633 464 
Q 2878 531 3122 666 
L 3122 134 
Q 2881 22 2623 -34 
Q 2366 -91 2075 -91 
Q 1284 -91 818 406 
Q 353 903 353 1747 
Q 353 2603 823 3093 
Q 1294 3584 2113 3584 
Q 2378 3584 2631 3529 
Q 2884 3475 3122 3366 
z
" transform="scale(0.015625)"/>
       <path id="DejaVuSans-47" d="M 3809 666 
L 3809 1919 
L 2778 1919 
L 2778 2438 
L 4434 2438 
L 4434 434 
Q 4069 175 3628 42 
Q 3188 -91 2688 -91 
Q 1594 -91 976 548 
Q 359 1188 359 2328 
Q 359 3472 976 4111 
Q 1594 4750 2688 4750 
Q 3144 4750 3555 4637 
Q 3966 4525 4313 4306 
L 4313 3634 
Q 3963 3931 3569 4081 
Q 3175 4231 2741 4231 
Q 1884 4231 1454 3753 
Q 1025 3275 1025 2328 
Q 1025 1384 1454 906 
Q 1884 428 2741 428 
Q 3075 428 3337 486 
Q 3600 544 3809 666 
z
" transform="scale(0.015625)"/>
       <path id="DejaVuSans-6e" d="M 3513 2113 
L 3513 0 
L 2938 0 
L 2938 2094 
Q 2938 2591 2744 2837 
Q 2550 3084 2163 3084 
Q 1697 3084 1428 2787 
Q 1159 2491 1159 1978 
L 1159 0 
L 581 0 
L 581 3500 
L 1159 3500 
L 1159 2956 
Q 1366 3272 1645 3428 
Q 1925 3584 2291 3584 
Q 2894 3584 3203 3211 
Q 3513 2838 3513 2113 
z
" transform="scale(0.015625)"/>
      </defs>
      <use xlink:href="#DejaVuSans-4d"/>
      <use xlink:href="#DejaVuSans-75" x="86.279297"/>
      <use xlink:href="#DejaVuSans-6c" x="149.658203"/>
      <use xlink:href="#DejaVuSans-74" x="177.441406"/>
      <use xlink:href="#DejaVuSans-69" x="216.650391"/>
      <use xlink:href="#DejaVuSans-2d" x="244.433594"/>
      <use xlink:href="#DejaVuSans-4c" x="280.517578"/>
      <use xlink:href="#DejaVuSans-61" x="336.230469"/>
      <use xlink:href="#DejaVuSans-62" x="397.509766"/>
      <use xlink:href="#DejaVuSans-65" x="460.986328"/>
      <use xlink:href="#DejaVuSans-6c" x="522.509766"/>
      <use xlink:href="#DejaVuSans-20" x="550.292969"/>
      <use xlink:href="#DejaVuSans-41" x="582.080078"/>
      <use xlink:href="#DejaVuSans-63" x="648.738281"/>
      <use xlink:href="#DejaVuSans-63" x="703.71875"/>
      <use xlink:href="#DejaVuSans-20" x="758.699219"/>
      <use xlink:href="#DejaVuSans-47" x="790.486328"/>
      <use xlink:href="#DejaVuSans-61" x="867.976562"/>
      <use xlink:href="#DejaVuSans-69" x="929.255859"/>
      <use xlink:href="#DejaVuSans-6e" x="957.039062"/>
     </g>
    </g>
   </g>
   <g id="LineCollection_1">
    <path d="M 69.927159 137.888927 
L 69.927159 56.982167 
" clip-path="url(#p38ea469fbe)" style="fill: none; stroke: #000000; stroke-width: 1.5"/>
    <path d="M 134.790795 123.718163 
L 134.790795 46.604315 
" clip-path="url(#p38ea469fbe)" style="fill: none; stroke: #000000; stroke-width: 1.5"/>
    <path d="M 199.654432 128.089725 
L 199.654432 50.038471 
" clip-path="url(#p38ea469fbe)" style="fill: none; stroke: #000000; stroke-width: 1.5"/>
    <path d="M 264.518068 130.194574 
L 264.518068 54.043871 
" clip-path="url(#p38ea469fbe)" style="fill: none; stroke: #000000; stroke-width: 1.5"/>
    <path d="M 329.381705 134.34152 
L 329.381705 61.328595 
" clip-path="url(#p38ea469fbe)" style="fill: none; stroke: #000000; stroke-width: 1.5"/>
   </g>
   <g id="line2d_12">
    <defs>
     <path id="m48ea8afc4c" d="M 3 0 
L -3 -0 
" style="stroke: #000000"/>
    </defs>
    <g clip-path="url(#p38ea469fbe)">
     <use xlink:href="#m48ea8afc4c" x="69.927159" y="137.888927" style="stroke: #000000"/>
     <use xlink:href="#m48ea8afc4c" x="134.790795" y="123.718163" style="stroke: #000000"/>
     <use xlink:href="#m48ea8afc4c" x="199.654432" y="128.089725" style="stroke: #000000"/>
     <use xlink:href="#m48ea8afc4c" x="264.518068" y="130.194574" style="stroke: #000000"/>
     <use xlink:href="#m48ea8afc4c" x="329.381705" y="134.34152" style="stroke: #000000"/>
    </g>
   </g>
   <g id="line2d_13">
    <g clip-path="url(#p38ea469fbe)">
     <use xlink:href="#m48ea8afc4c" x="69.927159" y="56.982167" style="stroke: #000000"/>
     <use xlink:href="#m48ea8afc4c" x="134.790795" y="46.604315" style="stroke: #000000"/>
     <use xlink:href="#m48ea8afc4c" x="199.654432" y="50.038471" style="stroke: #000000"/>
     <use xlink:href="#m48ea8afc4c" x="264.518068" y="54.043871" style="stroke: #000000"/>
     <use xlink:href="#m48ea8afc4c" x="329.381705" y="61.328595" style="stroke: #000000"/>
    </g>
   </g>
   <g id="LineCollection_2">
    <path d="M 79.656705 126.342367 
L 79.656705 49.93057 
" clip-path="url(#p38ea469fbe)" style="fill: none; stroke: #000000; stroke-width: 1.5"/>
    <path d="M 144.520341 121.098421 
L 144.520341 45.022332 
" clip-path="url(#p38ea469fbe)" style="fill: none; stroke: #000000; stroke-width: 1.5"/>
    <path d="M 209.383977 128.694755 
L 209.383977 50.153101 
" clip-path="url(#p38ea469fbe)" style="fill: none; stroke: #000000; stroke-width: 1.5"/>
    <path d="M 274.247614 136.522006 
L 274.247614 53.484864 
" clip-path="url(#p38ea469fbe)" style="fill: none; stroke: #000000; stroke-width: 1.5"/>
    <path d="M 339.11125 133.072172 
L 339.11125 53.195723 
" clip-path="url(#p38ea469fbe)" style="fill: none; stroke: #000000; stroke-width: 1.5"/>
   </g>
   <g id="line2d_14">
    <g clip-path="url(#p38ea469fbe)">
     <use xlink:href="#m48ea8afc4c" x="79.656705" y="126.342367" style="stroke: #000000"/>
     <use xlink:href="#m48ea8afc4c" x="144.520341" y="121.098421" style="stroke: #000000"/>
     <use xlink:href="#m48ea8afc4c" x="209.383977" y="128.694755" style="stroke: #000000"/>
     <use xlink:href="#m48ea8afc4c" x="274.247614" y="136.522006" style="stroke: #000000"/>
     <use xlink:href="#m48ea8afc4c" x="339.11125" y="133.072172" style="stroke: #000000"/>
    </g>
   </g>
   <g id="line2d_15">
    <g clip-path="url(#p38ea469fbe)">
     <use xlink:href="#m48ea8afc4c" x="79.656705" y="49.93057" style="stroke: #000000"/>
     <use xlink:href="#m48ea8afc4c" x="144.520341" y="45.022332" style="stroke: #000000"/>
     <use xlink:href="#m48ea8afc4c" x="209.383977" y="50.153101" style="stroke: #000000"/>
     <use xlink:href="#m48ea8afc4c" x="274.247614" y="53.484864" style="stroke: #000000"/>
     <use xlink:href="#m48ea8afc4c" x="339.11125" y="53.195723" style="stroke: #000000"/>
    </g>
   </g>
   <g id="LineCollection_3">
    <path d="M 89.38625 149.590891 
L 89.38625 114.805511 
" clip-path="url(#p38ea469fbe)" style="fill: none; stroke: #000000; stroke-width: 1.5"/>
    <path d="M 154.249886 136.794763 
L 154.249886 89.823553 
" clip-path="url(#p38ea469fbe)" style="fill: none; stroke: #000000; stroke-width: 1.5"/>
    <path d="M 219.113523 115.607721 
L 219.113523 47.731494 
" clip-path="url(#p38ea469fbe)" style="fill: none; stroke: #000000; stroke-width: 1.5"/>
    <path d="M 283.977159 107.69672 
L 283.977159 34.012266 
" clip-path="url(#p38ea469fbe)" style="fill: none; stroke: #000000; stroke-width: 1.5"/>
    <path d="M 348.840795 119.462626 
L 348.840795 39.677021 
" clip-path="url(#p38ea469fbe)" style="fill: none; stroke: #000000; stroke-width: 1.5"/>
   </g>
   <g id="line2d_16">
    <g clip-path="url(#p38ea469fbe)">
     <use xlink:href="#m48ea8afc4c" x="89.38625" y="149.590891" style="stroke: #000000"/>
     <use xlink:href="#m48ea8afc4c" x="154.249886" y="136.794763" style="stroke: #000000"/>
     <use xlink:href="#m48ea8afc4c" x="219.113523" y="115.607721" style="stroke: #000000"/>
     <use xlink:href="#m48ea8afc4c" x="283.977159" y="107.69672" style="stroke: #000000"/>
     <use xlink:href="#m48ea8afc4c" x="348.840795" y="119.462626" style="stroke: #000000"/>
    </g>
   </g>
   <g id="line2d_17">
    <g clip-path="url(#p38ea469fbe)">
     <use xlink:href="#m48ea8afc4c" x="89.38625" y="114.805511" style="stroke: #000000"/>
     <use xlink:href="#m48ea8afc4c" x="154.249886" y="89.823553" style="stroke: #000000"/>
     <use xlink:href="#m48ea8afc4c" x="219.113523" y="47.731494" style="stroke: #000000"/>
     <use xlink:href="#m48ea8afc4c" x="283.977159" y="34.012266" style="stroke: #000000"/>
     <use xlink:href="#m48ea8afc4c" x="348.840795" y="39.677021" style="stroke: #000000"/>
    </g>
   </g>
   <g id="LineCollection_4">
    <path d="M 99.115795 142.621582 
L 99.115795 89.062704 
" clip-path="url(#p38ea469fbe)" style="fill: none; stroke: #000000; stroke-width: 1.5"/>
    <path d="M 163.979432 139.123733 
L 163.979432 58.22747 
" clip-path="url(#p38ea469fbe)" style="fill: none; stroke: #000000; stroke-width: 1.5"/>
    <path d="M 228.843068 121.349203 
L 228.843068 39.632139 
" clip-path="url(#p38ea469fbe)" style="fill: none; stroke: #000000; stroke-width: 1.5"/>
    <path d="M 293.706705 123.369978 
L 293.706705 39.000797 
" clip-path="url(#p38ea469fbe)" style="fill: none; stroke: #000000; stroke-width: 1.5"/>
    <path d="M 358.570341 123.363732 
L 358.570341 43.152302 
" clip-path="url(#p38ea469fbe)" style="fill: none; stroke: #000000; stroke-width: 1.5"/>
   </g>
   <g id="line2d_18">
    <g clip-path="url(#p38ea469fbe)">
     <use xlink:href="#m48ea8afc4c" x="99.115795" y="142.621582" style="stroke: #000000"/>
     <use xlink:href="#m48ea8afc4c" x="163.979432" y="139.123733" style="stroke: #000000"/>
     <use xlink:href="#m48ea8afc4c" x="228.843068" y="121.349203" style="stroke: #000000"/>
     <use xlink:href="#m48ea8afc4c" x="293.706705" y="123.369978" style="stroke: #000000"/>
     <use xlink:href="#m48ea8afc4c" x="358.570341" y="123.363732" style="stroke: #000000"/>
    </g>
   </g>
   <g id="line2d_19">
    <g clip-path="url(#p38ea469fbe)">
     <use xlink:href="#m48ea8afc4c" x="99.115795" y="89.062704" style="stroke: #000000"/>
     <use xlink:href="#m48ea8afc4c" x="163.979432" y="58.22747" style="stroke: #000000"/>
     <use xlink:href="#m48ea8afc4c" x="228.843068" y="39.632139" style="stroke: #000000"/>
     <use xlink:href="#m48ea8afc4c" x="293.706705" y="39.000797" style="stroke: #000000"/>
     <use xlink:href="#m48ea8afc4c" x="358.570341" y="43.152302" style="stroke: #000000"/>
    </g>
   </g>
   <g id="line2d_20">
    <path d="M 50.14375 139.533325 
L 378.35375 139.533325 
" clip-path="url(#p38ea469fbe)" style="fill: none; stroke: #000000; stroke-opacity: 0.2; stroke-width: 1.5; stroke-linecap: square"/>
   </g>
   <g id="patch_23">
    <path d="M 50.14375 139.533325 
L 50.14375 33.892306 
" style="fill: none; stroke: #000000; stroke-width: 0.8; stroke-linejoin: miter; stroke-linecap: square"/>
   </g>
   <g id="patch_24">
    <path d="M 50.14375 139.533325 
L 378.35375 139.533325 
" style="fill: none; stroke: #000000; stroke-width: 0.8; stroke-linejoin: miter; stroke-linecap: square"/>
   </g>
   <g id="legend_1">
    <g id="patch_25">
     <path d="M 9.47375 24.878125 
L 419.02375 24.878125 
Q 421.02375 24.878125 421.02375 22.878125 
L 421.02375 9.2 
Q 421.02375 7.2 419.02375 7.2 
L 9.47375 7.2 
Q 7.47375 7.2 7.47375 9.2 
L 7.47375 22.878125 
Q 7.47375 24.878125 9.47375 24.878125 
z
" style="fill: #ffffff; opacity: 0.8; stroke: #cccccc; stroke-linejoin: miter"/>
    </g>
    <g id="patch_26">
     <path d="M 11.47375 18.798437 
L 31.47375 18.798437 
L 31.47375 11.798437 
L 11.47375 11.798437 
z
" style="fill: #1e3d8f"/>
    </g>
    <g id="text_14">
     <!-- TopK 0.1 Const -->
     <g transform="translate(39.47375 18.798437) scale(0.1 -0.1)">
      <defs>
       <path id="DejaVuSans-54" d="M -19 4666 
L 3928 4666 
L 3928 4134 
L 2272 4134 
L 2272 0 
L 1638 0 
L 1638 4134 
L -19 4134 
L -19 4666 
z
" transform="scale(0.015625)"/>
       <path id="DejaVuSans-6f" d="M 1959 3097 
Q 1497 3097 1228 2736 
Q 959 2375 959 1747 
Q 959 1119 1226 758 
Q 1494 397 1959 397 
Q 2419 397 2687 759 
Q 2956 1122 2956 1747 
Q 2956 2369 2687 2733 
Q 2419 3097 1959 3097 
z
M 1959 3584 
Q 2709 3584 3137 3096 
Q 3566 2609 3566 1747 
Q 3566 888 3137 398 
Q 2709 -91 1959 -91 
Q 1206 -91 779 398 
Q 353 888 353 1747 
Q 353 2609 779 3096 
Q 1206 3584 1959 3584 
z
" transform="scale(0.015625)"/>
       <path id="DejaVuSans-70" d="M 1159 525 
L 1159 -1331 
L 581 -1331 
L 581 3500 
L 1159 3500 
L 1159 2969 
Q 1341 3281 1617 3432 
Q 1894 3584 2278 3584 
Q 2916 3584 3314 3078 
Q 3713 2572 3713 1747 
Q 3713 922 3314 415 
Q 2916 -91 2278 -91 
Q 1894 -91 1617 61 
Q 1341 213 1159 525 
z
M 3116 1747 
Q 3116 2381 2855 2742 
Q 2594 3103 2138 3103 
Q 1681 3103 1420 2742 
Q 1159 2381 1159 1747 
Q 1159 1113 1420 752 
Q 1681 391 2138 391 
Q 2594 391 2855 752 
Q 3116 1113 3116 1747 
z
" transform="scale(0.015625)"/>
       <path id="DejaVuSans-4b" d="M 628 4666 
L 1259 4666 
L 1259 2694 
L 3353 4666 
L 4166 4666 
L 1850 2491 
L 4331 0 
L 3500 0 
L 1259 2247 
L 1259 0 
L 628 0 
L 628 4666 
z
" transform="scale(0.015625)"/>
       <path id="DejaVuSans-43" d="M 4122 4306 
L 4122 3641 
Q 3803 3938 3442 4084 
Q 3081 4231 2675 4231 
Q 1875 4231 1450 3742 
Q 1025 3253 1025 2328 
Q 1025 1406 1450 917 
Q 1875 428 2675 428 
Q 3081 428 3442 575 
Q 3803 722 4122 1019 
L 4122 359 
Q 3791 134 3420 21 
Q 3050 -91 2638 -91 
Q 1578 -91 968 557 
Q 359 1206 359 2328 
Q 359 3453 968 4101 
Q 1578 4750 2638 4750 
Q 3056 4750 3426 4639 
Q 3797 4528 4122 4306 
z
" transform="scale(0.015625)"/>
       <path id="DejaVuSans-73" d="M 2834 3397 
L 2834 2853 
Q 2591 2978 2328 3040 
Q 2066 3103 1784 3103 
Q 1356 3103 1142 2972 
Q 928 2841 928 2578 
Q 928 2378 1081 2264 
Q 1234 2150 1697 2047 
L 1894 2003 
Q 2506 1872 2764 1633 
Q 3022 1394 3022 966 
Q 3022 478 2636 193 
Q 2250 -91 1575 -91 
Q 1294 -91 989 -36 
Q 684 19 347 128 
L 347 722 
Q 666 556 975 473 
Q 1284 391 1588 391 
Q 1994 391 2212 530 
Q 2431 669 2431 922 
Q 2431 1156 2273 1281 
Q 2116 1406 1581 1522 
L 1381 1569 
Q 847 1681 609 1914 
Q 372 2147 372 2553 
Q 372 3047 722 3315 
Q 1072 3584 1716 3584 
Q 2034 3584 2315 3537 
Q 2597 3491 2834 3397 
z
" transform="scale(0.015625)"/>
      </defs>
      <use xlink:href="#DejaVuSans-54"/>
      <use xlink:href="#DejaVuSans-6f" x="44.083984"/>
      <use xlink:href="#DejaVuSans-70" x="105.265625"/>
      <use xlink:href="#DejaVuSans-4b" x="168.742188"/>
      <use xlink:href="#DejaVuSans-20" x="234.318359"/>
      <use xlink:href="#DejaVuSans-30" x="266.105469"/>
      <use xlink:href="#DejaVuSans-2e" x="329.728516"/>
      <use xlink:href="#DejaVuSans-31" x="361.515625"/>
      <use xlink:href="#DejaVuSans-20" x="425.138672"/>
      <use xlink:href="#DejaVuSans-43" x="456.925781"/>
      <use xlink:href="#DejaVuSans-6f" x="526.75"/>
      <use xlink:href="#DejaVuSans-6e" x="587.931641"/>
      <use xlink:href="#DejaVuSans-73" x="651.310547"/>
      <use xlink:href="#DejaVuSans-74" x="703.410156"/>
     </g>
    </g>
    <g id="patch_27">
     <path d="M 133.734688 18.798437 
L 153.734688 18.798437 
L 153.734688 11.798437 
L 133.734688 11.798437 
z
" style="fill: #1f77b4"/>
    </g>
    <g id="text_15">
     <!-- TopK 0.1 -->
     <g transform="translate(161.734688 18.798437) scale(0.1 -0.1)">
      <use xlink:href="#DejaVuSans-54"/>
      <use xlink:href="#DejaVuSans-6f" x="44.083984"/>
      <use xlink:href="#DejaVuSans-70" x="105.265625"/>
      <use xlink:href="#DejaVuSans-4b" x="168.742188"/>
      <use xlink:href="#DejaVuSans-20" x="234.318359"/>
      <use xlink:href="#DejaVuSans-30" x="266.105469"/>
      <use xlink:href="#DejaVuSans-2e" x="329.728516"/>
      <use xlink:href="#DejaVuSans-31" x="361.515625"/>
     </g>
    </g>
    <g id="patch_28">
     <path d="M 224.24875 18.798437 
L 244.24875 18.798437 
L 244.24875 11.798437 
L 224.24875 11.798437 
z
" style="fill: #556b2f"/>
    </g>
    <g id="text_16">
     <!-- TopK 0.5 Const -->
     <g transform="translate(252.24875 18.798437) scale(0.1 -0.1)">
      <use xlink:href="#DejaVuSans-54"/>
      <use xlink:href="#DejaVuSans-6f" x="44.083984"/>
      <use xlink:href="#DejaVuSans-70" x="105.265625"/>
      <use xlink:href="#DejaVuSans-4b" x="168.742188"/>
      <use xlink:href="#DejaVuSans-20" x="234.318359"/>
      <use xlink:href="#DejaVuSans-30" x="266.105469"/>
      <use xlink:href="#DejaVuSans-2e" x="329.728516"/>
      <use xlink:href="#DejaVuSans-35" x="361.515625"/>
      <use xlink:href="#DejaVuSans-20" x="425.138672"/>
      <use xlink:href="#DejaVuSans-43" x="456.925781"/>
      <use xlink:href="#DejaVuSans-6f" x="526.75"/>
      <use xlink:href="#DejaVuSans-6e" x="587.931641"/>
      <use xlink:href="#DejaVuSans-73" x="651.310547"/>
      <use xlink:href="#DejaVuSans-74" x="703.410156"/>
     </g>
    </g>
    <g id="patch_29">
     <path d="M 346.509688 18.798437 
L 366.509688 18.798437 
L 366.509688 11.798437 
L 346.509688 11.798437 
z
" style="fill: #2ca02c"/>
    </g>
    <g id="text_17">
     <!-- TopK 0.5 -->
     <g transform="translate(374.509688 18.798437) scale(0.1 -0.1)">
      <use xlink:href="#DejaVuSans-54"/>
      <use xlink:href="#DejaVuSans-6f" x="44.083984"/>
      <use xlink:href="#DejaVuSans-70" x="105.265625"/>
      <use xlink:href="#DejaVuSans-4b" x="168.742188"/>
      <use xlink:href="#DejaVuSans-20" x="234.318359"/>
      <use xlink:href="#DejaVuSans-30" x="266.105469"/>
      <use xlink:href="#DejaVuSans-2e" x="329.728516"/>
      <use xlink:href="#DejaVuSans-35" x="361.515625"/>
     </g>
    </g>
   </g>
  </g>
 </g>
 <defs>
  <clipPath id="p38ea469fbe">
   <rect x="50.14375" y="33.892306" width="328.21" height="105.64102"/>
  </clipPath>
 </defs>
</svg>
