<?xml version="1.0" encoding="utf-8" standalone="no"?>
<!DOCTYPE svg PUBLIC "-//W3C//DTD SVG 1.1//EN"
  "http://www.w3.org/Graphics/SVG/1.1/DTD/svg11.dtd">
<svg xmlns:xlink="http://www.w3.org/1999/xlink" width="435.613437pt" height="200.368762pt" viewBox="0 0 435.613437 200.368762" xmlns="http://www.w3.org/2000/svg" version="1.1">
 <metadata>
  <rdf:RDF xmlns:dc="http://purl.org/dc/elements/1.1/" xmlns:cc="http://creativecommons.org/ns#" xmlns:rdf="http://www.w3.org/1999/02/22-rdf-syntax-ns#">
   <cc:Work>
    <dc:type rdf:resource="http://purl.org/dc/dcmitype/StillImage"/>
    <dc:date>2025-02-13T16:41:49.187694</dc:date>
    <dc:format>image/svg+xml</dc:format>
    <dc:creator>
     <cc:Agent>
      <dc:title>Matplotlib v3.9.2, https://matplotlib.org/</dc:title>
     </cc:Agent>
    </dc:creator>
   </cc:Work>
  </rdf:RDF>
 </metadata>
 <defs>
  <style type="text/css">*{stroke-linejoin: round; stroke-linecap: butt}</style>
 </defs>
 <g id="figure_1">
  <g id="patch_1">
   <path d="M 0 200.368762 
L 435.613437 200.368762 
L 435.613437 0 
L 0 0 
z
" style="fill: #ffffff"/>
  </g>
  <g id="axes_1">
   <g id="patch_2">
    <path d="M 58.523438 162.812512 
L 384.753438 162.812512 
L 384.753438 31.162912 
L 58.523438 31.162912 
z
" style="fill: #ffffff"/>
   </g>
   <g id="matplotlib.axis_1">
    <g id="xtick_1">
     <g id="line2d_1">
      <defs>
       <path id="m48bbfa2602" d="M 0 0 
L 0 3.5 
" style="stroke: #000000; stroke-width: 0.8"/>
      </defs>
      <g>
       <use xlink:href="#m48bbfa2602" x="81.324459" y="162.812512" style="stroke: #000000; stroke-width: 0.8"/>
      </g>
     </g>
     <g id="text_1">
      <!-- 0.10 -->
      <g transform="translate(70.191647 177.41095) scale(0.1 -0.1)">
       <defs>
        <path id="DejaVuSans-30" d="M 2034 4250 
Q 1547 4250 1301 3770 
Q 1056 3291 1056 2328 
Q 1056 1369 1301 889 
Q 1547 409 2034 409 
Q 2525 409 2770 889 
Q 3016 1369 3016 2328 
Q 3016 3291 2770 3770 
Q 2525 4250 2034 4250 
z
M 2034 4750 
Q 2819 4750 3233 4129 
Q 3647 3509 3647 2328 
Q 3647 1150 3233 529 
Q 2819 -91 2034 -91 
Q 1250 -91 836 529 
Q 422 1150 422 2328 
Q 422 3509 836 4129 
Q 1250 4750 2034 4750 
z
" transform="scale(0.015625)"/>
        <path id="DejaVuSans-2e" d="M 684 794 
L 1344 794 
L 1344 0 
L 684 0 
L 684 794 
z
" transform="scale(0.015625)"/>
        <path id="DejaVuSans-31" d="M 794 531 
L 1825 531 
L 1825 4091 
L 703 3866 
L 703 4441 
L 1819 4666 
L 2450 4666 
L 2450 531 
L 3481 531 
L 3481 0 
L 794 0 
L 794 531 
z
" transform="scale(0.015625)"/>
       </defs>
       <use xlink:href="#DejaVuSans-30"/>
       <use xlink:href="#DejaVuSans-2e" x="63.623047"/>
       <use xlink:href="#DejaVuSans-31" x="95.410156"/>
       <use xlink:href="#DejaVuSans-30" x="159.033203"/>
      </g>
     </g>
    </g>
    <g id="xtick_2">
     <g id="line2d_2">
      <g>
       <use xlink:href="#m48bbfa2602" x="151.481448" y="162.812512" style="stroke: #000000; stroke-width: 0.8"/>
      </g>
     </g>
     <g id="text_2">
      <!-- 0.25 -->
      <g transform="translate(140.348636 177.41095) scale(0.1 -0.1)">
       <defs>
        <path id="DejaVuSans-32" d="M 1228 531 
L 3431 531 
L 3431 0 
L 469 0 
L 469 531 
Q 828 903 1448 1529 
Q 2069 2156 2228 2338 
Q 2531 2678 2651 2914 
Q 2772 3150 2772 3378 
Q 2772 3750 2511 3984 
Q 2250 4219 1831 4219 
Q 1534 4219 1204 4116 
Q 875 4013 500 3803 
L 500 4441 
Q 881 4594 1212 4672 
Q 1544 4750 1819 4750 
Q 2544 4750 2975 4387 
Q 3406 4025 3406 3419 
Q 3406 3131 3298 2873 
Q 3191 2616 2906 2266 
Q 2828 2175 2409 1742 
Q 1991 1309 1228 531 
z
" transform="scale(0.015625)"/>
        <path id="DejaVuSans-35" d="M 691 4666 
L 3169 4666 
L 3169 4134 
L 1269 4134 
L 1269 2991 
Q 1406 3038 1543 3061 
Q 1681 3084 1819 3084 
Q 2600 3084 3056 2656 
Q 3513 2228 3513 1497 
Q 3513 744 3044 326 
Q 2575 -91 1722 -91 
Q 1428 -91 1123 -41 
Q 819 9 494 109 
L 494 744 
Q 775 591 1075 516 
Q 1375 441 1709 441 
Q 2250 441 2565 725 
Q 2881 1009 2881 1497 
Q 2881 1984 2565 2268 
Q 2250 2553 1709 2553 
Q 1456 2553 1204 2497 
Q 953 2441 691 2322 
L 691 4666 
z
" transform="scale(0.015625)"/>
       </defs>
       <use xlink:href="#DejaVuSans-30"/>
       <use xlink:href="#DejaVuSans-2e" x="63.623047"/>
       <use xlink:href="#DejaVuSans-32" x="95.410156"/>
       <use xlink:href="#DejaVuSans-35" x="159.033203"/>
      </g>
     </g>
    </g>
    <g id="xtick_3">
     <g id="line2d_3">
      <g>
       <use xlink:href="#m48bbfa2602" x="221.638438" y="162.812512" style="stroke: #000000; stroke-width: 0.8"/>
      </g>
     </g>
     <g id="text_3">
      <!-- 0.50 -->
      <g transform="translate(210.505625 177.41095) scale(0.1 -0.1)">
       <use xlink:href="#DejaVuSans-30"/>
       <use xlink:href="#DejaVuSans-2e" x="63.623047"/>
       <use xlink:href="#DejaVuSans-35" x="95.410156"/>
       <use xlink:href="#DejaVuSans-30" x="159.033203"/>
      </g>
     </g>
    </g>
    <g id="xtick_4">
     <g id="line2d_4">
      <g>
       <use xlink:href="#m48bbfa2602" x="291.795427" y="162.812512" style="stroke: #000000; stroke-width: 0.8"/>
      </g>
     </g>
     <g id="text_4">
      <!-- 0.75 -->
      <g transform="translate(280.662614 177.41095) scale(0.1 -0.1)">
       <defs>
        <path id="DejaVuSans-37" d="M 525 4666 
L 3525 4666 
L 3525 4397 
L 1831 0 
L 1172 0 
L 2766 4134 
L 525 4134 
L 525 4666 
z
" transform="scale(0.015625)"/>
       </defs>
       <use xlink:href="#DejaVuSans-30"/>
       <use xlink:href="#DejaVuSans-2e" x="63.623047"/>
       <use xlink:href="#DejaVuSans-37" x="95.410156"/>
       <use xlink:href="#DejaVuSans-35" x="159.033203"/>
      </g>
     </g>
    </g>
    <g id="xtick_5">
     <g id="line2d_5">
      <g>
       <use xlink:href="#m48bbfa2602" x="361.952416" y="162.812512" style="stroke: #000000; stroke-width: 0.8"/>
      </g>
     </g>
     <g id="text_5">
      <!-- 1.00 -->
      <g transform="translate(350.819603 177.41095) scale(0.1 -0.1)">
       <use xlink:href="#DejaVuSans-31"/>
       <use xlink:href="#DejaVuSans-2e" x="63.623047"/>
       <use xlink:href="#DejaVuSans-30" x="95.410156"/>
       <use xlink:href="#DejaVuSans-30" x="159.033203"/>
      </g>
     </g>
    </g>
    <g id="text_6">
     <!-- Mix Rate -->
     <g transform="translate(199.924375 191.089075) scale(0.1 -0.1)">
      <defs>
       <path id="DejaVuSans-4d" d="M 628 4666 
L 1569 4666 
L 2759 1491 
L 3956 4666 
L 4897 4666 
L 4897 0 
L 4281 0 
L 4281 4097 
L 3078 897 
L 2444 897 
L 1241 4097 
L 1241 0 
L 628 0 
L 628 4666 
z
" transform="scale(0.015625)"/>
       <path id="DejaVuSans-69" d="M 603 3500 
L 1178 3500 
L 1178 0 
L 603 0 
L 603 3500 
z
M 603 4863 
L 1178 4863 
L 1178 4134 
L 603 4134 
L 603 4863 
z
" transform="scale(0.015625)"/>
       <path id="DejaVuSans-78" d="M 3513 3500 
L 2247 1797 
L 3578 0 
L 2900 0 
L 1881 1375 
L 863 0 
L 184 0 
L 1544 1831 
L 300 3500 
L 978 3500 
L 1906 2253 
L 2834 3500 
L 3513 3500 
z
" transform="scale(0.015625)"/>
       <path id="DejaVuSans-20" transform="scale(0.015625)"/>
       <path id="DejaVuSans-52" d="M 2841 2188 
Q 3044 2119 3236 1894 
Q 3428 1669 3622 1275 
L 4263 0 
L 3584 0 
L 2988 1197 
Q 2756 1666 2539 1819 
Q 2322 1972 1947 1972 
L 1259 1972 
L 1259 0 
L 628 0 
L 628 4666 
L 2053 4666 
Q 2853 4666 3247 4331 
Q 3641 3997 3641 3322 
Q 3641 2881 3436 2590 
Q 3231 2300 2841 2188 
z
M 1259 4147 
L 1259 2491 
L 2053 2491 
Q 2509 2491 2742 2702 
Q 2975 2913 2975 3322 
Q 2975 3731 2742 3939 
Q 2509 4147 2053 4147 
L 1259 4147 
z
" transform="scale(0.015625)"/>
       <path id="DejaVuSans-61" d="M 2194 1759 
Q 1497 1759 1228 1600 
Q 959 1441 959 1056 
Q 959 750 1161 570 
Q 1363 391 1709 391 
Q 2188 391 2477 730 
Q 2766 1069 2766 1631 
L 2766 1759 
L 2194 1759 
z
M 3341 1997 
L 3341 0 
L 2766 0 
L 2766 531 
Q 2569 213 2275 61 
Q 1981 -91 1556 -91 
Q 1019 -91 701 211 
Q 384 513 384 1019 
Q 384 1609 779 1909 
Q 1175 2209 1959 2209 
L 2766 2209 
L 2766 2266 
Q 2766 2663 2505 2880 
Q 2244 3097 1772 3097 
Q 1472 3097 1187 3025 
Q 903 2953 641 2809 
L 641 3341 
Q 956 3463 1253 3523 
Q 1550 3584 1831 3584 
Q 2591 3584 2966 3190 
Q 3341 2797 3341 1997 
z
" transform="scale(0.015625)"/>
       <path id="DejaVuSans-74" d="M 1172 4494 
L 1172 3500 
L 2356 3500 
L 2356 3053 
L 1172 3053 
L 1172 1153 
Q 1172 725 1289 603 
Q 1406 481 1766 481 
L 2356 481 
L 2356 0 
L 1766 0 
Q 1100 0 847 248 
Q 594 497 594 1153 
L 594 3053 
L 172 3053 
L 172 3500 
L 594 3500 
L 594 4494 
L 1172 4494 
z
" transform="scale(0.015625)"/>
       <path id="DejaVuSans-65" d="M 3597 1894 
L 3597 1613 
L 953 1613 
Q 991 1019 1311 708 
Q 1631 397 2203 397 
Q 2534 397 2845 478 
Q 3156 559 3463 722 
L 3463 178 
Q 3153 47 2828 -22 
Q 2503 -91 2169 -91 
Q 1331 -91 842 396 
Q 353 884 353 1716 
Q 353 2575 817 3079 
Q 1281 3584 2069 3584 
Q 2775 3584 3186 3129 
Q 3597 2675 3597 1894 
z
M 3022 2063 
Q 3016 2534 2758 2815 
Q 2500 3097 2075 3097 
Q 1594 3097 1305 2825 
Q 1016 2553 972 2059 
L 3022 2063 
z
" transform="scale(0.015625)"/>
      </defs>
      <use xlink:href="#DejaVuSans-4d"/>
      <use xlink:href="#DejaVuSans-69" x="86.279297"/>
      <use xlink:href="#DejaVuSans-78" x="114.0625"/>
      <use xlink:href="#DejaVuSans-20" x="173.242188"/>
      <use xlink:href="#DejaVuSans-52" x="205.029297"/>
      <use xlink:href="#DejaVuSans-61" x="272.261719"/>
      <use xlink:href="#DejaVuSans-74" x="333.541016"/>
      <use xlink:href="#DejaVuSans-65" x="372.75"/>
     </g>
    </g>
   </g>
   <g id="matplotlib.axis_2">
    <g id="ytick_1">
     <g id="line2d_6">
      <defs>
       <path id="mffdca9fdda" d="M 0 0 
L -3.5 0 
" style="stroke: #000000; stroke-width: 0.8"/>
      </defs>
      <g>
       <use xlink:href="#mffdca9fdda" x="58.523438" y="144.653946" style="stroke: #000000; stroke-width: 0.8"/>
      </g>
     </g>
     <g id="text_7">
      <!-- −0.25 -->
      <g transform="translate(20.878125 148.453165) scale(0.1 -0.1)">
       <defs>
        <path id="DejaVuSans-2212" d="M 678 2272 
L 4684 2272 
L 4684 1741 
L 678 1741 
L 678 2272 
z
" transform="scale(0.015625)"/>
       </defs>
       <use xlink:href="#DejaVuSans-2212"/>
       <use xlink:href="#DejaVuSans-30" x="83.789062"/>
       <use xlink:href="#DejaVuSans-2e" x="147.412109"/>
       <use xlink:href="#DejaVuSans-32" x="179.199219"/>
       <use xlink:href="#DejaVuSans-35" x="242.822266"/>
      </g>
     </g>
    </g>
    <g id="ytick_2">
     <g id="line2d_7">
      <g>
       <use xlink:href="#mffdca9fdda" x="58.523438" y="121.95574" style="stroke: #000000; stroke-width: 0.8"/>
      </g>
     </g>
     <g id="text_8">
      <!-- 0.00 -->
      <g transform="translate(29.257813 125.754958) scale(0.1 -0.1)">
       <use xlink:href="#DejaVuSans-30"/>
       <use xlink:href="#DejaVuSans-2e" x="63.623047"/>
       <use xlink:href="#DejaVuSans-30" x="95.410156"/>
       <use xlink:href="#DejaVuSans-30" x="159.033203"/>
      </g>
     </g>
    </g>
    <g id="ytick_3">
     <g id="line2d_8">
      <g>
       <use xlink:href="#mffdca9fdda" x="58.523438" y="99.257533" style="stroke: #000000; stroke-width: 0.8"/>
      </g>
     </g>
     <g id="text_9">
      <!-- 0.25 -->
      <g transform="translate(29.257813 103.056751) scale(0.1 -0.1)">
       <use xlink:href="#DejaVuSans-30"/>
       <use xlink:href="#DejaVuSans-2e" x="63.623047"/>
       <use xlink:href="#DejaVuSans-32" x="95.410156"/>
       <use xlink:href="#DejaVuSans-35" x="159.033203"/>
      </g>
     </g>
    </g>
    <g id="ytick_4">
     <g id="line2d_9">
      <g>
       <use xlink:href="#mffdca9fdda" x="58.523438" y="76.559326" style="stroke: #000000; stroke-width: 0.8"/>
      </g>
     </g>
     <g id="text_10">
      <!-- 0.50 -->
      <g transform="translate(29.257813 80.358545) scale(0.1 -0.1)">
       <use xlink:href="#DejaVuSans-30"/>
       <use xlink:href="#DejaVuSans-2e" x="63.623047"/>
       <use xlink:href="#DejaVuSans-35" x="95.410156"/>
       <use xlink:href="#DejaVuSans-30" x="159.033203"/>
      </g>
     </g>
    </g>
    <g id="ytick_5">
     <g id="line2d_10">
      <g>
       <use xlink:href="#mffdca9fdda" x="58.523438" y="53.861119" style="stroke: #000000; stroke-width: 0.8"/>
      </g>
     </g>
     <g id="text_11">
      <!-- 0.75 -->
      <g transform="translate(29.257813 57.660338) scale(0.1 -0.1)">
       <use xlink:href="#DejaVuSans-30"/>
       <use xlink:href="#DejaVuSans-2e" x="63.623047"/>
       <use xlink:href="#DejaVuSans-37" x="95.410156"/>
       <use xlink:href="#DejaVuSans-35" x="159.033203"/>
      </g>
     </g>
    </g>
    <g id="ytick_6">
     <g id="line2d_11">
      <g>
       <use xlink:href="#mffdca9fdda" x="58.523438" y="31.162912" style="stroke: #000000; stroke-width: 0.8"/>
      </g>
     </g>
     <g id="text_12">
      <!-- 1.00 -->
      <g transform="translate(29.257813 34.962131) scale(0.1 -0.1)">
       <use xlink:href="#DejaVuSans-31"/>
       <use xlink:href="#DejaVuSans-2e" x="63.623047"/>
       <use xlink:href="#DejaVuSans-30" x="95.410156"/>
       <use xlink:href="#DejaVuSans-30" x="159.033203"/>
      </g>
     </g>
    </g>
    <g id="text_13">
     <!-- Worst-Group Acc Gain -->
     <g transform="translate(14.798438 152.027556) rotate(-90) scale(0.1 -0.1)">
      <defs>
       <path id="DejaVuSans-57" d="M 213 4666 
L 850 4666 
L 1831 722 
L 2809 4666 
L 3519 4666 
L 4500 722 
L 5478 4666 
L 6119 4666 
L 4947 0 
L 4153 0 
L 3169 4050 
L 2175 0 
L 1381 0 
L 213 4666 
z
" transform="scale(0.015625)"/>
       <path id="DejaVuSans-6f" d="M 1959 3097 
Q 1497 3097 1228 2736 
Q 959 2375 959 1747 
Q 959 1119 1226 758 
Q 1494 397 1959 397 
Q 2419 397 2687 759 
Q 2956 1122 2956 1747 
Q 2956 2369 2687 2733 
Q 2419 3097 1959 3097 
z
M 1959 3584 
Q 2709 3584 3137 3096 
Q 3566 2609 3566 1747 
Q 3566 888 3137 398 
Q 2709 -91 1959 -91 
Q 1206 -91 779 398 
Q 353 888 353 1747 
Q 353 2609 779 3096 
Q 1206 3584 1959 3584 
z
" transform="scale(0.015625)"/>
       <path id="DejaVuSans-72" d="M 2631 2963 
Q 2534 3019 2420 3045 
Q 2306 3072 2169 3072 
Q 1681 3072 1420 2755 
Q 1159 2438 1159 1844 
L 1159 0 
L 581 0 
L 581 3500 
L 1159 3500 
L 1159 2956 
Q 1341 3275 1631 3429 
Q 1922 3584 2338 3584 
Q 2397 3584 2469 3576 
Q 2541 3569 2628 3553 
L 2631 2963 
z
" transform="scale(0.015625)"/>
       <path id="DejaVuSans-73" d="M 2834 3397 
L 2834 2853 
Q 2591 2978 2328 3040 
Q 2066 3103 1784 3103 
Q 1356 3103 1142 2972 
Q 928 2841 928 2578 
Q 928 2378 1081 2264 
Q 1234 2150 1697 2047 
L 1894 2003 
Q 2506 1872 2764 1633 
Q 3022 1394 3022 966 
Q 3022 478 2636 193 
Q 2250 -91 1575 -91 
Q 1294 -91 989 -36 
Q 684 19 347 128 
L 347 722 
Q 666 556 975 473 
Q 1284 391 1588 391 
Q 1994 391 2212 530 
Q 2431 669 2431 922 
Q 2431 1156 2273 1281 
Q 2116 1406 1581 1522 
L 1381 1569 
Q 847 1681 609 1914 
Q 372 2147 372 2553 
Q 372 3047 722 3315 
Q 1072 3584 1716 3584 
Q 2034 3584 2315 3537 
Q 2597 3491 2834 3397 
z
" transform="scale(0.015625)"/>
       <path id="DejaVuSans-2d" d="M 313 2009 
L 1997 2009 
L 1997 1497 
L 313 1497 
L 313 2009 
z
" transform="scale(0.015625)"/>
       <path id="DejaVuSans-47" d="M 3809 666 
L 3809 1919 
L 2778 1919 
L 2778 2438 
L 4434 2438 
L 4434 434 
Q 4069 175 3628 42 
Q 3188 -91 2688 -91 
Q 1594 -91 976 548 
Q 359 1188 359 2328 
Q 359 3472 976 4111 
Q 1594 4750 2688 4750 
Q 3144 4750 3555 4637 
Q 3966 4525 4313 4306 
L 4313 3634 
Q 3963 3931 3569 4081 
Q 3175 4231 2741 4231 
Q 1884 4231 1454 3753 
Q 1025 3275 1025 2328 
Q 1025 1384 1454 906 
Q 1884 428 2741 428 
Q 3075 428 3337 486 
Q 3600 544 3809 666 
z
" transform="scale(0.015625)"/>
       <path id="DejaVuSans-75" d="M 544 1381 
L 544 3500 
L 1119 3500 
L 1119 1403 
Q 1119 906 1312 657 
Q 1506 409 1894 409 
Q 2359 409 2629 706 
Q 2900 1003 2900 1516 
L 2900 3500 
L 3475 3500 
L 3475 0 
L 2900 0 
L 2900 538 
Q 2691 219 2414 64 
Q 2138 -91 1772 -91 
Q 1169 -91 856 284 
Q 544 659 544 1381 
z
M 1991 3584 
L 1991 3584 
z
" transform="scale(0.015625)"/>
       <path id="DejaVuSans-70" d="M 1159 525 
L 1159 -1331 
L 581 -1331 
L 581 3500 
L 1159 3500 
L 1159 2969 
Q 1341 3281 1617 3432 
Q 1894 3584 2278 3584 
Q 2916 3584 3314 3078 
Q 3713 2572 3713 1747 
Q 3713 922 3314 415 
Q 2916 -91 2278 -91 
Q 1894 -91 1617 61 
Q 1341 213 1159 525 
z
M 3116 1747 
Q 3116 2381 2855 2742 
Q 2594 3103 2138 3103 
Q 1681 3103 1420 2742 
Q 1159 2381 1159 1747 
Q 1159 1113 1420 752 
Q 1681 391 2138 391 
Q 2594 391 2855 752 
Q 3116 1113 3116 1747 
z
" transform="scale(0.015625)"/>
       <path id="DejaVuSans-41" d="M 2188 4044 
L 1331 1722 
L 3047 1722 
L 2188 4044 
z
M 1831 4666 
L 2547 4666 
L 4325 0 
L 3669 0 
L 3244 1197 
L 1141 1197 
L 716 0 
L 50 0 
L 1831 4666 
z
" transform="scale(0.015625)"/>
       <path id="DejaVuSans-63" d="M 3122 3366 
L 3122 2828 
Q 2878 2963 2633 3030 
Q 2388 3097 2138 3097 
Q 1578 3097 1268 2742 
Q 959 2388 959 1747 
Q 959 1106 1268 751 
Q 1578 397 2138 397 
Q 2388 397 2633 464 
Q 2878 531 3122 666 
L 3122 134 
Q 2881 22 2623 -34 
Q 2366 -91 2075 -91 
Q 1284 -91 818 406 
Q 353 903 353 1747 
Q 353 2603 823 3093 
Q 1294 3584 2113 3584 
Q 2378 3584 2631 3529 
Q 2884 3475 3122 3366 
z
" transform="scale(0.015625)"/>
       <path id="DejaVuSans-6e" d="M 3513 2113 
L 3513 0 
L 2938 0 
L 2938 2094 
Q 2938 2591 2744 2837 
Q 2550 3084 2163 3084 
Q 1697 3084 1428 2787 
Q 1159 2491 1159 1978 
L 1159 0 
L 581 0 
L 581 3500 
L 1159 3500 
L 1159 2956 
Q 1366 3272 1645 3428 
Q 1925 3584 2291 3584 
Q 2894 3584 3203 3211 
Q 3513 2838 3513 2113 
z
" transform="scale(0.015625)"/>
      </defs>
      <use xlink:href="#DejaVuSans-57"/>
      <use xlink:href="#DejaVuSans-6f" x="93.001953"/>
      <use xlink:href="#DejaVuSans-72" x="154.183594"/>
      <use xlink:href="#DejaVuSans-73" x="195.296875"/>
      <use xlink:href="#DejaVuSans-74" x="247.396484"/>
      <use xlink:href="#DejaVuSans-2d" x="286.605469"/>
      <use xlink:href="#DejaVuSans-47" x="326.314453"/>
      <use xlink:href="#DejaVuSans-72" x="403.804688"/>
      <use xlink:href="#DejaVuSans-6f" x="442.667969"/>
      <use xlink:href="#DejaVuSans-75" x="503.849609"/>
      <use xlink:href="#DejaVuSans-70" x="567.228516"/>
      <use xlink:href="#DejaVuSans-20" x="630.705078"/>
      <use xlink:href="#DejaVuSans-41" x="662.492188"/>
      <use xlink:href="#DejaVuSans-63" x="729.150391"/>
      <use xlink:href="#DejaVuSans-63" x="784.130859"/>
      <use xlink:href="#DejaVuSans-20" x="839.111328"/>
      <use xlink:href="#DejaVuSans-47" x="870.898438"/>
      <use xlink:href="#DejaVuSans-61" x="948.388672"/>
      <use xlink:href="#DejaVuSans-69" x="1009.667969"/>
      <use xlink:href="#DejaVuSans-6e" x="1037.451172"/>
     </g>
    </g>
   </g>
   <g id="patch_3">
    <path d="M 60.277362 128.218763 
L 70.800911 128.218763 
L 70.800911 70.567 
L 60.277362 70.567 
L 60.277362 128.218763 
z
" clip-path="url(#paf5372486c)" style="fill: #1e3d8f; opacity: 0.6; stroke: #000000; stroke-linejoin: miter"/>
   </g>
   <g id="line2d_12">
    <path d="M 65.539136 128.218763 
L 65.539136 140.25786 
" clip-path="url(#paf5372486c)" style="fill: none; stroke-dasharray: 3.7,1.6; stroke-dashoffset: 0; stroke: #000000"/>
   </g>
   <g id="line2d_13">
    <path d="M 65.539136 70.567 
L 65.539136 33.756993 
" clip-path="url(#paf5372486c)" style="fill: none; stroke-dasharray: 3.7,1.6; stroke-dashoffset: 0; stroke: #000000"/>
   </g>
   <g id="line2d_14">
    <path d="M 62.908249 140.25786 
L 68.170024 140.25786 
" clip-path="url(#paf5372486c)" style="fill: none; stroke: #000000; stroke-linecap: square"/>
   </g>
   <g id="line2d_15">
    <path d="M 62.908249 33.756993 
L 68.170024 33.756993 
" clip-path="url(#paf5372486c)" style="fill: none; stroke: #000000; stroke-linecap: square"/>
   </g>
   <g id="line2d_16"/>
   <g id="patch_4">
    <path d="M 130.434351 119.634477 
L 140.9579 119.634477 
L 140.9579 66.7537 
L 130.434351 66.7537 
L 130.434351 119.634477 
z
" clip-path="url(#paf5372486c)" style="fill: #1e3d8f; opacity: 0.6; stroke: #000000; stroke-linejoin: miter"/>
   </g>
   <g id="line2d_17">
    <path d="M 135.696126 119.634477 
L 135.696126 134.902125 
" clip-path="url(#paf5372486c)" style="fill: none; stroke-dasharray: 3.7,1.6; stroke-dashoffset: 0; stroke: #000000"/>
   </g>
   <g id="line2d_18">
    <path d="M 135.696126 66.7537 
L 135.696126 33.756993 
" clip-path="url(#paf5372486c)" style="fill: none; stroke-dasharray: 3.7,1.6; stroke-dashoffset: 0; stroke: #000000"/>
   </g>
   <g id="line2d_19">
    <path d="M 133.065239 134.902125 
L 138.327013 134.902125 
" clip-path="url(#paf5372486c)" style="fill: none; stroke: #000000; stroke-linecap: square"/>
   </g>
   <g id="line2d_20">
    <path d="M 133.065239 33.756993 
L 138.327013 33.756993 
" clip-path="url(#paf5372486c)" style="fill: none; stroke: #000000; stroke-linecap: square"/>
   </g>
   <g id="line2d_21"/>
   <g id="patch_5">
    <path d="M 200.591341 115.40297 
L 211.114889 115.40297 
L 211.114889 61.739714 
L 200.591341 61.739714 
L 200.591341 115.40297 
z
" clip-path="url(#paf5372486c)" style="fill: #1e3d8f; opacity: 0.6; stroke: #000000; stroke-linejoin: miter"/>
   </g>
   <g id="line2d_22">
    <path d="M 205.853115 115.40297 
L 205.853115 117.247964 
" clip-path="url(#paf5372486c)" style="fill: none; stroke-dasharray: 3.7,1.6; stroke-dashoffset: 0; stroke: #000000"/>
   </g>
   <g id="line2d_23">
    <path d="M 205.853115 61.739714 
L 205.853115 39.31574 
" clip-path="url(#paf5372486c)" style="fill: none; stroke-dasharray: 3.7,1.6; stroke-dashoffset: 0; stroke: #000000"/>
   </g>
   <g id="line2d_24">
    <path d="M 203.222228 117.247964 
L 208.484002 117.247964 
" clip-path="url(#paf5372486c)" style="fill: none; stroke: #000000; stroke-linecap: square"/>
   </g>
   <g id="line2d_25">
    <path d="M 203.222228 39.31574 
L 208.484002 39.31574 
" clip-path="url(#paf5372486c)" style="fill: none; stroke: #000000; stroke-linecap: square"/>
   </g>
   <g id="line2d_26"/>
   <g id="patch_6">
    <path d="M 270.74833 115.207196 
L 281.271878 115.207196 
L 281.271878 66.7537 
L 270.74833 66.7537 
L 270.74833 115.207196 
z
" clip-path="url(#paf5372486c)" style="fill: #1e3d8f; opacity: 0.6; stroke: #000000; stroke-linejoin: miter"/>
   </g>
   <g id="line2d_27">
    <path d="M 276.010104 115.207196 
L 276.010104 120.220845 
" clip-path="url(#paf5372486c)" style="fill: none; stroke-dasharray: 3.7,1.6; stroke-dashoffset: 0; stroke: #000000"/>
   </g>
   <g id="line2d_28">
    <path d="M 276.010104 66.7537 
L 276.010104 37.833407 
" clip-path="url(#paf5372486c)" style="fill: none; stroke-dasharray: 3.7,1.6; stroke-dashoffset: 0; stroke: #000000"/>
   </g>
   <g id="line2d_29">
    <path d="M 273.379217 120.220845 
L 278.640991 120.220845 
" clip-path="url(#paf5372486c)" style="fill: none; stroke: #000000; stroke-linecap: square"/>
   </g>
   <g id="line2d_30">
    <path d="M 273.379217 37.833407 
L 278.640991 37.833407 
" clip-path="url(#paf5372486c)" style="fill: none; stroke: #000000; stroke-linecap: square"/>
   </g>
   <g id="line2d_31"/>
   <g id="patch_7">
    <path d="M 340.905319 116.752664 
L 351.428868 116.752664 
L 351.428868 69.714658 
L 340.905319 69.714658 
L 340.905319 116.752664 
z
" clip-path="url(#paf5372486c)" style="fill: #1e3d8f; opacity: 0.6; stroke: #000000; stroke-linejoin: miter"/>
   </g>
   <g id="line2d_32">
    <path d="M 346.167093 116.752664 
L 346.167093 135.449516 
" clip-path="url(#paf5372486c)" style="fill: none; stroke-dasharray: 3.7,1.6; stroke-dashoffset: 0; stroke: #000000"/>
   </g>
   <g id="line2d_33">
    <path d="M 346.167093 69.714658 
L 346.167093 41.168654 
" clip-path="url(#paf5372486c)" style="fill: none; stroke-dasharray: 3.7,1.6; stroke-dashoffset: 0; stroke: #000000"/>
   </g>
   <g id="line2d_34">
    <path d="M 343.536206 135.449516 
L 348.797981 135.449516 
" clip-path="url(#paf5372486c)" style="fill: none; stroke: #000000; stroke-linecap: square"/>
   </g>
   <g id="line2d_35">
    <path d="M 343.536206 41.168654 
L 348.797981 41.168654 
" clip-path="url(#paf5372486c)" style="fill: none; stroke: #000000; stroke-linecap: square"/>
   </g>
   <g id="line2d_36"/>
   <g id="patch_8">
    <path d="M 70.800911 112.585152 
L 81.324459 112.585152 
L 81.324459 60.627964 
L 70.800911 60.627964 
L 70.800911 112.585152 
z
" clip-path="url(#paf5372486c)" style="fill: #1f77b4; opacity: 0.6; stroke: #000000; stroke-linejoin: miter"/>
   </g>
   <g id="line2d_37">
    <path d="M 76.062685 112.585152 
L 76.062685 131.631127 
" clip-path="url(#paf5372486c)" style="fill: none; stroke-dasharray: 3.7,1.6; stroke-dashoffset: 0; stroke: #000000"/>
   </g>
   <g id="line2d_38">
    <path d="M 76.062685 60.627964 
L 76.062685 34.127573 
" clip-path="url(#paf5372486c)" style="fill: none; stroke-dasharray: 3.7,1.6; stroke-dashoffset: 0; stroke: #000000"/>
   </g>
   <g id="line2d_39">
    <path d="M 73.431798 131.631127 
L 78.693572 131.631127 
" clip-path="url(#paf5372486c)" style="fill: none; stroke: #000000; stroke-linecap: square"/>
   </g>
   <g id="line2d_40">
    <path d="M 73.431798 34.127573 
L 78.693572 34.127573 
" clip-path="url(#paf5372486c)" style="fill: none; stroke: #000000; stroke-linecap: square"/>
   </g>
   <g id="line2d_41"/>
   <g id="patch_9">
    <path d="M 140.9579 112.499699 
L 151.481448 112.499699 
L 151.481448 53.401597 
L 140.9579 53.401597 
L 140.9579 112.499699 
z
" clip-path="url(#paf5372486c)" style="fill: #1f77b4; opacity: 0.6; stroke: #000000; stroke-linejoin: miter"/>
   </g>
   <g id="line2d_42">
    <path d="M 146.219674 112.499699 
L 146.219674 129.509799 
" clip-path="url(#paf5372486c)" style="fill: none; stroke-dasharray: 3.7,1.6; stroke-dashoffset: 0; stroke: #000000"/>
   </g>
   <g id="line2d_43">
    <path d="M 146.219674 53.401597 
L 146.219674 33.756993 
" clip-path="url(#paf5372486c)" style="fill: none; stroke-dasharray: 3.7,1.6; stroke-dashoffset: 0; stroke: #000000"/>
   </g>
   <g id="line2d_44">
    <path d="M 143.588787 129.509799 
L 148.850561 129.509799 
" clip-path="url(#paf5372486c)" style="fill: none; stroke: #000000; stroke-linecap: square"/>
   </g>
   <g id="line2d_45">
    <path d="M 143.588787 33.756993 
L 148.850561 33.756993 
" clip-path="url(#paf5372486c)" style="fill: none; stroke: #000000; stroke-linecap: square"/>
   </g>
   <g id="line2d_46"/>
   <g id="patch_10">
    <path d="M 211.114889 113.368887 
L 221.638438 113.368887 
L 221.638438 66.7537 
L 211.114889 66.7537 
L 211.114889 113.368887 
z
" clip-path="url(#paf5372486c)" style="fill: #1f77b4; opacity: 0.6; stroke: #000000; stroke-linejoin: miter"/>
   </g>
   <g id="line2d_47">
    <path d="M 216.376663 113.368887 
L 216.376663 138.136531 
" clip-path="url(#paf5372486c)" style="fill: none; stroke-dasharray: 3.7,1.6; stroke-dashoffset: 0; stroke: #000000"/>
   </g>
   <g id="line2d_48">
    <path d="M 216.376663 66.7537 
L 216.376663 33.756993 
" clip-path="url(#paf5372486c)" style="fill: none; stroke-dasharray: 3.7,1.6; stroke-dashoffset: 0; stroke: #000000"/>
   </g>
   <g id="line2d_49">
    <path d="M 213.745776 138.136531 
L 219.00755 138.136531 
" clip-path="url(#paf5372486c)" style="fill: none; stroke: #000000; stroke-linecap: square"/>
   </g>
   <g id="line2d_50">
    <path d="M 213.745776 33.756993 
L 219.00755 33.756993 
" clip-path="url(#paf5372486c)" style="fill: none; stroke: #000000; stroke-linecap: square"/>
   </g>
   <g id="line2d_51"/>
   <g id="patch_11">
    <path d="M 281.271878 115.846056 
L 291.795427 115.846056 
L 291.795427 66.7537 
L 281.271878 66.7537 
L 281.271878 115.846056 
z
" clip-path="url(#paf5372486c)" style="fill: #1f77b4; opacity: 0.6; stroke: #000000; stroke-linejoin: miter"/>
   </g>
   <g id="line2d_52">
    <path d="M 286.533653 115.846056 
L 286.533653 124.309628 
" clip-path="url(#paf5372486c)" style="fill: none; stroke-dasharray: 3.7,1.6; stroke-dashoffset: 0; stroke: #000000"/>
   </g>
   <g id="line2d_53">
    <path d="M 286.533653 66.7537 
L 286.533653 36.351073 
" clip-path="url(#paf5372486c)" style="fill: none; stroke-dasharray: 3.7,1.6; stroke-dashoffset: 0; stroke: #000000"/>
   </g>
   <g id="line2d_54">
    <path d="M 283.902765 124.309628 
L 289.16454 124.309628 
" clip-path="url(#paf5372486c)" style="fill: none; stroke: #000000; stroke-linecap: square"/>
   </g>
   <g id="line2d_55">
    <path d="M 283.902765 36.351073 
L 289.16454 36.351073 
" clip-path="url(#paf5372486c)" style="fill: none; stroke: #000000; stroke-linecap: square"/>
   </g>
   <g id="line2d_56"/>
   <g id="patch_12">
    <path d="M 351.428868 110.295125 
L 361.952416 110.295125 
L 361.952416 66.7537 
L 351.428868 66.7537 
L 351.428868 110.295125 
z
" clip-path="url(#paf5372486c)" style="fill: #1f77b4; opacity: 0.6; stroke: #000000; stroke-linejoin: miter"/>
   </g>
   <g id="line2d_57">
    <path d="M 356.690642 110.295125 
L 356.690642 134.902125 
" clip-path="url(#paf5372486c)" style="fill: none; stroke-dasharray: 3.7,1.6; stroke-dashoffset: 0; stroke: #000000"/>
   </g>
   <g id="line2d_58">
    <path d="M 356.690642 66.7537 
L 356.690642 37.09224 
" clip-path="url(#paf5372486c)" style="fill: none; stroke-dasharray: 3.7,1.6; stroke-dashoffset: 0; stroke: #000000"/>
   </g>
   <g id="line2d_59">
    <path d="M 354.059755 134.902125 
L 359.321529 134.902125 
" clip-path="url(#paf5372486c)" style="fill: none; stroke: #000000; stroke-linecap: square"/>
   </g>
   <g id="line2d_60">
    <path d="M 354.059755 37.09224 
L 359.321529 37.09224 
" clip-path="url(#paf5372486c)" style="fill: none; stroke: #000000; stroke-linecap: square"/>
   </g>
   <g id="line2d_61"/>
   <g id="patch_13">
    <path d="M 81.324459 133.700948 
L 91.848007 133.700948 
L 91.848007 106.29861 
L 81.324459 106.29861 
L 81.324459 133.700948 
z
" clip-path="url(#paf5372486c)" style="fill: #556b2f; opacity: 0.6; stroke: #000000; stroke-linejoin: miter"/>
   </g>
   <g id="line2d_62">
    <path d="M 86.586233 133.700948 
L 86.586233 157.546528 
" clip-path="url(#paf5372486c)" style="fill: none; stroke-dasharray: 3.7,1.6; stroke-dashoffset: 0; stroke: #000000"/>
   </g>
   <g id="line2d_63">
    <path d="M 86.586233 106.29861 
L 86.586233 66.7537 
" clip-path="url(#paf5372486c)" style="fill: none; stroke-dasharray: 3.7,1.6; stroke-dashoffset: 0; stroke: #000000"/>
   </g>
   <g id="line2d_64">
    <path d="M 83.955346 157.546528 
L 89.21712 157.546528 
" clip-path="url(#paf5372486c)" style="fill: none; stroke: #000000; stroke-linecap: square"/>
   </g>
   <g id="line2d_65">
    <path d="M 83.955346 66.7537 
L 89.21712 66.7537 
" clip-path="url(#paf5372486c)" style="fill: none; stroke: #000000; stroke-linecap: square"/>
   </g>
   <g id="line2d_66"/>
   <g id="patch_14">
    <path d="M 151.481448 131.117792 
L 162.004997 131.117792 
L 162.004997 75.354932 
L 151.481448 75.354932 
L 151.481448 131.117792 
z
" clip-path="url(#paf5372486c)" style="fill: #556b2f; opacity: 0.6; stroke: #000000; stroke-linejoin: miter"/>
   </g>
   <g id="line2d_67">
    <path d="M 156.743222 131.117792 
L 156.743222 139.387962 
" clip-path="url(#paf5372486c)" style="fill: none; stroke-dasharray: 3.7,1.6; stroke-dashoffset: 0; stroke: #000000"/>
   </g>
   <g id="line2d_68">
    <path d="M 156.743222 75.354932 
L 156.743222 37.833407 
" clip-path="url(#paf5372486c)" style="fill: none; stroke-dasharray: 3.7,1.6; stroke-dashoffset: 0; stroke: #000000"/>
   </g>
   <g id="line2d_69">
    <path d="M 154.112335 139.387962 
L 159.37411 139.387962 
" clip-path="url(#paf5372486c)" style="fill: none; stroke: #000000; stroke-linecap: square"/>
   </g>
   <g id="line2d_70">
    <path d="M 154.112335 37.833407 
L 159.37411 37.833407 
" clip-path="url(#paf5372486c)" style="fill: none; stroke: #000000; stroke-linecap: square"/>
   </g>
   <g id="line2d_71"/>
   <g id="patch_15">
    <path d="M 221.638438 108.880697 
L 232.161986 108.880697 
L 232.161986 54.50964 
L 221.638438 54.50964 
L 221.638438 108.880697 
z
" clip-path="url(#paf5372486c)" style="fill: #556b2f; opacity: 0.6; stroke: #000000; stroke-linejoin: miter"/>
   </g>
   <g id="line2d_72">
    <path d="M 226.900212 108.880697 
L 226.900212 137.330415 
" clip-path="url(#paf5372486c)" style="fill: none; stroke-dasharray: 3.7,1.6; stroke-dashoffset: 0; stroke: #000000"/>
   </g>
   <g id="line2d_73">
    <path d="M 226.900212 54.50964 
L 226.900212 32.645245 
" clip-path="url(#paf5372486c)" style="fill: none; stroke-dasharray: 3.7,1.6; stroke-dashoffset: 0; stroke: #000000"/>
   </g>
   <g id="line2d_74">
    <path d="M 224.269325 137.330415 
L 229.531099 137.330415 
" clip-path="url(#paf5372486c)" style="fill: none; stroke: #000000; stroke-linecap: square"/>
   </g>
   <g id="line2d_75">
    <path d="M 224.269325 32.645245 
L 229.531099 32.645245 
" clip-path="url(#paf5372486c)" style="fill: none; stroke: #000000; stroke-linecap: square"/>
   </g>
   <g id="line2d_76"/>
   <g id="patch_16">
    <path d="M 291.795427 111.094951 
L 302.318975 111.094951 
L 302.318975 39.778966 
L 291.795427 39.778966 
L 291.795427 111.094951 
z
" clip-path="url(#paf5372486c)" style="fill: #556b2f; opacity: 0.6; stroke: #000000; stroke-linejoin: miter"/>
   </g>
   <g id="line2d_77">
    <path d="M 297.057201 111.094951 
L 297.057201 132.884506 
" clip-path="url(#paf5372486c)" style="fill: none; stroke-dasharray: 3.7,1.6; stroke-dashoffset: 0; stroke: #000000"/>
   </g>
   <g id="line2d_78">
    <path d="M 297.057201 39.778966 
L 297.057201 32.645245 
" clip-path="url(#paf5372486c)" style="fill: none; stroke-dasharray: 3.7,1.6; stroke-dashoffset: 0; stroke: #000000"/>
   </g>
   <g id="line2d_79">
    <path d="M 294.426314 132.884506 
L 299.688088 132.884506 
" clip-path="url(#paf5372486c)" style="fill: none; stroke: #000000; stroke-linecap: square"/>
   </g>
   <g id="line2d_80">
    <path d="M 294.426314 32.645245 
L 299.688088 32.645245 
" clip-path="url(#paf5372486c)" style="fill: none; stroke: #000000; stroke-linecap: square"/>
   </g>
   <g id="line2d_81"/>
   <g id="patch_17">
    <path d="M 361.952416 112.501603 
L 372.475964 112.501603 
L 372.475964 47.561209 
L 361.952416 47.561209 
L 361.952416 112.501603 
z
" clip-path="url(#paf5372486c)" style="fill: #556b2f; opacity: 0.6; stroke: #000000; stroke-linejoin: miter"/>
   </g>
   <g id="line2d_82">
    <path d="M 367.21419 112.501603 
L 367.21419 126.831651 
" clip-path="url(#paf5372486c)" style="fill: none; stroke-dasharray: 3.7,1.6; stroke-dashoffset: 0; stroke: #000000"/>
   </g>
   <g id="line2d_83">
    <path d="M 367.21419 47.561209 
L 367.21419 33.386412 
" clip-path="url(#paf5372486c)" style="fill: none; stroke-dasharray: 3.7,1.6; stroke-dashoffset: 0; stroke: #000000"/>
   </g>
   <g id="line2d_84">
    <path d="M 364.583303 126.831651 
L 369.845077 126.831651 
" clip-path="url(#paf5372486c)" style="fill: none; stroke: #000000; stroke-linecap: square"/>
   </g>
   <g id="line2d_85">
    <path d="M 364.583303 33.386412 
L 369.845077 33.386412 
" clip-path="url(#paf5372486c)" style="fill: none; stroke: #000000; stroke-linecap: square"/>
   </g>
   <g id="line2d_86"/>
   <g id="patch_18">
    <path d="M 91.848007 113.783157 
L 102.371556 113.783157 
L 102.371556 77.207847 
L 91.848007 77.207847 
L 91.848007 113.783157 
z
" clip-path="url(#paf5372486c)" style="fill: #2ca02c; opacity: 0.6; stroke: #000000; stroke-linejoin: miter"/>
   </g>
   <g id="line2d_87">
    <path d="M 97.109782 113.783157 
L 97.109782 132.124536 
" clip-path="url(#paf5372486c)" style="fill: none; stroke-dasharray: 3.7,1.6; stroke-dashoffset: 0; stroke: #000000"/>
   </g>
   <g id="line2d_88">
    <path d="M 97.109782 77.207847 
L 97.109782 34.86874 
" clip-path="url(#paf5372486c)" style="fill: none; stroke-dasharray: 3.7,1.6; stroke-dashoffset: 0; stroke: #000000"/>
   </g>
   <g id="line2d_89">
    <path d="M 94.478894 132.124536 
L 99.740669 132.124536 
" clip-path="url(#paf5372486c)" style="fill: none; stroke: #000000; stroke-linecap: square"/>
   </g>
   <g id="line2d_90">
    <path d="M 94.478894 34.86874 
L 99.740669 34.86874 
" clip-path="url(#paf5372486c)" style="fill: none; stroke: #000000; stroke-linecap: square"/>
   </g>
   <g id="line2d_91"/>
   <g id="patch_19">
    <path d="M 162.004997 102.133875 
L 172.528545 102.133875 
L 172.528545 68.0248 
L 162.004997 68.0248 
L 162.004997 102.133875 
z
" clip-path="url(#paf5372486c)" style="fill: #2ca02c; opacity: 0.6; stroke: #000000; stroke-linejoin: miter"/>
   </g>
   <g id="line2d_92">
    <path d="M 167.266771 102.133875 
L 167.266771 113.166078 
" clip-path="url(#paf5372486c)" style="fill: none; stroke-dasharray: 3.7,1.6; stroke-dashoffset: 0; stroke: #000000"/>
   </g>
   <g id="line2d_93">
    <path d="M 167.266771 68.0248 
L 167.266771 32.645245 
" clip-path="url(#paf5372486c)" style="fill: none; stroke-dasharray: 3.7,1.6; stroke-dashoffset: 0; stroke: #000000"/>
   </g>
   <g id="line2d_94">
    <path d="M 164.635884 113.166078 
L 169.897658 113.166078 
" clip-path="url(#paf5372486c)" style="fill: none; stroke: #000000; stroke-linecap: square"/>
   </g>
   <g id="line2d_95">
    <path d="M 164.635884 32.645245 
L 169.897658 32.645245 
" clip-path="url(#paf5372486c)" style="fill: none; stroke: #000000; stroke-linecap: square"/>
   </g>
   <g id="line2d_96"/>
   <g id="patch_20">
    <path d="M 232.161986 97.597538 
L 242.685534 97.597538 
L 242.685534 47.468561 
L 232.161986 47.468561 
L 232.161986 97.597538 
z
" clip-path="url(#paf5372486c)" style="fill: #2ca02c; opacity: 0.6; stroke: #000000; stroke-linejoin: miter"/>
   </g>
   <g id="line2d_97">
    <path d="M 237.42376 97.597538 
L 237.42376 125.318437 
" clip-path="url(#paf5372486c)" style="fill: none; stroke-dasharray: 3.7,1.6; stroke-dashoffset: 0; stroke: #000000"/>
   </g>
   <g id="line2d_98">
    <path d="M 237.42376 47.468561 
L 237.42376 33.015826 
" clip-path="url(#paf5372486c)" style="fill: none; stroke-dasharray: 3.7,1.6; stroke-dashoffset: 0; stroke: #000000"/>
   </g>
   <g id="line2d_99">
    <path d="M 234.792873 125.318437 
L 240.054647 125.318437 
" clip-path="url(#paf5372486c)" style="fill: none; stroke: #000000; stroke-linecap: square"/>
   </g>
   <g id="line2d_100">
    <path d="M 234.792873 33.015826 
L 240.054647 33.015826 
" clip-path="url(#paf5372486c)" style="fill: none; stroke: #000000; stroke-linecap: square"/>
   </g>
   <g id="line2d_101"/>
   <g id="patch_21">
    <path d="M 302.318975 103.972491 
L 312.842524 103.972491 
L 312.842524 44.040669 
L 302.318975 44.040669 
L 302.318975 103.972491 
z
" clip-path="url(#paf5372486c)" style="fill: #2ca02c; opacity: 0.6; stroke: #000000; stroke-linejoin: miter"/>
   </g>
   <g id="line2d_102">
    <path d="M 307.580749 103.972491 
L 307.580749 121.787604 
" clip-path="url(#paf5372486c)" style="fill: none; stroke-dasharray: 3.7,1.6; stroke-dashoffset: 0; stroke: #000000"/>
   </g>
   <g id="line2d_103">
    <path d="M 307.580749 44.040669 
L 307.580749 33.015826 
" clip-path="url(#paf5372486c)" style="fill: none; stroke-dasharray: 3.7,1.6; stroke-dashoffset: 0; stroke: #000000"/>
   </g>
   <g id="line2d_104">
    <path d="M 304.949862 121.787604 
L 310.211636 121.787604 
" clip-path="url(#paf5372486c)" style="fill: none; stroke: #000000; stroke-linecap: square"/>
   </g>
   <g id="line2d_105">
    <path d="M 304.949862 33.015826 
L 310.211636 33.015826 
" clip-path="url(#paf5372486c)" style="fill: none; stroke: #000000; stroke-linecap: square"/>
   </g>
   <g id="line2d_106"/>
   <g id="patch_22">
    <path d="M 372.475964 106.641186 
L 382.999513 106.641186 
L 382.999513 48.858249 
L 372.475964 48.858249 
L 372.475964 106.641186 
z
" clip-path="url(#paf5372486c)" style="fill: #2ca02c; opacity: 0.6; stroke: #000000; stroke-linejoin: miter"/>
   </g>
   <g id="line2d_107">
    <path d="M 377.737739 106.641186 
L 377.737739 126.327246 
" clip-path="url(#paf5372486c)" style="fill: none; stroke-dasharray: 3.7,1.6; stroke-dashoffset: 0; stroke: #000000"/>
   </g>
   <g id="line2d_108">
    <path d="M 377.737739 48.858249 
L 377.737739 35.609907 
" clip-path="url(#paf5372486c)" style="fill: none; stroke-dasharray: 3.7,1.6; stroke-dashoffset: 0; stroke: #000000"/>
   </g>
   <g id="line2d_109">
    <path d="M 375.106851 126.327246 
L 380.368626 126.327246 
" clip-path="url(#paf5372486c)" style="fill: none; stroke: #000000; stroke-linecap: square"/>
   </g>
   <g id="line2d_110">
    <path d="M 375.106851 35.609907 
L 380.368626 35.609907 
" clip-path="url(#paf5372486c)" style="fill: none; stroke: #000000; stroke-linecap: square"/>
   </g>
   <g id="line2d_111"/>
   <g id="line2d_112">
    <path d="M 58.523438 121.95574 
L 384.753438 121.95574 
" clip-path="url(#paf5372486c)" style="fill: none; stroke: #000000; stroke-opacity: 0.2; stroke-width: 1.5; stroke-linecap: square"/>
   </g>
   <g id="line2d_113">
    <path d="M 60.277362 107.099294 
L 70.800911 107.099294 
" clip-path="url(#paf5372486c)" style="fill: none; stroke: #000000"/>
   </g>
   <g id="line2d_114">
    <path d="M 130.434351 110.629982 
L 140.9579 110.629982 
" clip-path="url(#paf5372486c)" style="fill: none; stroke: #000000"/>
   </g>
   <g id="line2d_115">
    <path d="M 200.591341 87.214201 
L 211.114889 87.214201 
" clip-path="url(#paf5372486c)" style="fill: none; stroke: #000000"/>
   </g>
   <g id="line2d_116">
    <path d="M 270.74833 89.565142 
L 281.271878 89.565142 
" clip-path="url(#paf5372486c)" style="fill: none; stroke: #000000"/>
   </g>
   <g id="line2d_117">
    <path d="M 340.905319 106.851382 
L 351.428868 106.851382 
" clip-path="url(#paf5372486c)" style="fill: none; stroke: #000000"/>
   </g>
   <g id="line2d_118">
    <path d="M 70.800911 99.314879 
L 81.324459 99.314879 
" clip-path="url(#paf5372486c)" style="fill: none; stroke: #000000"/>
   </g>
   <g id="line2d_119">
    <path d="M 140.9579 98.573016 
L 151.481448 98.573016 
" clip-path="url(#paf5372486c)" style="fill: none; stroke: #000000"/>
   </g>
   <g id="line2d_120">
    <path d="M 211.114889 88.000093 
L 221.638438 88.000093 
" clip-path="url(#paf5372486c)" style="fill: none; stroke: #000000"/>
   </g>
   <g id="line2d_121">
    <path d="M 281.271878 103.713386 
L 291.795427 103.713386 
" clip-path="url(#paf5372486c)" style="fill: none; stroke: #000000"/>
   </g>
   <g id="line2d_122">
    <path d="M 351.428868 97.902015 
L 361.952416 97.902015 
" clip-path="url(#paf5372486c)" style="fill: none; stroke: #000000"/>
   </g>
   <g id="line2d_123">
    <path d="M 81.324459 118.503311 
L 91.848007 118.503311 
" clip-path="url(#paf5372486c)" style="fill: none; stroke: #000000"/>
   </g>
   <g id="line2d_124">
    <path d="M 151.481448 115.452136 
L 162.004997 115.452136 
" clip-path="url(#paf5372486c)" style="fill: none; stroke: #000000"/>
   </g>
   <g id="line2d_125">
    <path d="M 221.638438 80.557432 
L 232.161986 80.557432 
" clip-path="url(#paf5372486c)" style="fill: none; stroke: #000000"/>
   </g>
   <g id="line2d_126">
    <path d="M 291.795427 74.043698 
L 302.318975 74.043698 
" clip-path="url(#paf5372486c)" style="fill: none; stroke: #000000"/>
   </g>
   <g id="line2d_127">
    <path d="M 361.952416 75.513871 
L 372.475964 75.513871 
" clip-path="url(#paf5372486c)" style="fill: none; stroke: #000000"/>
   </g>
   <g id="line2d_128">
    <path d="M 91.848007 102.658874 
L 102.371556 102.658874 
" clip-path="url(#paf5372486c)" style="fill: none; stroke: #000000"/>
   </g>
   <g id="line2d_129">
    <path d="M 162.004997 88.404327 
L 172.528545 88.404327 
" clip-path="url(#paf5372486c)" style="fill: none; stroke: #000000"/>
   </g>
   <g id="line2d_130">
    <path d="M 232.161986 74.082353 
L 242.685534 74.082353 
" clip-path="url(#paf5372486c)" style="fill: none; stroke: #000000"/>
   </g>
   <g id="line2d_131">
    <path d="M 302.318975 77.130606 
L 312.842524 77.130606 
" clip-path="url(#paf5372486c)" style="fill: none; stroke: #000000"/>
   </g>
   <g id="line2d_132">
    <path d="M 372.475964 77.263122 
L 382.999513 77.263122 
" clip-path="url(#paf5372486c)" style="fill: none; stroke: #000000"/>
   </g>
   <g id="patch_23">
    <path d="M 58.523438 162.812512 
L 58.523438 31.162912 
" style="fill: none; stroke: #000000; stroke-width: 0.8; stroke-linejoin: miter; stroke-linecap: square"/>
   </g>
   <g id="patch_24">
    <path d="M 58.523438 162.812512 
L 384.753438 162.812512 
" style="fill: none; stroke: #000000; stroke-width: 0.8; stroke-linejoin: miter; stroke-linecap: square"/>
   </g>
   <g id="legend_1">
    <g id="patch_25">
     <path d="M 16.863438 24.878125 
L 426.413437 24.878125 
Q 428.413437 24.878125 428.413437 22.878125 
L 428.413437 9.2 
Q 428.413437 7.2 426.413437 7.2 
L 16.863438 7.2 
Q 14.863438 7.2 14.863438 9.2 
L 14.863438 22.878125 
Q 14.863438 24.878125 16.863438 24.878125 
z
" style="fill: #ffffff; opacity: 0.8; stroke: #cccccc; stroke-linejoin: miter"/>
    </g>
    <g id="patch_26">
     <path d="M 18.863438 18.798438 
L 38.863438 18.798438 
L 38.863438 11.798438 
L 18.863438 11.798438 
z
" style="fill: #1e3d8f; opacity: 0.6"/>
    </g>
    <g id="text_14">
     <!-- TopK 0.1 Const -->
     <g transform="translate(46.863438 18.798438) scale(0.1 -0.1)">
      <defs>
       <path id="DejaVuSans-54" d="M -19 4666 
L 3928 4666 
L 3928 4134 
L 2272 4134 
L 2272 0 
L 1638 0 
L 1638 4134 
L -19 4134 
L -19 4666 
z
" transform="scale(0.015625)"/>
       <path id="DejaVuSans-4b" d="M 628 4666 
L 1259 4666 
L 1259 2694 
L 3353 4666 
L 4166 4666 
L 1850 2491 
L 4331 0 
L 3500 0 
L 1259 2247 
L 1259 0 
L 628 0 
L 628 4666 
z
" transform="scale(0.015625)"/>
       <path id="DejaVuSans-43" d="M 4122 4306 
L 4122 3641 
Q 3803 3938 3442 4084 
Q 3081 4231 2675 4231 
Q 1875 4231 1450 3742 
Q 1025 3253 1025 2328 
Q 1025 1406 1450 917 
Q 1875 428 2675 428 
Q 3081 428 3442 575 
Q 3803 722 4122 1019 
L 4122 359 
Q 3791 134 3420 21 
Q 3050 -91 2638 -91 
Q 1578 -91 968 557 
Q 359 1206 359 2328 
Q 359 3453 968 4101 
Q 1578 4750 2638 4750 
Q 3056 4750 3426 4639 
Q 3797 4528 4122 4306 
z
" transform="scale(0.015625)"/>
      </defs>
      <use xlink:href="#DejaVuSans-54"/>
      <use xlink:href="#DejaVuSans-6f" x="44.083984"/>
      <use xlink:href="#DejaVuSans-70" x="105.265625"/>
      <use xlink:href="#DejaVuSans-4b" x="168.742188"/>
      <use xlink:href="#DejaVuSans-20" x="234.318359"/>
      <use xlink:href="#DejaVuSans-30" x="266.105469"/>
      <use xlink:href="#DejaVuSans-2e" x="329.728516"/>
      <use xlink:href="#DejaVuSans-31" x="361.515625"/>
      <use xlink:href="#DejaVuSans-20" x="425.138672"/>
      <use xlink:href="#DejaVuSans-43" x="456.925781"/>
      <use xlink:href="#DejaVuSans-6f" x="526.75"/>
      <use xlink:href="#DejaVuSans-6e" x="587.931641"/>
      <use xlink:href="#DejaVuSans-73" x="651.310547"/>
      <use xlink:href="#DejaVuSans-74" x="703.410156"/>
     </g>
    </g>
    <g id="patch_27">
     <path d="M 141.124375 18.798438 
L 161.124375 18.798438 
L 161.124375 11.798438 
L 141.124375 11.798438 
z
" style="fill: #1f77b4; opacity: 0.6"/>
    </g>
    <g id="text_15">
     <!-- TopK 0.1 -->
     <g transform="translate(169.124375 18.798438) scale(0.1 -0.1)">
      <use xlink:href="#DejaVuSans-54"/>
      <use xlink:href="#DejaVuSans-6f" x="44.083984"/>
      <use xlink:href="#DejaVuSans-70" x="105.265625"/>
      <use xlink:href="#DejaVuSans-4b" x="168.742188"/>
      <use xlink:href="#DejaVuSans-20" x="234.318359"/>
      <use xlink:href="#DejaVuSans-30" x="266.105469"/>
      <use xlink:href="#DejaVuSans-2e" x="329.728516"/>
      <use xlink:href="#DejaVuSans-31" x="361.515625"/>
     </g>
    </g>
    <g id="patch_28">
     <path d="M 231.638438 18.798438 
L 251.638438 18.798438 
L 251.638438 11.798438 
L 231.638438 11.798438 
z
" style="fill: #556b2f; opacity: 0.6"/>
    </g>
    <g id="text_16">
     <!-- TopK 0.5 Const -->
     <g transform="translate(259.638438 18.798438) scale(0.1 -0.1)">
      <use xlink:href="#DejaVuSans-54"/>
      <use xlink:href="#DejaVuSans-6f" x="44.083984"/>
      <use xlink:href="#DejaVuSans-70" x="105.265625"/>
      <use xlink:href="#DejaVuSans-4b" x="168.742188"/>
      <use xlink:href="#DejaVuSans-20" x="234.318359"/>
      <use xlink:href="#DejaVuSans-30" x="266.105469"/>
      <use xlink:href="#DejaVuSans-2e" x="329.728516"/>
      <use xlink:href="#DejaVuSans-35" x="361.515625"/>
      <use xlink:href="#DejaVuSans-20" x="425.138672"/>
      <use xlink:href="#DejaVuSans-43" x="456.925781"/>
      <use xlink:href="#DejaVuSans-6f" x="526.75"/>
      <use xlink:href="#DejaVuSans-6e" x="587.931641"/>
      <use xlink:href="#DejaVuSans-73" x="651.310547"/>
      <use xlink:href="#DejaVuSans-74" x="703.410156"/>
     </g>
    </g>
    <g id="patch_29">
     <path d="M 353.899375 18.798438 
L 373.899375 18.798438 
L 373.899375 11.798438 
L 353.899375 11.798438 
z
" style="fill: #2ca02c; opacity: 0.6"/>
    </g>
    <g id="text_17">
     <!-- TopK 0.5 -->
     <g transform="translate(381.899375 18.798438) scale(0.1 -0.1)">
      <use xlink:href="#DejaVuSans-54"/>
      <use xlink:href="#DejaVuSans-6f" x="44.083984"/>
      <use xlink:href="#DejaVuSans-70" x="105.265625"/>
      <use xlink:href="#DejaVuSans-4b" x="168.742188"/>
      <use xlink:href="#DejaVuSans-20" x="234.318359"/>
      <use xlink:href="#DejaVuSans-30" x="266.105469"/>
      <use xlink:href="#DejaVuSans-2e" x="329.728516"/>
      <use xlink:href="#DejaVuSans-35" x="361.515625"/>
     </g>
    </g>
   </g>
  </g>
 </g>
 <defs>
  <clipPath id="paf5372486c">
   <rect x="58.523438" y="31.162912" width="326.23" height="131.6496"/>
  </clipPath>
 </defs>
</svg>
